<?xml version="1.0" standalone="no"?>
<!DOCTYPE svg PUBLIC "-//W3C//DTD SVG 1.1//EN" "http://www.w3.org/Graphics/SVG/1.1/DTD/svg11.dtd" >
<svg xmlns="http://www.w3.org/2000/svg" xmlns:xlink="http://www.w3.org/1999/xlink" version="1.1">
<metadata>
Created by FontForge 20170731 at Mon Jul 12 17:52:55 2021
 By Aleksey,,,
Copyright (c) 2019 by Eugene Tantsurin. All rights reserved.
</metadata>
<defs>
<font id="OktaNeue-Bold" horiz-adv-x="0" >
  <font-face 
    font-family="OktaNeue-Bold"
    font-weight="700"
    font-stretch="normal"
    units-per-em="2048"
    panose-1="0 0 8 0 0 0 0 0 0 0"
    ascent="1638"
    descent="-410"
    x-height="1014"
    cap-height="1434"
    bbox="-1485 -532 2753 2290"
    underline-thickness="102"
    underline-position="-307"
    unicode-range="U+0020-FB4B"
  />
<missing-glyph horiz-adv-x="2430" 
d="M1217 -195q-188 0 -357.5 72t-290 194.5t-191.5 291t-71 354.5t71 354.5t191.5 290.5t290 194t357.5 72t356.5 -72t289 -194t191 -290.5t70.5 -354.5t-70.5 -354.5t-191 -291t-289 -194.5t-356.5 -72zM1214 -2q145 0 274.5 55t224 150t149.5 229t55 285t-55 285
t-149.5 229t-224 150t-274.5 55q-192 0 -352.5 -93.5t-254 -259t-93.5 -366.5t93.5 -366.5t254 -259t352.5 -93.5zM1217 573l-279 -278l-145 145l278 279l-278 278l145 146l279 -279l278 279l145 -146l-278 -278l278 -279l-145 -145z" />
    <glyph glyph-name="f_f" unicode="ff" horiz-adv-x="1478" 
d="M541 0h-287v764h-188v250h188v137q0 83 20.5 153t62.5 125t112.5 86t162.5 31q119 0 219 -43l-45 -227q-58 20 -110 20q-62 0 -98.5 -39.5t-36.5 -121.5v-121h350v137q0 83 21 153t63.5 125t113 86t162.5 31q117 0 217 -43l-43 -227q-58 20 -110 20q-63 0 -100 -39
t-37 -122v-121h262v-250h-262v-764h-287v764h-350v-764z" />
    <glyph glyph-name="f_f_i" unicode="ffi" horiz-adv-x="1953" 
d="M541 0h-287v764h-188v250h188v137q0 83 20.5 153t62.5 125t112.5 86t162.5 31q119 0 219 -43l-45 -227q-58 20 -110 20q-62 0 -98.5 -39.5t-36.5 -121.5v-121h350v139q0 83 20 153t59.5 125t106.5 86t154 31q104 0 203 -41l-41 -223q-56 16 -95 16q-56 0 -88 -39.5
t-32 -121.5v-125h639v-1014h-287v764h-352v-764h-287v764h-350v-764zM1686 1167q-71 0 -120.5 49t-49.5 119q0 69 49.5 117.5t120.5 48.5q69 0 118 -48t49 -118t-49 -119t-118 -49z" />
    <glyph glyph-name="f_i" unicode="fi" horiz-adv-x="1316" 
d="M541 0h-287v764h-188v250h188v135q0 83 19.5 153t59 125t106 86t153.5 31q106 0 203 -43l-41 -221q-46 14 -92 14q-121 0 -121 -161v-119h637v-1014h-287v764h-350v-764zM1047 1167q-71 0 -120.5 49t-49.5 119q0 69 49.5 117.5t120.5 48.5q69 0 118 -48t49 -118t-49 -119
t-118 -49z" />
    <glyph glyph-name="f_l" unicode="fl" horiz-adv-x="1429" 
d="M1225 -20q-158 0 -247 98.5t-89 267.5v948q-60 11 -111 11q-106 0 -172.5 -58t-66.5 -176v-57h200v-250h-200v-764h-287v764h-186v250h186v61q0 110 31 196.5t80.5 139t117.5 86t135 46.5t140 13q235 0 420 -81v-1092q0 -76 34.5 -111.5t92.5 -35.5q49 0 77 14l27 -234
q-73 -36 -182 -36z" />
    <glyph glyph-name=".notdef" horiz-adv-x="2430" 
d="M1217 -195q-188 0 -357.5 72t-290 194.5t-191.5 291t-71 354.5t71 354.5t191.5 290.5t290 194t357.5 72t356.5 -72t289 -194t191 -290.5t70.5 -354.5t-70.5 -354.5t-191 -291t-289 -194.5t-356.5 -72zM1214 -2q145 0 274.5 55t224 150t149.5 229t55 285t-55 285
t-149.5 229t-224 150t-274.5 55q-192 0 -352.5 -93.5t-254 -259t-93.5 -366.5t93.5 -366.5t254 -259t352.5 -93.5zM1217 573l-279 -278l-145 145l278 279l-278 278l145 146l279 -279l278 279l145 -146l-278 -278l278 -279l-145 -145z" />
    <glyph glyph-name=".null" 
 />
    <glyph glyph-name="nonmarkingreturn" horiz-adv-x="682" 
 />
    <glyph glyph-name="space" unicode=" " horiz-adv-x="544" 
 />
    <glyph glyph-name="exclam" unicode="!" horiz-adv-x="589" 
d="M428 444h-264l-21 990h303zM295 -33q-73 0 -123.5 51t-50.5 127q0 69 51 119.5t123 50.5q71 0 122.5 -50.5t51.5 -119.5q0 -75 -51.5 -126.5t-122.5 -51.5z" />
    <glyph glyph-name="quotedbl" unicode="&#x22;" horiz-adv-x="745" 
d="M301 934h-217l-16 500h256zM657 934h-217l-16 500h254z" />
    <glyph glyph-name="numbersign" unicode="#" horiz-adv-x="1624" 
d="M1550 961l-55 -230h-258l-66 -266h261l-56 -229h-260l-86 -349h-258l86 349h-274l-86 -349h-256l86 349h-254l53 229h256l66 266h-256l55 230h258l88 360h256l-88 -360h274l88 360h258l-88 -360h256zM639 465h274l66 266h-274z" />
    <glyph glyph-name="dollar" unicode="$" horiz-adv-x="1142" 
d="M739 -180h-288v155q-227 26 -400 158l152 242q77 -57 169 -90t181 -33q112 0 169.5 42.5t57.5 111.5q0 30 -13.5 55t-35 41.5t-56 31.5t-67.5 25.5t-78 23.5q-21 6 -32 9q-48 14 -86.5 27.5t-84 35t-81 45.5t-70 59t-56.5 75.5t-36 94t-14 115.5q0 155 103.5 265
t277.5 141v164h288v-166q177 -29 310 -125l-152 -238q-154 99 -313 99q-93 0 -149 -42.5t-56 -103.5q0 -50 44 -88t87.5 -53.5t144.5 -45.5l9 -3q81 -25 140.5 -49.5t116.5 -62t92.5 -82.5t57 -109t21.5 -144q0 -156 -93 -264.5t-260 -146.5v-170z" />
    <glyph glyph-name="percent" unicode="%" horiz-adv-x="1935" 
d="M453 707q-157 0 -268 112.5t-111 272.5q0 159 111 271t268 112q158 0 269.5 -111.5t111.5 -271.5t-111.5 -272.5t-269.5 -112.5zM649 -41h-262l899 1516h262zM453 911q74 0 124 52.5t50 128.5q0 75 -50.5 127.5t-123.5 52.5t-123.5 -52.5t-50.5 -127.5q0 -76 50 -128.5
t124 -52.5zM1481 -41q-157 0 -268 112t-111 273q0 158 111 270.5t268 112.5q158 0 269.5 -112.5t111.5 -270.5q0 -161 -111 -273t-270 -112zM1481 162q74 0 125 53t51 129q0 75 -51 126.5t-125 51.5q-73 0 -123.5 -51.5t-50.5 -126.5q0 -77 50.5 -129.5t123.5 -52.5z" />
    <glyph glyph-name="ampersand" unicode="&#x26;" horiz-adv-x="1357" 
d="M492 -31q-116 0 -214 44.5t-160.5 135t-62.5 209.5q0 69 21.5 130.5t64.5 114.5t85.5 92t105.5 87q-160 187 -160 351q0 134 105 232.5t278 98.5q165 0 261.5 -97t96.5 -228q0 -105 -58.5 -196.5t-180.5 -190.5l231 -265q52 75 62 187l245 -2q-24 -216 -141 -371
l260 -301h-305l-113 125q-173 -156 -421 -156zM532 924q73 57 105.5 102.5t32.5 95.5q0 48 -33.5 83.5t-85.5 35.5q-53 0 -89 -35.5t-36 -83.5q0 -80 106 -198zM526 221q125 0 224 86l-267 301q-139 -107 -139 -221q0 -74 52 -120t130 -46z" />
    <glyph glyph-name="quotesingle" unicode="'" horiz-adv-x="391" 
d="M301 934h-217l-16 500h256z" />
    <glyph glyph-name="parenleft" unicode="(" horiz-adv-x="712" 
d="M655 -272h-282q-136 191 -210.5 422.5t-74.5 472.5q0 239 74.5 477t210.5 442h282q-142 -203 -218.5 -441.5t-76.5 -479.5q0 -242 76.5 -472.5t218.5 -420.5z" />
    <glyph glyph-name="parenright" unicode=")" horiz-adv-x="712" 
d="M346 -272h-289q141 198 218 433.5t77 475.5q0 241 -77 474.5t-218 430.5h289q133 -198 206 -432t73 -473q0 -238 -73.5 -474t-205.5 -435z" />
    <glyph glyph-name="asterisk" unicode="*" horiz-adv-x="796" 
d="M401 1026l-98 -205l-139 78l133 180l-219 -16v162l223 -29l-129 186l137 82l90 -209l95 205l139 -78l-123 -186l209 29v-162l-213 20l121 -180l-138 -80z" />
    <glyph glyph-name="plus" unicode="+" horiz-adv-x="1110" 
d="M676 209h-242v364h-348v228h348v364h242v-364h346v-228h-346v-364z" />
    <glyph glyph-name="comma" unicode="," horiz-adv-x="468" 
d="M246 -340h-250l104 541h306z" />
    <glyph glyph-name="hyphen" unicode="-" horiz-adv-x="825" 
d="M758 428h-690v258h690v-258z" />
    <glyph glyph-name="period" unicode="." horiz-adv-x="466" 
d="M233 -35q-70 0 -121 51.5t-51 126.5q0 68 51.5 119t120.5 51t121 -51t52 -119q0 -75 -51.5 -126.5t-121.5 -51.5z" />
    <glyph glyph-name="slash" unicode="/" horiz-adv-x="915" 
d="M270 -512h-270l645 2048h270z" />
    <glyph glyph-name="zero" unicode="0" horiz-adv-x="1394" 
d="M698 -20q-277 0 -445.5 202t-168.5 535q0 334 168.5 535.5t445.5 201.5q276 0 443.5 -201.5t167.5 -535.5q0 -333 -168 -535t-443 -202zM698 266q146 0 228 120t82 331t-82 330.5t-228 119.5t-228.5 -119.5t-82.5 -330.5q0 -212 81.5 -331.5t229.5 -119.5z" />
    <glyph glyph-name="one" unicode="1" horiz-adv-x="845" 
d="M670 0h-301v1092l-209 -168l-158 200l387 310h281v-1434z" />
    <glyph glyph-name="two" unicode="2" horiz-adv-x="1048" 
d="M969 0h-912v242l410 430q107 112 151 179.5t44 145.5q0 80 -49.5 127t-127.5 47q-133 0 -266 -106l-156 231q221 168 461 168q196 0 321.5 -116t125.5 -324q0 -78 -17 -143.5t-57 -129.5t-80 -112.5t-112 -124.5l-236 -250h500v-264z" />
    <glyph glyph-name="three" unicode="3" horiz-adv-x="1107" 
d="M778 750q118 -41 183 -134.5t65 -222.5q0 -190 -137 -307t-371 -117q-136 0 -259.5 43t-207.5 115l144 231q138 -102 297 -102q101 0 164 46t63 130q0 74 -56 120t-149 46h-113v268h109q82 0 129 40.5t47 111.5q0 74 -51.5 119t-130.5 45q-127 0 -264 -90l-138 221
q197 151 439 151q203 0 324.5 -108t121.5 -277q0 -108 -55.5 -195.5t-153.5 -133.5z" />
    <glyph glyph-name="four" unicode="4" horiz-adv-x="1196" 
d="M979 1434v-912h170v-256h-170v-266h-297v266h-627v256l514 912h410zM692 1130l-344 -608h344v608z" />
    <glyph glyph-name="five" unicode="5" horiz-adv-x="1142" 
d="M549 -31q-278 0 -477 154l145 231q153 -106 324 -106q103 0 169 57.5t66 151.5t-58 146t-147 52q-115 0 -219 -71l-209 90l60 760h762v-269h-525l-22 -301q106 49 225 49q122 0 220 -50.5t158 -155.5t60 -250q0 -221 -145.5 -354.5t-386.5 -133.5z" />
    <glyph glyph-name="six" unicode="6" horiz-adv-x="1136" 
d="M637 911q119 0 219 -54.5t161.5 -161t61.5 -244.5q0 -212 -143.5 -347t-368.5 -135q-224 0 -367 136.5t-143 347.5q0 97 26 193t97 226l314 562h315l-301 -539q59 16 129 16zM565 238q95 0 157 58.5t62 156.5q0 97 -62 156t-155 59q-92 0 -154.5 -60.5t-62.5 -154.5
q0 -97 61 -156t154 -59z" />
    <glyph glyph-name="seven" unicode="7" horiz-adv-x="1040" 
d="M547 0h-301l438 1147h-629v287h932v-287z" />
    <glyph glyph-name="eight" unicode="8" horiz-adv-x="1206" 
d="M604 -31q-228 0 -375 119.5t-147 306.5q0 125 74.5 224t185.5 135q-95 38 -155 124t-60 197q0 170 133 279.5t344 109.5q214 0 346.5 -109.5t132.5 -279.5q0 -111 -60 -198t-155 -123q112 -38 184 -135t72 -224q0 -186 -146 -306t-374 -120zM604 870q80 0 132 46t52 122
q0 75 -53 121.5t-131 46.5q-77 0 -129.5 -46.5t-52.5 -121.5q0 -76 52 -122t130 -46zM604 236q91 0 154 52t63 140q0 89 -61.5 142t-155.5 53q-92 0 -152.5 -53t-60.5 -142q0 -87 62 -139.5t151 -52.5z" />
    <glyph glyph-name="nine" unicode="9" horiz-adv-x="1134" 
d="M569 1464q225 0 367.5 -136t142.5 -347q0 -97 -27 -197t-100 -233l-307 -551h-317l299 528q-53 -12 -113 -12q-124 0 -227 55t-166.5 163t-63.5 249q0 212 143.5 346.5t368.5 134.5zM569 766q92 0 154.5 60.5t62.5 154.5q0 97 -61 156t-154 59q-95 0 -157 -58.5
t-62 -156.5q0 -97 62.5 -156t154.5 -59z" />
    <glyph glyph-name="colon" unicode=":" horiz-adv-x="466" 
d="M236 700q-71 0 -123 52.5t-52 126.5q0 69 52 119.5t123 50.5q69 0 119.5 -50.5t50.5 -119.5q0 -74 -50 -126.5t-120 -52.5zM236 -25q-72 0 -123.5 51.5t-51.5 127.5q0 68 52.5 119t122.5 51q69 0 119.5 -51t50.5 -119q0 -76 -50 -127.5t-120 -51.5z" />
    <glyph glyph-name="semicolon" unicode=";" horiz-adv-x="499" 
d="M266 705q-72 0 -123 51.5t-51 126.5q0 69 51.5 119.5t122.5 50.5q69 0 119.5 -50.5t50.5 -119.5q0 -76 -50 -127t-120 -51zM266 -340h-250l105 541h305z" />
    <glyph glyph-name="less" unicode="&#x3c;" horiz-adv-x="1110" 
d="M981 416v-252l-852 414v225l852 407v-252l-592 -270z" />
    <glyph glyph-name="equal" unicode="=" horiz-adv-x="1110" 
d="M1006 823h-902v230h902v-230zM1006 322h-902v227h902v-227z" />
    <glyph glyph-name="greater" unicode="&#x3e;" horiz-adv-x="1110" 
d="M981 578l-852 -414v252l594 272l-594 270v252l852 -407v-225z" />
    <glyph glyph-name="question" unicode="?" horiz-adv-x="1067" 
d="M631 444h-258v37q0 62 16 115t42 91t57 72t62.5 63.5t57.5 59t42 65.5t16 77q0 76 -51.5 122t-129.5 46q-119 0 -254 -98l-137 217q82 70 190.5 111.5t229.5 41.5q207 0 325.5 -110.5t118.5 -296.5q0 -65 -18 -122t-47 -98.5t-64 -79t-69.5 -71t-63.5 -67t-47 -74.5
t-18 -86v-15zM502 -33q-72 0 -123 51.5t-51 126.5q0 69 51.5 119.5t122.5 50.5t122.5 -50t51.5 -120q0 -75 -51 -126.5t-123 -51.5z" />
    <glyph glyph-name="at" unicode="@" horiz-adv-x="1857" 
d="M934 1382q185 0 345 -68t270 -183t172.5 -269.5t62.5 -324.5q0 -197 -90 -307.5t-248 -110.5q-90 0 -172 46t-109 116q-37 -71 -109 -116.5t-175 -45.5q-157 0 -262 113t-105 284q0 169 101.5 282t250.5 113q138 0 224 -86v70h231v-418q0 -86 35 -124t92 -38
q61 0 93 58.5t32 163.5q0 127 -46.5 242.5t-128 202t-202.5 138t-262 51.5q-174 0 -323.5 -88t-237.5 -239.5t-88 -329.5q0 -135 51 -256.5t139 -210t212 -140.5t263 -52q215 0 371 53v-213q-161 -51 -371 -51q-146 0 -281 44t-242 124t-187 187.5t-123 240t-43 274.5
q0 176 68.5 337t184 277t274.5 185t333 69zM918 324q73 0 122.5 54t49.5 138q0 83 -49.5 138t-122.5 55t-123 -54.5t-50 -138.5q0 -85 50 -138.5t123 -53.5z" />
    <glyph glyph-name="A" unicode="A" horiz-adv-x="1355" 
d="M1331 0h-317l-82 270h-510l-80 -270h-317l469 1434h362zM674 1110l-174 -582h354l-176 582h-4z" />
    <glyph glyph-name="B" unicode="B" horiz-adv-x="1308" 
d="M748 0h-590v1434h536q210 0 333.5 -97.5t123.5 -279.5q0 -212 -172 -309v-5q34 -12 65.5 -29.5t65 -47.5t58 -67t40 -91t15.5 -117q0 -184 -122 -287.5t-353 -103.5zM459 1174v-328h215q86 0 136 41t50 121q0 83 -49.5 124.5t-136.5 41.5h-215zM459 610v-350h256
q99 0 152 44t53 132q0 83 -55.5 128.5t-149.5 45.5h-256z" />
    <glyph glyph-name="C" unicode="C" horiz-adv-x="1488" 
d="M819 -31q-155 0 -292 56.5t-234.5 154.5t-154 237.5t-56.5 299.5t56.5 299.5t154 237.5t234.5 154t292 56q209 0 366 -90t249 -233l-226 -174q-65 99 -164.5 155t-222.5 56q-186 0 -312 -130t-126 -331t126 -331t312 -130q125 0 223.5 55.5t161.5 155.5l228 -174
q-93 -144 -250 -234t-365 -90z" />
    <glyph glyph-name="D" unicode="D" horiz-adv-x="1488" 
d="M680 0h-522v1434h522q333 0 530 -194.5t197 -520.5t-197.5 -522.5t-529.5 -196.5zM459 1155v-876h211q199 0 317.5 115.5t118.5 324.5q0 207 -118 321.5t-318 114.5h-211z" />
    <glyph glyph-name="E" unicode="E" horiz-adv-x="1214" 
d="M1116 0h-958v1434h958v-285h-657v-297h581v-256h-581v-311h657v-285z" />
    <glyph glyph-name="F" unicode="F" horiz-adv-x="1177" 
d="M459 0h-301v1434h958v-283h-657v-340h573v-266h-573v-545z" />
    <glyph glyph-name="G" unicode="G" horiz-adv-x="1568" 
d="M815 -31q-202 0 -369 93.5t-265.5 265.5t-98.5 389q0 160 56 299.5t153 237.5t233.5 154t292.5 56q208 0 362.5 -88.5t247.5 -232.5l-223 -172q-64 101 -164 157t-223 56q-186 0 -312 -133t-126 -334q0 -205 129.5 -334t318.5 -129q228 0 344 162v131h-297v248h586v-471
q-91 -164 -253.5 -259.5t-391.5 -95.5z" />
    <glyph glyph-name="H" unicode="H" horiz-adv-x="1456" 
d="M459 0h-301v1434h301v-582h540v582h301v-1434h-301v563h-540v-563z" />
    <glyph glyph-name="I" unicode="I" horiz-adv-x="614" 
d="M459 0h-301v1434h301v-1434z" />
    <glyph glyph-name="J" unicode="J" horiz-adv-x="1095" 
d="M457 -31q-249 0 -410 148l146 233q107 -90 241 -90q106 0 165.5 67.5t59.5 194.5v912h304v-916q0 -143 -41 -251.5t-113 -172t-160.5 -94.5t-191.5 -31z" />
    <glyph glyph-name="K" unicode="K" horiz-adv-x="1392" 
d="M459 0h-301v1434h301v-574h176l356 574h369l-467 -713l489 -721h-370l-375 573h-178v-573z" />
    <glyph glyph-name="L" unicode="L" horiz-adv-x="1142" 
d="M1100 0h-942v1434h301v-1147h641v-287z" />
    <glyph glyph-name="M" unicode="M" horiz-adv-x="1783" 
d="M449 0h-291v1434h338l397 -842l395 842h338v-1434h-291v928l-329 -699h-230l-327 699v-928z" />
    <glyph glyph-name="N" unicode="N" horiz-adv-x="1495" 
d="M449 0h-291v1434h301l588 -922v922h290v-1434h-303l-585 922v-922z" />
    <glyph glyph-name="O" unicode="O" horiz-adv-x="1640" 
d="M821 -31q-206 0 -376 99.5t-266.5 271t-96.5 377.5t96.5 377.5t266.5 270.5t376 99q154 0 291 -58.5t235 -158t155 -238t57 -292.5t-57 -292.5t-155 -238.5t-235 -158.5t-291 -58.5zM819 256q189 0 313.5 131t124.5 330t-124.5 330t-313.5 131q-188 0 -312 -131
t-124 -330t124 -330t312 -131z" />
    <glyph glyph-name="P" unicode="P" horiz-adv-x="1255" 
d="M459 0h-301v1434h524q102 0 191.5 -33t156.5 -94.5t105.5 -155.5t38.5 -209q0 -156 -67 -269.5t-177 -168.5t-248 -55h-223v-449zM459 1161v-450h192q104 0 165 62t61 163q0 102 -60.5 163.5t-165.5 61.5h-192z" />
    <glyph glyph-name="Q" unicode="Q" horiz-adv-x="1640" 
d="M1559 717q0 -149 -52 -281t-147 -233l145 -176l-198 -160l-150 182q-159 -78 -336 -78q-206 0 -376 99t-266.5 270.5t-96.5 376.5t96.5 376t266.5 270t376 99q205 0 375 -99t266.5 -270t96.5 -376zM819 254q78 0 148 25l-160 194l203 154l161 -195q91 125 91 285
q0 197 -127 330t-316 133q-187 0 -313.5 -133t-126.5 -330t126.5 -330t313.5 -133z" />
    <glyph glyph-name="R" unicode="R" horiz-adv-x="1302" 
d="M940 528l291 -528h-334l-250 481h-188v-481h-301v1434h544q218 0 355 -127t137 -349q0 -157 -67 -266.5t-187 -163.5zM672 1167h-213v-422h213q104 0 164.5 58.5t60.5 152.5t-61 152.5t-164 58.5z" />
    <glyph glyph-name="S" unicode="S" horiz-adv-x="1142" 
d="M561 -31q-295 0 -510 164l152 242q77 -57 169 -90t181 -33q112 0 169.5 42.5t57.5 111.5q0 30 -13.5 55t-35 41.5t-56 31.5t-67.5 25.5t-78 23.5q-21 6 -32 9q-48 14 -86.5 27.5t-84 35t-81 45.5t-70 59t-56.5 75.5t-36 94t-14 115.5q0 185 141 302.5t369 117.5
q273 0 469 -141l-152 -238q-154 99 -313 99q-93 0 -149 -42.5t-56 -103.5q0 -50 44 -88t87.5 -53.5t144.5 -45.5l9 -3q81 -25 140.5 -49.5t116.5 -62t92.5 -82.5t57 -109t21.5 -144q0 -195 -142 -313.5t-389 -118.5z" />
    <glyph glyph-name="T" unicode="T" horiz-adv-x="1212" 
d="M758 0h-301v1147h-414v287h1126v-287h-411v-1147z" />
    <glyph glyph-name="U" unicode="U" horiz-adv-x="1441" 
d="M721 -31q-126 0 -233 41t-186 119t-124 197.5t-45 269.5v838h301v-826q0 -174 79.5 -263t207.5 -89q129 0 208 89t79 263v826h301v-838q0 -150 -44.5 -269.5t-123.5 -197.5t-186 -119t-234 -41z" />
    <glyph glyph-name="V" unicode="V" horiz-adv-x="1314" 
d="M844 0h-373l-455 1434h324l317 -1104l318 1104h323z" />
    <glyph glyph-name="W" unicode="W" horiz-adv-x="1945" 
d="M735 0h-358l-361 1434h318l227 -1035l266 1035h291l266 -1035l228 1035h317l-362 -1434h-357l-237 920z" />
    <glyph glyph-name="X" unicode="X" horiz-adv-x="1310" 
d="M385 0h-354l411 717l-397 717h354l256 -500l256 500h355l-398 -717l412 -717h-354l-271 500z" />
    <glyph glyph-name="Y" unicode="Y" horiz-adv-x="1314" 
d="M809 0h-301v496l-492 938h344l299 -615l297 615h342l-489 -938v-496z" />
    <glyph glyph-name="Z" unicode="Z" horiz-adv-x="1130" 
d="M1059 0h-985v270l598 881h-594v283h954v-271l-598 -880h625v-283z" />
    <glyph glyph-name="bracketleft" unicode="[" horiz-adv-x="651" 
d="M594 -272h-506v1814h506v-231h-238v-1352h238v-231z" />
    <glyph glyph-name="backslash" unicode="\" horiz-adv-x="915" 
d="M915 -512h-268l-647 2048h270z" />
    <glyph glyph-name="bracketright" unicode="]" horiz-adv-x="651" 
d="M563 -272h-506v231h238v1352h-238v231h506v-1814z" />
    <glyph glyph-name="asciicircum" unicode="^" horiz-adv-x="927" 
d="M266 897h-233l340 639h176l346 -639h-233l-199 401z" />
    <glyph glyph-name="underscore" unicode="_" horiz-adv-x="862" 
d="M862 -322h-862v193h862v-193z" />
    <glyph glyph-name="grave" unicode="`" horiz-adv-x="622" 
d="M543 1141h-244l-238 387h312z" />
    <glyph glyph-name="a" unicode="a" horiz-adv-x="1286" 
d="M547 -20q-137 0 -247 70t-171 190.5t-61 267.5t61 267t171 189.5t247 69.5q201 0 323 -139v119h287v-1014h-287v119q-122 -139 -323 -139zM612 233q109 0 183.5 78.5t74.5 196.5q0 117 -74.5 195.5t-183.5 78.5t-183.5 -78.5t-74.5 -195.5q0 -118 74.5 -196.5
t183.5 -78.5z" />
    <glyph glyph-name="b" unicode="b" horiz-adv-x="1286" 
d="M739 -20q-198 0 -323 139v-119h-287v1536h287v-641q125 139 323 139q209 0 345.5 -151t136.5 -375q0 -147 -61.5 -267.5t-172 -190.5t-248.5 -70zM676 233q108 0 183 78.5t75 196.5q0 116 -75 195t-183 79q-109 0 -184.5 -79t-75.5 -195q0 -118 75 -196.5t185 -78.5z" />
    <glyph glyph-name="c" unicode="c" horiz-adv-x="1087" 
d="M606 -25q-154 0 -277.5 70.5t-192 192t-68.5 268.5q0 148 68.5 269.5t192 192t277.5 70.5q143 0 257.5 -59.5t183.5 -163.5l-211 -160q-37 57 -96 89t-128 32q-108 0 -183 -76.5t-75 -191.5q0 -116 75 -193t183 -77q69 0 128 31.5t96 88.5l211 -159q-67 -104 -182.5 -164
t-258.5 -60z" />
    <glyph glyph-name="d" unicode="d" horiz-adv-x="1286" 
d="M547 -20q-137 0 -247 70t-171 190.5t-61 267.5t61 267t171 189.5t247 69.5q201 0 323 -139v641h287v-1536h-287v119q-122 -139 -323 -139zM612 233q109 0 183.5 78.5t74.5 196.5q0 117 -74.5 195.5t-183.5 78.5t-183.5 -78.5t-74.5 -195.5q0 -118 74.5 -196.5
t183.5 -78.5z" />
    <glyph glyph-name="e" unicode="e" horiz-adv-x="1148" 
d="M588 1038q141 0 254 -59t180.5 -177t67.5 -276q0 -64 -15 -120h-719q27 -90 97.5 -141.5t160.5 -51.5q156 0 244 117l168 -162q-71 -93 -177.5 -143t-240.5 -50q-151 0 -273 64t-194.5 186t-72.5 281q0 233 146.5 382.5t373.5 149.5zM588 803q-89 0 -152.5 -54
t-85.5 -149h465q-20 96 -80.5 149.5t-146.5 53.5z" />
    <glyph glyph-name="f" unicode="f" horiz-adv-x="833" 
d="M541 0h-287v764h-188v250h188v137q0 83 20.5 153t62.5 125t111.5 86t161.5 31q116 0 215 -41l-45 -231q-49 22 -108 22q-131 0 -131 -161v-121h260v-250h-260v-764z" />
    <glyph glyph-name="g" unicode="g" horiz-adv-x="1284" 
d="M578 -532q-148 0 -275 48t-203 124l152 208q135 -116 321 -116q57 0 107 15t93.5 46.5t69 88t25.5 132.5v105q-122 -139 -321 -139q-137 0 -247 70t-171 190.5t-61 267.5t61 267t171 189.5t247 69.5q199 0 321 -139v119h287v-989q0 -116 -30 -209.5t-82.5 -157.5
t-126 -107.5t-158 -63t-180.5 -19.5zM610 233q109 0 183.5 78.5t74.5 196.5q0 117 -74.5 195.5t-183.5 78.5q-108 0 -182 -79t-74 -195q0 -118 74 -196.5t182 -78.5z" />
    <glyph glyph-name="h" unicode="h" horiz-adv-x="1267" 
d="M416 0h-287v1536h287v-412l-4 -229q132 139 325 139q89 0 164 -29.5t132 -87t89.5 -151t32.5 -213.5v-553h-287v510q0 133 -59 204.5t-160 71.5q-103 0 -168 -73.5t-65 -204.5v-508z" />
    <glyph glyph-name="i" unicode="i" horiz-adv-x="546" 
d="M274 1171q-72 0 -123 49t-51 121q0 70 51 120t123 50q70 0 121 -50t51 -120q0 -71 -51 -120.5t-121 -49.5zM416 0h-287v1014h287v-1014z" />
    <glyph glyph-name="j" unicode="j" horiz-adv-x="575" 
d="M303 1171q-72 0 -123 49t-51 121q0 70 51 120t123 50q70 0 121 -50t51 -120q0 -71 -51 -120.5t-121 -49.5zM88 -512q-114 0 -207 41l31 231q53 -16 106 -16q61 0 100.5 42.5t39.5 137.5v1090h286v-1139q0 -177 -96.5 -282t-259.5 -105z" />
    <glyph glyph-name="k" unicode="k" horiz-adv-x="1173" 
d="M416 0h-287v1536h287v-891h153l250 369h346l-352 -502l352 -512h-340l-258 373h-151v-373z" />
    <glyph glyph-name="l" unicode="l" horiz-adv-x="671" 
d="M467 -20q-158 0 -248 98.5t-90 267.5v1190h287v-1153q0 -74 35 -110.5t92 -36.5q43 0 75 14l31 -236q-81 -34 -182 -34z" />
    <glyph glyph-name="m" unicode="m" horiz-adv-x="1925" 
d="M416 0h-287v1014h287v-121q52 65 131 103t168 38q197 0 319 -164q141 164 357 164q191 0 306 -130t115 -372v-532h-286v506q0 136 -55.5 208t-145.5 72q-95 0 -155 -75t-60 -205v-506h-279v506q0 137 -55 208.5t-145 71.5q-93 0 -154 -74.5t-61 -205.5v-506z" />
    <glyph glyph-name="n" unicode="n" horiz-adv-x="1267" 
d="M416 0h-287v1014h287v-117q124 137 321 137q184 0 301 -122.5t117 -358.5v-553h-287v510q0 128 -57.5 202t-161.5 74q-109 0 -171 -76t-62 -202v-508z" />
    <glyph glyph-name="o" unicode="o" horiz-adv-x="1234" 
d="M616 -25q-234 0 -391 152.5t-157 378.5q0 110 42 208.5t114.5 169.5t174.5 112.5t217 41.5q154 0 280.5 -70.5t198.5 -192.5t72 -269q0 -148 -72 -270t-198.5 -191.5t-280.5 -69.5zM616 229q116 0 192.5 78t76.5 199t-76.5 199.5t-192.5 78.5t-191 -78.5t-75 -199.5
t75 -199t191 -78z" />
    <glyph glyph-name="p" unicode="p" horiz-adv-x="1286" 
d="M416 -512h-287v1526h287v-119q125 139 323 139q209 0 345.5 -151t136.5 -375q0 -147 -61.5 -267.5t-172 -190.5t-248.5 -70q-198 0 -323 139v-631zM676 233q108 0 183 78.5t75 196.5q0 116 -75 195t-183 79q-109 0 -184.5 -79t-75.5 -195q0 -118 75 -196.5t185 -78.5z
" />
    <glyph glyph-name="q" unicode="q" horiz-adv-x="1286" 
d="M1157 -512h-287v631q-122 -139 -323 -139q-137 0 -247 70t-171 190.5t-61 267.5t61 267t171 189.5t247 69.5q201 0 323 -139v119h287v-1526zM612 233q109 0 183.5 78.5t74.5 196.5q0 117 -74.5 195.5t-183.5 78.5t-183.5 -78.5t-74.5 -195.5q0 -118 74.5 -196.5
t183.5 -78.5z" />
    <glyph glyph-name="r" unicode="r" horiz-adv-x="823" 
d="M416 0h-287v1014h287v-137q111 159 315 159q25 0 41 -2v-286q-27 2 -67 2q-128 0 -208.5 -87t-80.5 -243v-420z" />
    <glyph glyph-name="s" unicode="s" horiz-adv-x="964" 
d="M492 -25q-261 0 -433 127l119 193q65 -41 144.5 -63.5t152.5 -22.5q160 0 160 84q0 21 -11.5 36.5t-40.5 28t-58 21.5t-85 23q-10 3 -16 4q-56 14 -100 30t-89.5 43t-76 60t-49.5 82t-19 108q0 142 116.5 225.5t289.5 83.5q226 0 395 -108l-121 -195q-126 72 -258 72
q-60 0 -95.5 -22.5t-35.5 -55.5q0 -40 44.5 -62t150.5 -51q2 0 3 -0.5t2.5 -1t2.5 -0.5q60 -16 102.5 -31.5t90.5 -42.5t77.5 -59.5t49.5 -82t20 -111.5q0 -141 -116.5 -226.5t-315.5 -85.5z" />
    <glyph glyph-name="t" unicode="t" horiz-adv-x="866" 
d="M602 -20q-170 0 -266 103.5t-96 283.5v401h-174v246h174v295h286v-295h267v-246h-267v-358q0 -174 150 -174q43 0 102 16l29 -236q-79 -36 -205 -36z" />
    <glyph glyph-name="u" unicode="u" horiz-adv-x="1267" 
d="M530 -20q-89 0 -163.5 29.5t-132 87t-89.5 151t-32 213.5v553h286v-516q0 -133 59.5 -202t162.5 -69q98 0 164.5 74.5t66.5 198.5v514h287v-1014h-287v127q-121 -147 -322 -147z" />
    <glyph glyph-name="v" unicode="v" horiz-adv-x="1097" 
d="M715 0h-330l-369 1014h308l227 -731l223 731h309z" />
    <glyph glyph-name="w" unicode="w" horiz-adv-x="1572" 
d="M629 0h-318l-295 1014h299l166 -695l176 695h265l174 -690l166 690h297l-295 -1014h-320l-156 578z" />
    <glyph glyph-name="x" unicode="x" horiz-adv-x="1081" 
d="M354 0h-338l322 514l-322 500h342l185 -322l182 322h340l-320 -500l322 -514h-342l-184 336z" />
    <glyph glyph-name="y" unicode="y" horiz-adv-x="1112" 
d="M551 279l233 735h312l-426 -1166q-68 -189 -165.5 -274.5t-250.5 -85.5q-127 0 -229 57l81 234q59 -27 107 -27q66 0 106.5 35t67.5 121l14 43l-385 1063h303z" />
    <glyph glyph-name="z" unicode="z" horiz-adv-x="1005" 
d="M922 0h-838v236l471 536h-451v242h803v-236l-471 -536h486v-242z" />
    <glyph glyph-name="braceleft" unicode="{" horiz-adv-x="737" 
d="M680 -270h-96q-172 0 -256 92t-84 248v262q0 42 -5 75t-17 63t-36.5 46t-60.5 16h-57v207h57q36 0 60.5 16.5t36.5 46.5t17 63t5 75v262q0 155 84 247.5t256 92.5h96v-235h-53q-131 0 -131 -162v-268q0 -200 -107 -240q107 -43 107 -244v-266q0 -162 131 -162h53v-235z
" />
    <glyph glyph-name="bar" unicode="|" horiz-adv-x="606" 
d="M449 -512h-291v1946h291v-1946z" />
    <glyph glyph-name="braceright" unicode="}" horiz-adv-x="737" 
d="M154 -270h-97v235h52q131 0 131 162v266q0 201 108 244q-108 41 -108 240v268q0 162 -131 162h-52v235h97q172 0 256 -92.5t84 -247.5v-262q0 -43 4.5 -75.5t16.5 -62.5t36.5 -46.5t60.5 -16.5h58v-207h-58q-36 0 -60.5 -16t-36.5 -46.5t-16.5 -62.5t-4.5 -75v-262
q0 -156 -84 -248t-256 -92z" />
    <glyph glyph-name="asciitilde" unicode="~" horiz-adv-x="1177" 
d="M317 401h-272v97q0 82 24.5 144t66 97t90 52.5t102.5 17.5q80 0 168 -33.5t157.5 -66.5t106.5 -33q51 0 75.5 26.5t24.5 83.5v23h273v-100q0 -148 -78 -222.5t-205 -74.5q-76 0 -147 19t-114 42.5t-90.5 42.5t-82.5 19q-44 0 -71.5 -28.5t-27.5 -80.5v-25z" />
    <glyph glyph-name="uni00A0" unicode="&#xa0;" horiz-adv-x="544" 
 />
    <glyph glyph-name="exclamdown" unicode="&#xa1;" horiz-adv-x="471" 
d="M238 686q-72 0 -124.5 51t-52.5 119q0 76 52 127t125 51q70 0 121 -51.5t51 -126.5q0 -69 -51.5 -119.5t-120.5 -50.5zM389 -432h-305l20 991h267z" />
    <glyph glyph-name="cent" unicode="&#xa2;" horiz-adv-x="1087" 
d="M741 -180h-290v178q-172 46 -277.5 185t-105.5 323q0 185 105.5 324.5t277.5 185.5v170h290v-164q96 -22 175 -76t131 -131l-211 -160q-37 57 -96 89t-128 32q-108 0 -183 -76.5t-75 -191.5q0 -116 75 -193t183 -77q69 0 128 31.5t96 88.5l211 -159q-109 -163 -306 -207
v-172z" />
    <glyph glyph-name="sterling" unicode="&#xa3;" horiz-adv-x="980" 
d="M381 254h563v-254h-883v254q87 56 113.5 119.5t26.5 169.5v69h-140v201h140v223q0 88 26 164t76.5 135t132 93t185.5 34q177 0 305 -102l-144 -230q-69 54 -143 54q-73 0 -114.5 -50t-41.5 -128v-193h301v-201h-301v-82q0 -109 -20 -165.5t-82 -110.5z" />
    <glyph glyph-name="currency" unicode="&#xa4;" horiz-adv-x="1013" 
d="M322 397l-119 -118l-135 135l118 118q-49 85 -49 187q0 99 49 184l-118 119l135 135l119 -119q85 49 186 49q102 0 184 -49l119 119l135 -133l-119 -121q50 -83 50 -186q0 -99 -50 -185l119 -118l-135 -135l-119 118q-85 -49 -184 -49q-101 0 -186 49zM510 553
q68 0 115 48.5t47 115.5q0 69 -47.5 118.5t-116.5 49.5q-71 0 -118.5 -49.5t-47.5 -118.5t49.5 -116.5t118.5 -47.5z" />
    <glyph glyph-name="yen" unicode="&#xa5;" horiz-adv-x="1314" 
d="M809 0h-301v170h-309v188h309v103h-309v190h229l-412 783h344l299 -615l297 615h342l-409 -783h229v-190h-309v-103h309v-188h-309v-170z" />
    <glyph glyph-name="brokenbar" unicode="&#xa6;" horiz-adv-x="606" 
d="M449 612h-291v822h291v-822zM449 -512h-291v821h291v-821z" />
    <glyph glyph-name="section" unicode="&#xa7;" horiz-adv-x="1077" 
d="M537 -20q-257 0 -433 126l117 191q142 -90 301 -90q162 0 162 90q0 39 -50 62.5t-165 52.5q-72 19 -125 41t-104.5 57.5t-79 89t-27.5 123.5q0 141 127 203q-125 86 -125 219q0 142 116 225.5t290 83.5q218 0 393 -108l-117 -191q-132 72 -260 72q-65 0 -102 -23t-37 -59
q0 -20 14 -36t45.5 -30t62.5 -24t85 -25q61 -17 103 -32t92 -41.5t80 -57.5t50.5 -77.5t20.5 -104.5q0 -149 -125 -211q121 -77 121 -215q0 -141 -115.5 -226t-314.5 -85zM602 604q109 25 109 103q0 21 -10.5 38t-21.5 27t-38 21t-41 15.5t-49 14.5q-7 2 -24 7.5t-27 7.5
q-52 -12 -79.5 -38.5t-27.5 -60.5q0 -25 11.5 -44t36 -32.5t46.5 -21t60 -18.5q9 -3 55 -19z" />
    <glyph glyph-name="dieresis" unicode="&#xa8;" horiz-adv-x="872" 
d="M223 1171q-66 0 -114 48.5t-48 115.5t48 115.5t114 48.5q67 0 115.5 -48.5t48.5 -115.5t-48.5 -115.5t-115.5 -48.5zM649 1171q-66 0 -114 48.5t-48 115.5t48 115.5t114 48.5q67 0 114.5 -48t47.5 -116t-47.5 -116t-114.5 -48z" />
    <glyph glyph-name="copyright" unicode="&#xa9;" horiz-adv-x="1726" 
d="M862 -43q-156 0 -296.5 60t-242 161.5t-161.5 242t-60 296.5t60 296.5t161.5 242t242 161.5t296.5 60q158 0 299 -59t242.5 -160t161 -242t59.5 -299q0 -155 -60 -296t-162 -242.5t-243 -161.5t-297 -60zM862 127q161 0 297 78.5t214.5 214.5t78.5 297t-78.5 297
t-214.5 214.5t-297 78.5q-160 0 -295.5 -78.5t-214 -214.5t-78.5 -297t78.5 -297t214 -214.5t295.5 -78.5zM874 344q-159 0 -264.5 106t-105.5 267t105.5 267t264.5 106q103 0 181.5 -45t124.5 -117l-121 -94q-31 47 -79.5 73.5t-105.5 26.5q-88 0 -148 -61t-60 -156
q0 -94 59.5 -155.5t148.5 -61.5q120 0 185 98l121 -92q-46 -72 -124.5 -117t-181.5 -45z" />
    <glyph glyph-name="ordfeminine" unicode="&#xaa;" horiz-adv-x="823" 
d="M334 760q-131 0 -217 99t-86 245q0 147 85 244.5t218 97.5q112 0 188 -76v64h234v-660h-234v62q-79 -76 -188 -76zM393 967q54 0 91.5 39.5t37.5 97.5t-37.5 97.5t-91.5 39.5t-90.5 -38.5t-36.5 -98.5q0 -58 36.5 -97.5t90.5 -39.5z" />
    <glyph glyph-name="guillemotleft" unicode="&#xab;" horiz-adv-x="1206" 
d="M631 225l-166 -176l-453 453l451 452l178 -168l-291 -284zM1149 225l-166 -176l-453 453l451 452l178 -168l-291 -284z" />
    <glyph glyph-name="logicalnot" unicode="&#xac;" horiz-adv-x="1017" 
d="M911 293h-249v260h-558v248h807v-508z" />
    <glyph glyph-name="uni00AD" unicode="&#xad;" horiz-adv-x="825" 
d="M758 428h-690v258h690v-258z" />
    <glyph glyph-name="registered" unicode="&#xae;" horiz-adv-x="1726" 
d="M862 1477q158 0 299 -59t242.5 -160t161 -242t59.5 -299q0 -155 -60 -296t-162 -242.5t-243 -161.5t-297 -60t-296.5 60t-242 161.5t-161.5 242t-60 296.5t60 296.5t161.5 242t242 161.5t296.5 60zM862 127q161 0 297 78.5t214.5 214.5t78.5 297t-78.5 297t-214.5 214.5
t-297 78.5q-160 0 -295.5 -78.5t-214 -214.5t-78.5 -297t78.5 -297t214 -214.5t295.5 -78.5zM1145 858q0 -147 -123 -207l143 -272h-174l-119 246h-96v-246h-158v717h271q116 0 186 -63t70 -175zM881 958h-105v-204h105q52 0 81 28t29 74t-29.5 74t-80.5 28z" />
    <glyph glyph-name="macron" unicode="&#xaf;" horiz-adv-x="753" 
d="M692 1212h-631v242h631v-242z" />
    <glyph glyph-name="degree" unicode="&#xb0;" horiz-adv-x="751" 
d="M377 852q-131 0 -220 89.5t-89 221.5q0 127 89.5 216t219.5 89q131 0 219 -88t88 -217q0 -132 -89 -221.5t-218 -89.5zM377 1036q53 0 89 35.5t36 89.5q0 53 -36 89t-89 36t-90 -36.5t-37 -88.5q0 -53 37 -89t90 -36z" />
    <glyph glyph-name="plusminus" unicode="&#xb1;" horiz-adv-x="1110" 
d="M676 408h-242v333h-348v230h348v334h242v-334h346v-230h-346v-333zM1022 49h-936v205h936v-205z" />
    <glyph glyph-name="uni00B2" unicode="&#xb2;" horiz-adv-x="520" 
d="M487 922h-469v151l205 203q45 45 60.5 68.5t15.5 52.5q0 36 -18 56t-48 20q-54 0 -116 -48l-97 138q116 90 240 90q94 0 161.5 -61t67.5 -169q0 -73 -30 -124.5t-97 -122.5l-79 -86h204v-168z" />
    <glyph glyph-name="uni00B3" unicode="&#xb3;" horiz-adv-x="540" 
d="M385 1298q123 -43 123 -176q0 -95 -69 -155t-185 -60q-68 0 -131.5 21t-104.5 59l91 148q64 -41 131 -41q34 0 55.5 15.5t21.5 45.5q0 53 -69 53h-55v158h47q26 0 44.5 13.5t18.5 35.5q0 24 -18 38.5t-45 14.5q-47 0 -107 -32l-88 143q97 74 219 74q104 0 164.5 -54
t60.5 -139q0 -55 -28 -97.5t-76 -64.5z" />
    <glyph glyph-name="acute" unicode="&#xb4;" horiz-adv-x="610" 
d="M305 1141h-244l154 387h315z" />
    <glyph glyph-name="uni00B5" unicode="&#xb5;" horiz-adv-x="1331" 
d="M1266 246l30 -242q-74 -24 -145 -24q-91 0 -161 42t-101 115q-104 -157 -311 -157q-122 0 -193 63v-555h-272v1526h286v-516q0 -135 59.5 -202t164.5 -67q98 0 163.5 73.5t65.5 197.5v514h287v-666q0 -53 22 -80.5t60 -27.5q21 0 45 6z" />
    <glyph glyph-name="paragraph" unicode="&#xb6;" horiz-adv-x="1306" 
d="M743 -205h-239v746q-194 0 -320.5 126.5t-126.5 321.5q0 138 64 240t171 153.5t240 51.5h617v-1639h-238v1411h-168v-1411z" />
    <glyph glyph-name="periodcentered" unicode="&#xb7;" horiz-adv-x="466" 
d="M233 350q-70 0 -121 52t-51 126q0 69 51.5 119.5t120.5 50.5t121 -50.5t52 -119.5q0 -74 -51.5 -126t-121.5 -52z" />
    <glyph glyph-name="cedilla" unicode="&#xb8;" horiz-adv-x="634" 
d="M365 -78q92 0 150 -49t58 -139q0 -105 -77 -166.5t-197 -61.5q-140 0 -238 72l70 117q72 -43 143 -43q54 0 80.5 21t26.5 55q0 35 -27 50t-86 15h-106l53 223h162l-25 -94h13z" />
    <glyph glyph-name="uni00B9" unicode="&#xb9;" horiz-adv-x="454" 
d="M381 922h-193v508l-100 -80l-94 120l207 168h180v-716z" />
    <glyph glyph-name="ordmasculine" unicode="&#xba;" horiz-adv-x="796" 
d="M397 756q-157 0 -259.5 98.5t-102.5 247.5q0 144 103.5 244t258.5 100q157 0 262 -100t105 -244q0 -148 -104.5 -247t-262.5 -99zM397 969q56 0 92.5 37.5t36.5 95.5q0 57 -36.5 94t-92.5 37q-53 0 -89 -37t-36 -94q0 -58 36 -95.5t89 -37.5z" />
    <glyph glyph-name="guillemotright" unicode="&#xbb;" horiz-adv-x="1206" 
d="M676 502l-453 -453l-166 176l281 277l-291 284l178 168zM1194 502l-453 -453l-166 176l281 277l-291 284l178 168z" />
    <glyph glyph-name="onequarter" unicode="&#xbc;" horiz-adv-x="1429" 
d="M381 717h-193v508l-100 -80l-94 121l207 168h180v-717zM379 0h-203l760 1434h205zM1327 0h-176v121h-309v153l241 443h244v-443h80v-153h-80v-121zM1155 524l-137 -250h137v250z" />
    <glyph glyph-name="onehalf" unicode="&#xbd;" horiz-adv-x="1382" 
d="M381 717h-193v508l-100 -80l-94 121l207 168h180v-717zM379 0h-203l760 1434h205zM1350 0h-469v152l204 202q45 45 60.5 68.5t15.5 52.5q0 36 -17.5 56t-47.5 20q-57 0 -117 -47l-96 137q116 90 239 90q94 0 162 -60.5t68 -168.5q0 -73 -30 -125.5t-97 -122.5l-80 -86
h205v-168z" />
    <glyph glyph-name="threequarters" unicode="&#xbe;" horiz-adv-x="1505" 
d="M240 889q34 0 55.5 15.5t21.5 45.5q0 25 -18 39.5t-51 14.5h-55v157h47q26 0 44.5 13.5t18.5 35.5q0 24 -18 39t-45 15q-45 0 -107 -33l-88 143q97 74 219 74q104 0 164.5 -54t60.5 -139q0 -55 -28 -97t-76 -64q123 -43 123 -176q0 -95 -69.5 -155.5t-184.5 -60.5
q-68 0 -131.5 21t-104.5 59l91 148q64 -41 131 -41zM252 0l760 1434h205l-762 -1434h-203zM1403 717v-443h80v-153h-80v-121h-176v121h-309v153l241 443h244zM1094 274h137v250z" />
    <glyph glyph-name="questiondown" unicode="&#xbf;" horiz-adv-x="952" 
d="M573 696q-72 0 -123 50.5t-51 119.5q0 76 50.5 127t123.5 51q72 0 123.5 -51.5t51.5 -126.5q0 -68 -52.5 -119t-122.5 -51zM559 -451q-210 0 -330 110.5t-120 295.5q0 69 18.5 128t47.5 102t64 81t70.5 71t64.5 65.5t47.5 72t18.5 82.5v12h265v-30q0 -66 -16.5 -121.5
t-42.5 -94t-57 -72t-62.5 -62t-57.5 -57.5t-42.5 -65.5t-16.5 -78.5q0 -76 49.5 -120t130.5 -44q122 0 250 102l141 -223q-84 -69 -192.5 -111.5t-229.5 -42.5z" />
    <glyph glyph-name="Agrave" unicode="&#xc0;" horiz-adv-x="1355" 
d="M621 1948l170 -387h-244l-238 387h312zM1331 0h-317l-82 270h-510l-80 -270h-317l469 1434h362zM674 1110l-174 -582h354l-176 582h-4z" />
    <glyph glyph-name="Aacute" unicode="&#xc1;" horiz-adv-x="1355" 
d="M709 1948h315l-225 -387h-244zM1331 0h-317l-82 270h-510l-80 -270h-317l469 1434h362zM674 1110l-174 -582h354l-176 582h-4z" />
    <glyph glyph-name="Acircumflex" unicode="&#xc2;" horiz-adv-x="1355" 
d="M807 1561l-133 202l-133 -202h-269l281 387h242l280 -387h-268zM1331 0h-317l-82 270h-510l-80 -270h-317l469 1434h362zM674 1110l-174 -582h354l-176 582h-4z" />
    <glyph glyph-name="Atilde" unicode="&#xc3;" horiz-adv-x="1355" 
d="M602 1679q-61 0 -61 -90h-213v86q0 128 54.5 191t131.5 63q45 0 89 -25t81 -50t64 -25q59 0 59 94h213v-88q0 -135 -55 -194.5t-136 -59.5q-38 0 -74.5 15.5t-59 33.5t-48 33.5t-45.5 15.5zM1331 0h-317l-82 270h-510l-80 -270h-317l469 1434h362zM674 1110l-174 -582
h354l-176 582h-4z" />
    <glyph glyph-name="Adieresis" unicode="&#xc4;" horiz-adv-x="1355" 
d="M461 1591q-66 0 -114 48.5t-48 115.5t48 115.5t114 48.5q67 0 115.5 -48.5t48.5 -115.5t-48.5 -115.5t-115.5 -48.5zM887 1591q-66 0 -114 48.5t-48 115.5t48 115.5t114 48.5q67 0 114.5 -48t47.5 -116t-47.5 -116t-114.5 -48zM1331 0h-317l-82 270h-510l-80 -270h-317
l469 1434h362zM674 1110l-174 -582h354l-176 582h-4z" />
    <glyph glyph-name="Aring" unicode="&#xc5;" horiz-adv-x="1355" 
d="M676 1546q-106 0 -178 67t-72 171q0 100 72.5 166.5t177.5 66.5q103 0 175.5 -66.5t72.5 -166.5q0 -104 -72.5 -171t-175.5 -67zM676 1868q-35 0 -60.5 -26.5t-25.5 -61.5t25.5 -59.5t60.5 -24.5q34 0 59 24.5t25 59.5t-25 61.5t-59 26.5zM1331 0h-317l-82 270h-510
l-80 -270h-317l469 1434h362zM674 1110l-174 -582h354l-176 582h-4z" />
    <glyph glyph-name="AE" unicode="&#xc6;" horiz-adv-x="2019" 
d="M1921 1434v-285h-627v-311h557v-238h-557v-313h627v-287h-928v283h-495l-131 -283h-342l680 1434h1216zM616 541h377v608h-94z" />
    <glyph glyph-name="Ccedilla" unicode="&#xc7;" horiz-adv-x="1488" 
d="M821 256q125 0 223.5 55.5t161.5 155.5l228 -174q-83 -131 -221.5 -218.5t-321.5 -103.5l-12 -49h12q92 0 150.5 -49t58.5 -139q0 -105 -77.5 -166.5t-197.5 -61.5q-139 0 -237 72l69 117q72 -43 144 -43q54 0 80 21t26 55q0 35 -26.5 50t-85.5 15h-107l43 180
q-186 20 -333.5 120t-231.5 263t-84 361q0 160 56.5 299.5t154 237.5t234.5 154t292 56q209 0 366 -90t249 -233l-226 -174q-65 99 -164.5 155t-222.5 56q-186 0 -312 -130t-126 -331t126 -331t312 -130z" />
    <glyph glyph-name="Egrave" unicode="&#xc8;" horiz-adv-x="1214" 
d="M754 1561h-244l-238 387h312zM1116 0h-958v1434h958v-285h-657v-297h581v-256h-581v-311h657v-285z" />
    <glyph glyph-name="Eacute" unicode="&#xc9;" horiz-adv-x="1214" 
d="M762 1561h-244l154 387h315zM1116 0h-958v1434h958v-285h-657v-297h581v-256h-581v-311h657v-285z" />
    <glyph glyph-name="Ecircumflex" unicode="&#xca;" horiz-adv-x="1214" 
d="M504 1561h-268l280 387h242l280 -387h-268l-133 202zM1116 0h-958v1434h958v-285h-657v-297h581v-256h-581v-311h657v-285z" />
    <glyph glyph-name="Edieresis" unicode="&#xcb;" horiz-adv-x="1214" 
d="M424 1591q-66 0 -114 48.5t-48 115.5t48 115.5t114 48.5q68 0 116 -48.5t48 -115.5t-48 -115.5t-116 -48.5zM850 1591q-66 0 -114 48.5t-48 115.5t48 115.5t114 48.5q67 0 114.5 -48t47.5 -116t-47.5 -116t-114.5 -48zM1116 0h-958v1434h958v-285h-657v-297h581v-256
h-581v-311h657v-285z" />
    <glyph glyph-name="Igrave" unicode="&#xcc;" horiz-adv-x="614" 
d="M424 1561h-244l-237 387h311zM459 0h-301v1434h301v-1434z" />
    <glyph glyph-name="Iacute" unicode="&#xcd;" horiz-adv-x="614" 
d="M432 1561h-244l154 387h315zM459 0h-301v1434h301v-1434z" />
    <glyph glyph-name="Icircumflex" unicode="&#xce;" horiz-adv-x="614" 
d="M174 1561h-268l280 387h242l281 -387h-269l-133 202zM459 0h-301v1434h301v-1434z" />
    <glyph glyph-name="Idieresis" unicode="&#xcf;" horiz-adv-x="614" 
d="M123 1595q-63 0 -107.5 45t-44.5 115t44.5 115t107.5 45q64 0 108.5 -44.5t44.5 -115.5t-44.5 -115.5t-108.5 -44.5zM487 1595q-63 0 -107 45t-44 115t44 115t107 45q65 0 109.5 -44.5t44.5 -115.5t-44.5 -115.5t-109.5 -44.5zM459 0h-301v1434h301v-1434z" />
    <glyph glyph-name="Eth" unicode="&#xd0;" horiz-adv-x="1568" 
d="M238 1434h524q331 0 528 -194.5t197 -520.5t-197 -522.5t-528 -196.5h-524v608h-183v215h183v611zM539 279h211q199 0 317.5 115.5t118.5 324.5q0 207 -118 321.5t-318 114.5h-211v-332h276v-215h-276v-329z" />
    <glyph glyph-name="Ntilde" unicode="&#xd1;" horiz-adv-x="1576" 
d="M926 1581q-49 0 -93.5 24.5t-78.5 49t-58 24.5q-59 0 -59 -90h-213v86q0 128 54 191t130 63q45 0 89.5 -25t82 -50t64.5 -25q57 0 57 94h213v-88q0 -70 -16 -121.5t-44 -79t-59.5 -40.5t-68.5 -13zM465 0h-291v1434h303l586 -922v922h293v-1434h-303l-588 922v-922z" />
    <glyph glyph-name="Ograve" unicode="&#xd2;" horiz-adv-x="1640" 
d="M938 1561h-244l-237 387h311zM821 -31q-206 0 -376 99.5t-266.5 271t-96.5 377.5t96.5 377.5t266.5 270.5t376 99q154 0 291 -58.5t235 -158t155 -238t57 -292.5t-57 -292.5t-155 -238.5t-235 -158.5t-291 -58.5zM819 256q189 0 313.5 131t124.5 330t-124.5 330
t-313.5 131q-188 0 -312 -131t-124 -330t124 -330t312 -131z" />
    <glyph glyph-name="Oacute" unicode="&#xd3;" horiz-adv-x="1640" 
d="M946 1561h-244l154 387h315zM821 -31q-206 0 -376 99.5t-266.5 271t-96.5 377.5t96.5 377.5t266.5 270.5t376 99q154 0 291 -58.5t235 -158t155 -238t57 -292.5t-57 -292.5t-155 -238.5t-235 -158.5t-291 -58.5zM819 256q189 0 313.5 131t124.5 330t-124.5 330
t-313.5 131q-188 0 -312 -131t-124 -330t124 -330t312 -131z" />
    <glyph glyph-name="Ocircumflex" unicode="&#xd4;" horiz-adv-x="1640" 
d="M688 1561h-268l280 387h242l281 -387h-269l-133 202zM821 -31q-206 0 -376 99.5t-266.5 271t-96.5 377.5t96.5 377.5t266.5 270.5t376 99q154 0 291 -58.5t235 -158t155 -238t57 -292.5t-57 -292.5t-155 -238.5t-235 -158.5t-291 -58.5zM819 256q189 0 313.5 131
t124.5 330t-124.5 330t-313.5 131q-188 0 -312 -131t-124 -330t124 -330t312 -131z" />
    <glyph glyph-name="Otilde" unicode="&#xd5;" horiz-adv-x="1640" 
d="M977 1581q-38 0 -74.5 15.5t-59 33.5t-48 33.5t-45.5 15.5q-62 0 -62 -90h-213v86q0 128 54.5 191t132.5 63q36 0 71.5 -15.5t59.5 -34.5t52 -34.5t50 -15.5q59 0 59 94h213v-88q0 -135 -54.5 -194.5t-135.5 -59.5zM821 -31q-206 0 -376 99.5t-266.5 271t-96.5 377.5
t96.5 377.5t266.5 270.5t376 99q154 0 291 -58.5t235 -158t155 -238t57 -292.5t-57 -292.5t-155 -238.5t-235 -158.5t-291 -58.5zM819 256q189 0 313.5 131t124.5 330t-124.5 330t-313.5 131q-188 0 -312 -131t-124 -330t124 -330t312 -131z" />
    <glyph glyph-name="Odieresis" unicode="&#xd6;" horiz-adv-x="1640" 
d="M608 1591q-66 0 -114 48.5t-48 115.5t48 115.5t114 48.5q68 0 116 -48.5t48 -115.5t-48 -115.5t-116 -48.5zM1034 1591q-66 0 -114 48.5t-48 115.5t48 115.5t114 48.5q67 0 114.5 -48t47.5 -116t-47.5 -116t-114.5 -48zM821 -31q-206 0 -376 99.5t-266.5 271t-96.5 377.5
t96.5 377.5t266.5 270.5t376 99q154 0 291 -58.5t235 -158t155 -238t57 -292.5t-57 -292.5t-155 -238.5t-235 -158.5t-291 -58.5zM819 256q189 0 313.5 131t124.5 330t-124.5 330t-313.5 131q-188 0 -312 -131t-124 -330t124 -330t312 -131z" />
    <glyph glyph-name="multiply" unicode="&#xd7;" horiz-adv-x="1110" 
d="M557 537l-321 -320l-150 152l317 319l-317 316l150 153l321 -317l315 317l152 -153l-317 -316l317 -319l-152 -152z" />
    <glyph glyph-name="Oslash" unicode="&#xd8;" horiz-adv-x="1640" 
d="M1450 1542l-152 -250q122 -103 191.5 -253t69.5 -322q0 -154 -57 -292.5t-155 -238.5t-235 -158.5t-291 -58.5q-157 0 -295 60l-84 -138h-254l154 250q-123 104 -191.5 253.5t-68.5 322.5q0 206 96.5 377.5t266.5 270.5t376 99q155 0 291 -57l84 135h254zM383 717
q0 -189 115 -320l463 758q-74 23 -142 23q-188 0 -312 -131t-124 -330zM819 256q189 0 313.5 131t124.5 330q0 192 -114 319l-465 -757q74 -23 141 -23z" />
    <glyph glyph-name="Ugrave" unicode="&#xd9;" horiz-adv-x="1441" 
d="M838 1561h-244l-238 387h312zM721 -31q-126 0 -233 41t-186 119t-124 197.5t-45 269.5v838h301v-826q0 -174 79.5 -263t207.5 -89q129 0 208 89t79 263v826h301v-838q0 -150 -44.5 -269.5t-123.5 -197.5t-186 -119t-234 -41z" />
    <glyph glyph-name="Uacute" unicode="&#xda;" horiz-adv-x="1441" 
d="M846 1561h-244l154 387h315zM721 -31q-126 0 -233 41t-186 119t-124 197.5t-45 269.5v838h301v-826q0 -174 79.5 -263t207.5 -89q129 0 208 89t79 263v826h301v-838q0 -150 -44.5 -269.5t-123.5 -197.5t-186 -119t-234 -41z" />
    <glyph glyph-name="Ucircumflex" unicode="&#xdb;" horiz-adv-x="1441" 
d="M588 1561h-269l281 387h242l280 -387h-268l-133 202zM721 -31q-126 0 -233 41t-186 119t-124 197.5t-45 269.5v838h301v-826q0 -174 79.5 -263t207.5 -89q129 0 208 89t79 263v826h301v-838q0 -150 -44.5 -269.5t-123.5 -197.5t-186 -119t-234 -41z" />
    <glyph glyph-name="Udieresis" unicode="&#xdc;" horiz-adv-x="1441" 
d="M508 1591q-66 0 -114 48.5t-48 115.5t48 115.5t114 48.5q68 0 116 -48.5t48 -115.5t-48 -115.5t-116 -48.5zM934 1591q-66 0 -114 48.5t-48 115.5t48 115.5t114 48.5q67 0 114.5 -48t47.5 -116t-47.5 -116t-114.5 -48zM721 -31q-126 0 -233 41t-186 119t-124 197.5
t-45 269.5v838h301v-826q0 -174 79.5 -263t207.5 -89q129 0 208 89t79 263v826h301v-838q0 -150 -44.5 -269.5t-123.5 -197.5t-186 -119t-234 -41z" />
    <glyph glyph-name="Yacute" unicode="&#xdd;" horiz-adv-x="1314" 
d="M784 1561h-243l153 387h316zM809 0h-301v496l-492 938h344l299 -615l297 615h342l-489 -938v-496z" />
    <glyph glyph-name="Thorn" unicode="&#xde;" horiz-adv-x="1255" 
d="M459 1206h223q138 0 248 -56t177 -170.5t67 -270.5q0 -118 -38.5 -213.5t-105.5 -157t-156 -94.5t-192 -33h-223v-211h-301v1434h301v-228zM459 481h192q105 0 167.5 63t62.5 165t-62.5 163.5t-167.5 61.5h-192v-453z" />
    <glyph glyph-name="germandbls" unicode="&#xdf;" horiz-adv-x="1355" 
d="M954 -31q-93 0 -187.5 31t-170.5 90l115 189q118 -76 219 -76q58 0 95.5 32t37.5 80q0 39 -19.5 71t-51 56t-69.5 47.5t-76 54t-69.5 67.5t-51 95t-19.5 130q0 53 16.5 104.5t36.5 86t36.5 76.5t16.5 77q0 62 -36.5 98.5t-84.5 36.5q-61 0 -100 -40.5t-39 -111.5v-1163
h-287v764h-200v250h200v143q0 177 114 288t306 111q183 0 292 -99t109 -249q0 -52 -12 -97t-29 -76t-34 -59.5t-29 -60t-12 -63.5q0 -40 20.5 -73.5t53 -59t72 -51t79 -57t72 -70.5t53 -98t20.5 -132q0 -84 -32.5 -150.5t-87.5 -107.5t-123 -62.5t-144 -21.5z" />
    <glyph glyph-name="agrave" unicode="&#xe0;" horiz-adv-x="1286" 
d="M735 1141h-243l-238 387h311zM547 -20q-137 0 -247 70t-171 190.5t-61 267.5t61 267t171 189.5t247 69.5q201 0 323 -139v119h287v-1014h-287v119q-122 -139 -323 -139zM612 233q109 0 183.5 78.5t74.5 196.5q0 117 -74.5 195.5t-183.5 78.5t-183.5 -78.5t-74.5 -195.5
q0 -118 74.5 -196.5t183.5 -78.5z" />
    <glyph glyph-name="aacute" unicode="&#xe1;" horiz-adv-x="1286" 
d="M743 1141h-243l153 387h316zM547 -20q-137 0 -247 70t-171 190.5t-61 267.5t61 267t171 189.5t247 69.5q201 0 323 -139v119h287v-1014h-287v119q-122 -139 -323 -139zM612 233q109 0 183.5 78.5t74.5 196.5q0 117 -74.5 195.5t-183.5 78.5t-183.5 -78.5t-74.5 -195.5
q0 -118 74.5 -196.5t183.5 -78.5z" />
    <glyph glyph-name="acircumflex" unicode="&#xe2;" horiz-adv-x="1286" 
d="M483 1141h-268l281 387h241l281 -387h-268l-134 202zM547 -20q-137 0 -247 70t-171 190.5t-61 267.5t61 267t171 189.5t247 69.5q201 0 323 -139v119h287v-1014h-287v119q-122 -139 -323 -139zM612 233q109 0 183.5 78.5t74.5 196.5q0 117 -74.5 195.5t-183.5 78.5
t-183.5 -78.5t-74.5 -195.5q0 -118 74.5 -196.5t183.5 -78.5z" />
    <glyph glyph-name="atilde" unicode="&#xe3;" horiz-adv-x="1286" 
d="M772 1161q-38 0 -74.5 15.5t-59 34t-48 34t-45.5 15.5q-62 0 -62 -91h-213v86q0 128 54.5 191t132.5 63q36 0 71.5 -15.5t59.5 -34.5t52 -34.5t50 -15.5q60 0 60 94h213v-88q0 -135 -55 -194.5t-136 -59.5zM547 -20q-137 0 -247 70t-171 190.5t-61 267.5t61 267
t171 189.5t247 69.5q201 0 323 -139v119h287v-1014h-287v119q-122 -139 -323 -139zM612 233q109 0 183.5 78.5t74.5 196.5q0 117 -74.5 195.5t-183.5 78.5t-183.5 -78.5t-74.5 -195.5q0 -118 74.5 -196.5t183.5 -78.5z" />
    <glyph glyph-name="adieresis" unicode="&#xe4;" horiz-adv-x="1286" 
d="M403 1171q-66 0 -113.5 48.5t-47.5 115.5t47.5 115.5t113.5 48.5q67 0 115.5 -48.5t48.5 -115.5t-48.5 -115.5t-115.5 -48.5zM829 1171q-66 0 -113.5 48.5t-47.5 115.5t47.5 115.5t113.5 48.5q67 0 114.5 -48t47.5 -116t-47.5 -116t-114.5 -48zM547 -20q-137 0 -247 70
t-171 190.5t-61 267.5t61 267t171 189.5t247 69.5q201 0 323 -139v119h287v-1014h-287v119q-122 -139 -323 -139zM612 233q109 0 183.5 78.5t74.5 196.5q0 117 -74.5 195.5t-183.5 78.5t-183.5 -78.5t-74.5 -195.5q0 -118 74.5 -196.5t183.5 -78.5z" />
    <glyph glyph-name="aring" unicode="&#xe5;" horiz-adv-x="1286" 
d="M618 1126q-106 0 -177.5 67t-71.5 171q0 100 72 166.5t177 66.5q103 0 175.5 -66.5t72.5 -166.5q0 -104 -72.5 -171t-175.5 -67zM618 1276q34 0 59 24.5t25 59.5t-25 61.5t-59 26.5q-35 0 -60.5 -26.5t-25.5 -61.5t25.5 -59.5t60.5 -24.5zM547 -20q-137 0 -247 70
t-171 190.5t-61 267.5t61 267t171 189.5t247 69.5q201 0 323 -139v119h287v-1014h-287v119q-122 -139 -323 -139zM612 233q109 0 183.5 78.5t74.5 196.5q0 117 -74.5 195.5t-183.5 78.5t-183.5 -78.5t-74.5 -195.5q0 -118 74.5 -196.5t183.5 -78.5z" />
    <glyph glyph-name="ae" unicode="&#xe6;" horiz-adv-x="1808" 
d="M1278 1038q99 0 184 -32t150 -93.5t102 -161t37 -225.5q0 -59 -10 -114h-701q23 -104 92.5 -154.5t161.5 -50.5q71 0 131.5 28.5t98.5 75.5l166 -159q-70 -89 -171.5 -136t-220.5 -47q-129 0 -237 52t-176 151q-59 -102 -164 -152.5t-236 -50.5q-115 0 -205 35
t-145 108.5t-55 176.5q0 86 36.5 148t100 95.5t137 48.5t160.5 15h234q-4 97 -60.5 143.5t-144.5 46.5q-129 0 -285 -86l-125 201q214 137 445 137q229 0 340 -161q66 76 158.5 118.5t201.5 42.5zM1270 805q-83 0 -147 -56t-85 -153h449q-18 102 -75.5 155.5t-141.5 53.5z
M512 195q108 0 172 57t64 156v10h-226q-71 0 -116.5 -24.5t-45.5 -80.5t44.5 -87t107.5 -31z" />
    <glyph glyph-name="ccedilla" unicode="&#xe7;" horiz-adv-x="1087" 
d="M612 238q69 0 128 31.5t96 88.5l211 -159q-59 -92 -155 -149t-216 -70l-14 -58h12q92 0 150.5 -49t58.5 -139q0 -105 -77.5 -166.5t-197.5 -61.5q-139 0 -237 72l69 117q72 -43 144 -43q54 0 80 21t26 55q0 35 -26.5 50t-85.5 15h-107l45 189q-199 31 -323.5 177
t-124.5 347q0 148 68.5 269.5t192 192t277.5 70.5q143 0 257.5 -59.5t183.5 -163.5l-211 -160q-37 57 -96 89t-128 32q-108 0 -183 -76.5t-75 -191.5q0 -116 75 -193t183 -77z" />
    <glyph glyph-name="egrave" unicode="&#xe8;" horiz-adv-x="1148" 
d="M539 1528l170 -387h-244l-238 387h312zM588 1038q141 0 254 -59t180.5 -177t67.5 -276q0 -64 -15 -120h-719q27 -90 97.5 -141.5t160.5 -51.5q156 0 244 117l168 -162q-71 -93 -177.5 -143t-240.5 -50q-151 0 -273 64t-194.5 186t-72.5 281q0 233 146.5 382.5
t373.5 149.5zM588 803q-89 0 -152.5 -54t-85.5 -149h465q-20 96 -80.5 149.5t-146.5 53.5z" />
    <glyph glyph-name="eacute" unicode="&#xe9;" horiz-adv-x="1148" 
d="M627 1528h315l-225 -387h-244zM588 1038q141 0 254 -59t180.5 -177t67.5 -276q0 -64 -15 -120h-719q27 -90 97.5 -141.5t160.5 -51.5q156 0 244 117l168 -162q-71 -93 -177.5 -143t-240.5 -50q-151 0 -273 64t-194.5 186t-72.5 281q0 233 146.5 382.5t373.5 149.5z
M588 803q-89 0 -152.5 -54t-85.5 -149h465q-20 96 -80.5 149.5t-146.5 53.5z" />
    <glyph glyph-name="ecircumflex" unicode="&#xea;" horiz-adv-x="1148" 
d="M723 1141l-133 202l-133 -202h-269l281 387h242l280 -387h-268zM588 1038q141 0 254 -59t180.5 -177t67.5 -276q0 -64 -15 -120h-719q27 -90 97.5 -141.5t160.5 -51.5q156 0 244 117l168 -162q-71 -93 -177.5 -143t-240.5 -50q-151 0 -273 64t-194.5 186t-72.5 281
q0 233 146.5 382.5t373.5 149.5zM588 803q-89 0 -152.5 -54t-85.5 -149h465q-20 96 -80.5 149.5t-146.5 53.5z" />
    <glyph glyph-name="edieresis" unicode="&#xeb;" horiz-adv-x="1148" 
d="M377 1171q-66 0 -114 48.5t-48 115.5t48 115.5t114 48.5q67 0 115.5 -48.5t48.5 -115.5t-48.5 -115.5t-115.5 -48.5zM803 1171q-66 0 -114 48.5t-48 115.5t48 115.5t114 48.5q67 0 114.5 -48t47.5 -116t-47.5 -116t-114.5 -48zM588 1038q141 0 254 -59t180.5 -177
t67.5 -276q0 -64 -15 -120h-719q27 -90 97.5 -141.5t160.5 -51.5q156 0 244 117l168 -162q-71 -93 -177.5 -143t-240.5 -50q-151 0 -273 64t-194.5 186t-72.5 281q0 233 146.5 382.5t373.5 149.5zM588 803q-89 0 -152.5 -54t-85.5 -149h465q-20 96 -80.5 149.5t-146.5 53.5z
" />
    <glyph glyph-name="igrave" unicode="&#xec;" horiz-adv-x="546" 
d="M391 1141h-244l-237 387h311zM416 0h-287v1014h287v-1014z" />
    <glyph glyph-name="iacute" unicode="&#xed;" horiz-adv-x="546" 
d="M399 1141h-243l153 387h316zM416 0h-287v1014h287v-1014z" />
    <glyph glyph-name="icircumflex" unicode="&#xee;" horiz-adv-x="546" 
d="M141 1141h-268l281 387h241l281 -387h-268l-134 202zM416 0h-287v1014h287v-1014z" />
    <glyph glyph-name="idieresis" unicode="&#xef;" horiz-adv-x="546" 
d="M90 1176q-63 0 -107 44.5t-44 114.5t44 115t107 45q64 0 109 -44.5t45 -115.5q0 -70 -44.5 -114.5t-109.5 -44.5zM455 1176q-63 0 -107.5 44.5t-44.5 114.5t44.5 115t107.5 45q64 0 108.5 -44.5t44.5 -115.5t-44 -115t-109 -44zM416 0h-287v1014h287v-1014z" />
    <glyph glyph-name="eth" unicode="&#xf0;" horiz-adv-x="1198" 
d="M958 1458l-165 -100q340 -333 340 -813q0 -133 -43.5 -243t-117.5 -182t-172 -111.5t-208 -39.5q-112 0 -209.5 39t-166.5 106t-108.5 159.5t-39.5 197.5q0 209 131 348t340 139q212 0 321 -122q-79 217 -270 397l-170 -103l-152 107l183 111q-76 57 -185 116l211 121
q101 -55 178 -112l152 92zM592 221q100 0 172 73t72 177q0 102 -72 174t-172 72q-102 0 -174 -72t-72 -174q0 -104 72 -177t174 -73z" />
    <glyph glyph-name="ntilde" unicode="&#xf1;" horiz-adv-x="1267" 
d="M811 1161q-38 0 -74.5 15.5t-59 34t-48 34t-45.5 15.5q-62 0 -62 -91h-213v86q0 128 54.5 191t132.5 63q36 0 71.5 -15.5t59.5 -34.5t52 -34.5t50 -15.5q59 0 59 94h213v-88q0 -135 -54.5 -194.5t-135.5 -59.5zM416 0h-287v1014h287v-117q124 137 321 137
q184 0 301 -122.5t117 -358.5v-553h-287v510q0 128 -57.5 202t-161.5 74q-109 0 -171 -76t-62 -202v-508z" />
    <glyph glyph-name="ograve" unicode="&#xf2;" horiz-adv-x="1234" 
d="M733 1141h-244l-237 387h311zM616 -25q-234 0 -391 152.5t-157 378.5q0 110 42 208.5t114.5 169.5t174.5 112.5t217 41.5q154 0 280.5 -70.5t198.5 -192.5t72 -269q0 -148 -72 -270t-198.5 -191.5t-280.5 -69.5zM616 229q116 0 192.5 78t76.5 199t-76.5 199.5
t-192.5 78.5t-191 -78.5t-75 -199.5t75 -199t191 -78z" />
    <glyph glyph-name="oacute" unicode="&#xf3;" horiz-adv-x="1234" 
d="M741 1141h-243l153 387h316zM616 -25q-234 0 -391 152.5t-157 378.5q0 110 42 208.5t114.5 169.5t174.5 112.5t217 41.5q154 0 280.5 -70.5t198.5 -192.5t72 -269q0 -148 -72 -270t-198.5 -191.5t-280.5 -69.5zM616 229q116 0 192.5 78t76.5 199t-76.5 199.5t-192.5 78.5
t-191 -78.5t-75 -199.5t75 -199t191 -78z" />
    <glyph glyph-name="ocircumflex" unicode="&#xf4;" horiz-adv-x="1234" 
d="M483 1141h-268l281 387h241l281 -387h-268l-134 202zM616 -25q-234 0 -391 152.5t-157 378.5q0 110 42 208.5t114.5 169.5t174.5 112.5t217 41.5q154 0 280.5 -70.5t198.5 -192.5t72 -269q0 -148 -72 -270t-198.5 -191.5t-280.5 -69.5zM616 229q116 0 192.5 78t76.5 199
t-76.5 199.5t-192.5 78.5t-191 -78.5t-75 -199.5t75 -199t191 -78z" />
    <glyph glyph-name="otilde" unicode="&#xf5;" horiz-adv-x="1234" 
d="M772 1161q-38 0 -74.5 15.5t-59 34t-48 34t-45.5 15.5q-62 0 -62 -91h-213v86q0 128 54.5 191t132.5 63q36 0 71.5 -15.5t59.5 -34.5t52 -34.5t50 -15.5q60 0 60 94h213v-88q0 -135 -55 -194.5t-136 -59.5zM616 -25q-234 0 -391 152.5t-157 378.5q0 110 42 208.5
t114.5 169.5t174.5 112.5t217 41.5q154 0 280.5 -70.5t198.5 -192.5t72 -269q0 -148 -72 -270t-198.5 -191.5t-280.5 -69.5zM616 229q116 0 192.5 78t76.5 199t-76.5 199.5t-192.5 78.5t-191 -78.5t-75 -199.5t75 -199t191 -78z" />
    <glyph glyph-name="odieresis" unicode="&#xf6;" horiz-adv-x="1234" 
d="M403 1171q-66 0 -113.5 48.5t-47.5 115.5t47.5 115.5t113.5 48.5q67 0 115.5 -48.5t48.5 -115.5t-48.5 -115.5t-115.5 -48.5zM829 1171q-66 0 -113.5 48.5t-47.5 115.5t47.5 115.5t113.5 48.5q67 0 114.5 -48t47.5 -116t-47.5 -116t-114.5 -48zM616 -25
q-234 0 -391 152.5t-157 378.5q0 110 42 208.5t114.5 169.5t174.5 112.5t217 41.5q154 0 280.5 -70.5t198.5 -192.5t72 -269q0 -148 -72 -270t-198.5 -191.5t-280.5 -69.5zM616 229q116 0 192.5 78t76.5 199t-76.5 199.5t-192.5 78.5t-191 -78.5t-75 -199.5t75 -199t191 -78
z" />
    <glyph glyph-name="divide" unicode="&#xf7;" horiz-adv-x="1110" 
d="M551 936q-67 0 -114.5 47t-47.5 115q0 66 47.5 112.5t114.5 46.5t114.5 -46.5t47.5 -112.5q0 -68 -47.5 -115t-114.5 -47zM1001 569h-892v232h892v-232zM551 115q-67 0 -114.5 46.5t-47.5 112.5q0 68 47.5 115t114.5 47t114.5 -47t47.5 -115q0 -66 -47.5 -112.5
t-114.5 -46.5z" />
    <glyph glyph-name="oslash" unicode="&#xf8;" horiz-adv-x="1234" 
d="M1106 1133l-133 -218q92 -73 143 -179.5t51 -229.5q0 -148 -72 -270t-198.5 -191.5t-280.5 -69.5q-97 0 -198 33l-78 -125h-213l131 215q-90 73 -140 178.5t-50 229.5q0 110 42 208.5t114.5 169.5t174.5 112.5t217 41.5q99 0 197 -32l78 127h215zM350 506q0 -101 53 -172
l271 444q-27 6 -58 6q-116 0 -191 -78.5t-75 -199.5zM616 229q116 0 192.5 78t76.5 199q0 101 -56 176l-274 -446q35 -7 61 -7z" />
    <glyph glyph-name="ugrave" unicode="&#xf9;" horiz-adv-x="1267" 
d="M741 1141h-243l-238 387h311zM530 -20q-89 0 -163.5 29.5t-132 87t-89.5 151t-32 213.5v553h286v-516q0 -133 59.5 -202t162.5 -69q98 0 164.5 74.5t66.5 198.5v514h287v-1014h-287v127q-121 -147 -322 -147z" />
    <glyph glyph-name="uacute" unicode="&#xfa;" horiz-adv-x="1267" 
d="M752 1141h-244l154 387h315zM530 -20q-89 0 -163.5 29.5t-132 87t-89.5 151t-32 213.5v553h286v-516q0 -133 59.5 -202t162.5 -69q98 0 164.5 74.5t66.5 198.5v514h287v-1014h-287v127q-121 -147 -322 -147z" />
    <glyph glyph-name="ucircumflex" unicode="&#xfb;" horiz-adv-x="1267" 
d="M492 1141h-269l281 387h241l281 -387h-268l-133 202zM530 -20q-89 0 -163.5 29.5t-132 87t-89.5 151t-32 213.5v553h286v-516q0 -133 59.5 -202t162.5 -69q98 0 164.5 74.5t66.5 198.5v514h287v-1014h-287v127q-121 -147 -322 -147z" />
    <glyph glyph-name="udieresis" unicode="&#xfc;" horiz-adv-x="1267" 
d="M412 1171q-66 0 -114 48.5t-48 115.5t48 115.5t114 48.5q67 0 115 -48t48 -116t-48 -116t-115 -48zM838 1171q-66 0 -114 48.5t-48 115.5t48 115.5t114 48.5q67 0 114 -48t47 -116t-47 -116t-114 -48zM530 -20q-89 0 -163.5 29.5t-132 87t-89.5 151t-32 213.5v553h286
v-516q0 -133 59.5 -202t162.5 -69q98 0 164.5 74.5t66.5 198.5v514h287v-1014h-287v127q-121 -147 -322 -147z" />
    <glyph glyph-name="yacute" unicode="&#xfd;" horiz-adv-x="1112" 
d="M588 1528h315l-225 -387h-244zM551 279l233 735h312l-426 -1166q-68 -189 -165.5 -274.5t-250.5 -85.5q-127 0 -229 57l81 234q59 -27 107 -27q66 0 106.5 35t67.5 121l14 43l-385 1063h303z" />
    <glyph glyph-name="thorn" unicode="&#xfe;" horiz-adv-x="1292" 
d="M416 -512h-287v2048h287v-641q125 139 325 139q139 0 250 -69.5t172.5 -189.5t61.5 -267q0 -225 -137 -376.5t-347 -151.5q-200 0 -325 139v-631zM678 233q111 0 185.5 78.5t74.5 196.5q0 117 -75 195.5t-185 78.5q-111 0 -186.5 -78.5t-75.5 -195.5q0 -118 75.5 -196.5
t186.5 -78.5z" />
    <glyph glyph-name="ydieresis" unicode="&#xff;" horiz-adv-x="1112" 
d="M340 1171q-66 0 -114 48.5t-48 115.5t48 115.5t114 48.5q68 0 116 -48.5t48 -115.5t-48 -115.5t-116 -48.5zM766 1171q-66 0 -114 48.5t-48 115.5t48 115.5t114 48.5q67 0 114.5 -48t47.5 -116t-47.5 -116t-114.5 -48zM551 279l233 735h312l-426 -1166
q-68 -189 -165.5 -274.5t-250.5 -85.5q-127 0 -229 57l81 234q59 -27 107 -27q66 0 106.5 35t67.5 121l14 43l-385 1063h303z" />
    <glyph glyph-name="Amacron" unicode="&#x100;" horiz-adv-x="1355" 
d="M358 1874h631v-242h-631v242zM1331 0h-317l-82 270h-510l-80 -270h-317l469 1434h362zM674 1110l-174 -582h354l-176 582h-4z" />
    <glyph glyph-name="amacron" unicode="&#x101;" horiz-adv-x="1286" 
d="M932 1212h-631v242h631v-242zM547 -20q-137 0 -247 70t-171 190.5t-61 267.5t61 267t171 189.5t247 69.5q201 0 323 -139v119h287v-1014h-287v119q-122 -139 -323 -139zM612 233q109 0 183.5 78.5t74.5 196.5q0 117 -74.5 195.5t-183.5 78.5t-183.5 -78.5t-74.5 -195.5
q0 -118 74.5 -196.5t183.5 -78.5z" />
    <glyph glyph-name="Abreve" unicode="&#x102;" horiz-adv-x="1355" 
d="M674 1567q-151 0 -240.5 83.5t-107.5 229.5q-2 20 -2 62h206v-29q6 -70 43 -112t101 -42q69 0 106 50.5t37 132.5h207q0 -172 -92 -273.5t-258 -101.5zM1331 0h-317l-82 270h-510l-80 -270h-317l469 1434h362zM674 1110l-174 -582h354l-176 582h-4z" />
    <glyph glyph-name="abreve" unicode="&#x103;" horiz-adv-x="1286" 
d="M616 1147q-151 0 -240.5 83.5t-107.5 229.5q-2 20 -2 62h207v-29q6 -70 42.5 -112t100.5 -42q70 0 107 51t37 132h207q0 -172 -92.5 -273.5t-258.5 -101.5zM547 -20q-137 0 -247 70t-171 190.5t-61 267.5t61 267t171 189.5t247 69.5q201 0 323 -139v119h287v-1014h-287
v119q-122 -139 -323 -139zM612 233q109 0 183.5 78.5t74.5 196.5q0 117 -74.5 195.5t-183.5 78.5t-183.5 -78.5t-74.5 -195.5q0 -118 74.5 -196.5t183.5 -78.5z" />
    <glyph glyph-name="Aogonek" unicode="&#x104;" horiz-adv-x="1355" 
d="M1051 -201q0 -46 33.5 -70t93.5 -24q34 0 65 8v-196q-54 -13 -119 -13q-115 0 -193.5 59.5t-78.5 176.5q0 83 45.5 151.5t114.5 112.5l-80 266h-510l-80 -270h-317l469 1434h362l475 -1434h-106q-77 -41 -125.5 -95.5t-48.5 -105.5zM674 1110l-174 -582h354l-176 582h-4z
" />
    <glyph glyph-name="aogonek" unicode="&#x105;" horiz-adv-x="1286" 
d="M1110 -295q35 0 66 8v-196q-54 -13 -119 -13q-116 0 -194.5 59.5t-78.5 176.5q0 82 44.5 148.5t111.5 111.5h-70v119q-122 -139 -323 -139q-137 0 -247 70t-171 190.5t-61 267.5t61 267t171 189.5t247 69.5q201 0 323 -139v119h287v-1014q-77 -41 -125.5 -95.5
t-48.5 -105.5q0 -46 33.5 -70t93.5 -24zM612 233q109 0 183.5 78.5t74.5 196.5q0 117 -74.5 195.5t-183.5 78.5t-183.5 -78.5t-74.5 -195.5q0 -118 74.5 -196.5t183.5 -78.5z" />
    <glyph glyph-name="Cacute" unicode="&#x106;" horiz-adv-x="1488" 
d="M948 1561h-243l153 387h316zM819 -31q-155 0 -292 56.5t-234.5 154.5t-154 237.5t-56.5 299.5t56.5 299.5t154 237.5t234.5 154t292 56q209 0 366 -90t249 -233l-226 -174q-65 99 -164.5 155t-222.5 56q-186 0 -312 -130t-126 -331t126 -331t312 -130q125 0 223.5 55.5
t161.5 155.5l228 -174q-93 -144 -250 -234t-365 -90z" />
    <glyph glyph-name="cacute" unicode="&#x107;" horiz-adv-x="1087" 
d="M733 1141h-244l154 387h315zM606 -25q-154 0 -277.5 70.5t-192 192t-68.5 268.5q0 148 68.5 269.5t192 192t277.5 70.5q143 0 257.5 -59.5t183.5 -163.5l-211 -160q-37 57 -96 89t-128 32q-108 0 -183 -76.5t-75 -191.5q0 -116 75 -193t183 -77q69 0 128 31.5t96 88.5
l211 -159q-67 -104 -182.5 -164t-258.5 -60z" />
    <glyph glyph-name="Ccircumflex" unicode="&#x108;" horiz-adv-x="1488" 
d="M690 1561h-268l280 387h242l281 -387h-269l-133 202zM819 -31q-155 0 -292 56.5t-234.5 154.5t-154 237.5t-56.5 299.5t56.5 299.5t154 237.5t234.5 154t292 56q209 0 366 -90t249 -233l-226 -174q-65 99 -164.5 155t-222.5 56q-186 0 -312 -130t-126 -331t126 -331
t312 -130q125 0 223.5 55.5t161.5 155.5l228 -174q-93 -144 -250 -234t-365 -90z" />
    <glyph glyph-name="ccircumflex" unicode="&#x109;" horiz-adv-x="1087" 
d="M473 1141h-268l280 387h242l281 -387h-269l-133 202zM606 -25q-154 0 -277.5 70.5t-192 192t-68.5 268.5q0 148 68.5 269.5t192 192t277.5 70.5q143 0 257.5 -59.5t183.5 -163.5l-211 -160q-37 57 -96 89t-128 32q-108 0 -183 -76.5t-75 -191.5q0 -116 75 -193t183 -77
q69 0 128 31.5t96 88.5l211 -159q-67 -104 -182.5 -164t-258.5 -60z" />
    <glyph glyph-name="Cdotaccent" unicode="&#x10a;" horiz-adv-x="1488" 
d="M823 1591q-72 0 -123 49t-51 121q0 70 51 120t123 50q70 0 121 -50t51 -120q0 -71 -51 -120.5t-121 -49.5zM819 -31q-155 0 -292 56.5t-234.5 154.5t-154 237.5t-56.5 299.5t56.5 299.5t154 237.5t234.5 154t292 56q209 0 366 -90t249 -233l-226 -174q-65 99 -164.5 155
t-222.5 56q-186 0 -312 -130t-126 -331t126 -331t312 -130q125 0 223.5 55.5t161.5 155.5l228 -174q-93 -144 -250 -234t-365 -90z" />
    <glyph glyph-name="cdotaccent" unicode="&#x10b;" horiz-adv-x="1087" 
d="M608 1171q-72 0 -123 49t-51 121q0 70 51 120t123 50q70 0 121 -50t51 -120q0 -71 -51 -120.5t-121 -49.5zM606 -25q-154 0 -277.5 70.5t-192 192t-68.5 268.5q0 148 68.5 269.5t192 192t277.5 70.5q143 0 257.5 -59.5t183.5 -163.5l-211 -160q-37 57 -96 89t-128 32
q-108 0 -183 -76.5t-75 -191.5q0 -116 75 -193t183 -77q69 0 128 31.5t96 88.5l211 -159q-67 -104 -182.5 -164t-258.5 -60z" />
    <glyph glyph-name="Ccaron" unicode="&#x10c;" horiz-adv-x="1488" 
d="M944 1561h-242l-280 387h268l133 -201l133 201h269zM819 -31q-155 0 -292 56.5t-234.5 154.5t-154 237.5t-56.5 299.5t56.5 299.5t154 237.5t234.5 154t292 56q209 0 366 -90t249 -233l-226 -174q-65 99 -164.5 155t-222.5 56q-186 0 -312 -130t-126 -331t126 -331
t312 -130q125 0 223.5 55.5t161.5 155.5l228 -174q-93 -144 -250 -234t-365 -90z" />
    <glyph glyph-name="ccaron" unicode="&#x10d;" horiz-adv-x="1087" 
d="M727 1141h-242l-280 387h268l133 -201l133 201h269zM606 -25q-154 0 -277.5 70.5t-192 192t-68.5 268.5q0 148 68.5 269.5t192 192t277.5 70.5q143 0 257.5 -59.5t183.5 -163.5l-211 -160q-37 57 -96 89t-128 32q-108 0 -183 -76.5t-75 -191.5q0 -116 75 -193t183 -77
q69 0 128 31.5t96 88.5l211 -159q-67 -104 -182.5 -164t-258.5 -60z" />
    <glyph glyph-name="Dcaron" unicode="&#x10e;" horiz-adv-x="1488" 
d="M823 1561h-241l-281 387h268l133 -201l134 201h268zM680 0h-522v1434h522q333 0 530 -194.5t197 -520.5t-197.5 -522.5t-529.5 -196.5zM459 1155v-876h211q199 0 317.5 115.5t118.5 324.5q0 207 -118 321.5t-318 114.5h-211z" />
    <glyph glyph-name="dcaron" unicode="&#x10f;" horiz-adv-x="1536" 
d="M547 -20q-137 0 -247 70t-171 190.5t-61 267.5t61 267t171 189.5t247 69.5q201 0 323 -139v641h287v-1536h-287v119q-122 -139 -323 -139zM1464 1184h-233l82 352h280zM612 233q109 0 183.5 78.5t74.5 196.5q0 117 -74.5 195.5t-183.5 78.5t-183.5 -78.5t-74.5 -195.5
q0 -118 74.5 -196.5t183.5 -78.5z" />
    <glyph glyph-name="Dcroat" unicode="&#x110;" horiz-adv-x="1568" 
d="M238 1434h524q331 0 528 -194.5t197 -520.5t-197 -522.5t-528 -196.5h-524v608h-183v215h183v611zM539 279h211q199 0 317.5 115.5t118.5 324.5q0 207 -118 321.5t-318 114.5h-211v-332h276v-215h-276v-329z" />
    <glyph glyph-name="dcroat" unicode="&#x111;" horiz-adv-x="1310" 
d="M1157 1366h182v-215h-182v-1151h-287v119q-122 -139 -323 -139q-137 0 -247 70t-171 190.5t-61 267.5t61 267t171 189.5t247 69.5q201 0 323 -139v256h-290v215h290v170h287v-170zM612 233q109 0 183.5 78.5t74.5 196.5q0 117 -74.5 195.5t-183.5 78.5t-183.5 -78.5
t-74.5 -195.5q0 -118 74.5 -196.5t183.5 -78.5z" />
    <glyph glyph-name="Emacron" unicode="&#x112;" horiz-adv-x="1214" 
d="M952 1632h-630v242h630v-242zM1116 0h-958v1434h958v-285h-657v-297h581v-256h-581v-311h657v-285z" />
    <glyph glyph-name="emacron" unicode="&#x113;" horiz-adv-x="1148" 
d="M274 1454h631v-242h-631v242zM588 1038q141 0 254 -59t180.5 -177t67.5 -276q0 -64 -15 -120h-719q27 -90 97.5 -141.5t160.5 -51.5q156 0 244 117l168 -162q-71 -93 -177.5 -143t-240.5 -50q-151 0 -273 64t-194.5 186t-72.5 281q0 233 146.5 382.5t373.5 149.5z
M588 803q-89 0 -152.5 -54t-85.5 -149h465q-20 96 -80.5 149.5t-146.5 53.5z" />
    <glyph glyph-name="Ebreve" unicode="&#x114;" horiz-adv-x="1214" 
d="M637 1567q-151 0 -240.5 83.5t-107.5 229.5q-2 20 -2 62h207v-29q6 -70 42.5 -112t100.5 -42q69 0 106 50.5t37 132.5h207q0 -172 -92 -273.5t-258 -101.5zM1116 0h-958v1434h958v-285h-657v-297h581v-256h-581v-311h657v-285z" />
    <glyph glyph-name="ebreve" unicode="&#x115;" horiz-adv-x="1148" 
d="M590 1147q-151 0 -240.5 83.5t-107.5 229.5q-2 20 -2 62h206v-29q6 -70 43 -112t101 -42q69 0 106 50.5t37 132.5h207q0 -172 -92 -273.5t-258 -101.5zM588 1038q141 0 254 -59t180.5 -177t67.5 -276q0 -64 -15 -120h-719q27 -90 97.5 -141.5t160.5 -51.5q156 0 244 117
l168 -162q-71 -93 -177.5 -143t-240.5 -50q-151 0 -273 64t-194.5 186t-72.5 281q0 233 146.5 382.5t373.5 149.5zM588 803q-89 0 -152.5 -54t-85.5 -149h465q-20 96 -80.5 149.5t-146.5 53.5z" />
    <glyph glyph-name="Edotaccent" unicode="&#x116;" horiz-adv-x="1214" 
d="M637 1591q-72 0 -123 49t-51 121q0 70 51 120t123 50q70 0 121 -50t51 -120q0 -71 -51 -120.5t-121 -49.5zM1116 0h-958v1434h958v-285h-657v-297h581v-256h-581v-311h657v-285z" />
    <glyph glyph-name="edotaccent" unicode="&#x117;" horiz-adv-x="1148" 
d="M592 1171q-72 0 -123 49t-51 121q0 70 51 120t123 50q70 0 121 -50t51 -120q0 -71 -51 -120.5t-121 -49.5zM588 1038q141 0 254 -59t180.5 -177t67.5 -276q0 -64 -15 -120h-719q27 -90 97.5 -141.5t160.5 -51.5q156 0 244 117l168 -162q-71 -93 -177.5 -143t-240.5 -50
q-151 0 -273 64t-194.5 186t-72.5 281q0 233 146.5 382.5t373.5 149.5zM588 803q-89 0 -152.5 -54t-85.5 -149h465q-20 96 -80.5 149.5t-146.5 53.5z" />
    <glyph glyph-name="Eogonek" unicode="&#x118;" horiz-adv-x="1214" 
d="M1069 -295q35 0 66 8v-196q-54 -13 -119 -13q-116 0 -194.5 59.5t-78.5 176.5q0 82 44.5 148.5t111.5 111.5h-741v1434h958v-285h-657v-297h581v-256h-581v-311h657v-285q-77 -41 -125.5 -95.5t-48.5 -105.5q0 -46 33.5 -70t93.5 -24z" />
    <glyph glyph-name="eogonek" unicode="&#x119;" horiz-adv-x="1148" 
d="M588 1038q141 0 254 -59t180.5 -177t67.5 -276q0 -64 -15 -120h-719q27 -90 97.5 -141.5t160.5 -51.5q156 0 244 117l168 -162q-92 -121 -244 -168q-77 -41 -125.5 -95.5t-48.5 -105.5q0 -46 33.5 -70t93.5 -24q35 0 66 8v-196q-54 -13 -119 -13q-115 0 -193.5 59.5
t-78.5 176.5q0 137 127 240q-205 24 -337 165.5t-132 360.5q0 233 146.5 382.5t373.5 149.5zM588 803q-89 0 -152.5 -54t-85.5 -149h465q-20 96 -80.5 149.5t-146.5 53.5z" />
    <glyph glyph-name="Ecaron" unicode="&#x11a;" horiz-adv-x="1214" 
d="M758 1561h-242l-280 387h268l133 -201l133 201h268zM1116 0h-958v1434h958v-285h-657v-297h581v-256h-581v-311h657v-285z" />
    <glyph glyph-name="ecaron" unicode="&#x11b;" horiz-adv-x="1148" 
d="M991 1528l-280 -387h-242l-281 387h269l133 -201l133 201h268zM588 1038q141 0 254 -59t180.5 -177t67.5 -276q0 -64 -15 -120h-719q27 -90 97.5 -141.5t160.5 -51.5q156 0 244 117l168 -162q-71 -93 -177.5 -143t-240.5 -50q-151 0 -273 64t-194.5 186t-72.5 281
q0 233 146.5 382.5t373.5 149.5zM588 803q-89 0 -152.5 -54t-85.5 -149h465q-20 96 -80.5 149.5t-146.5 53.5z" />
    <glyph glyph-name="Gcircumflex" unicode="&#x11c;" horiz-adv-x="1568" 
d="M676 1561h-268l280 387h242l280 -387h-268l-133 202zM815 -31q-202 0 -369 93.5t-265.5 265.5t-98.5 389q0 160 56 299.5t153 237.5t233.5 154t292.5 56q208 0 362.5 -88.5t247.5 -232.5l-223 -172q-64 101 -164 157t-223 56q-186 0 -312 -133t-126 -334
q0 -205 129.5 -334t318.5 -129q228 0 344 162v131h-297v248h586v-471q-91 -164 -253.5 -259.5t-391.5 -95.5z" />
    <glyph glyph-name="gcircumflex" unicode="&#x11d;" horiz-adv-x="1284" 
d="M479 1141h-268l281 387h241l281 -387h-269l-133 202zM578 -532q-148 0 -275 48t-203 124l152 208q135 -116 321 -116q57 0 107 15t93.5 46.5t69 88t25.5 132.5v105q-122 -139 -321 -139q-137 0 -247 70t-171 190.5t-61 267.5t61 267t171 189.5t247 69.5q199 0 321 -139
v119h287v-989q0 -116 -30 -209.5t-82.5 -157.5t-126 -107.5t-158 -63t-180.5 -19.5zM610 233q109 0 183.5 78.5t74.5 196.5q0 117 -74.5 195.5t-183.5 78.5q-108 0 -182 -79t-74 -195q0 -118 74 -196.5t182 -78.5z" />
    <glyph glyph-name="Gbreve" unicode="&#x11e;" horiz-adv-x="1568" 
d="M809 1567q-151 0 -240.5 83.5t-107.5 229.5q-2 20 -2 62h207v-29q6 -70 42.5 -112t100.5 -42q69 0 106 50.5t37 132.5h207q0 -172 -92 -273.5t-258 -101.5zM815 -31q-202 0 -369 93.5t-265.5 265.5t-98.5 389q0 160 56 299.5t153 237.5t233.5 154t292.5 56
q208 0 362.5 -88.5t247.5 -232.5l-223 -172q-64 101 -164 157t-223 56q-186 0 -312 -133t-126 -334q0 -205 129.5 -334t318.5 -129q228 0 344 162v131h-297v248h586v-471q-91 -164 -253.5 -259.5t-391.5 -95.5z" />
    <glyph glyph-name="gbreve" unicode="&#x11f;" horiz-adv-x="1284" 
d="M612 1147q-151 0 -240.5 83.5t-107.5 229.5q-2 20 -2 62h207v-29q6 -70 42.5 -112t100.5 -42q70 0 107 51t37 132h207q0 -172 -92.5 -273.5t-258.5 -101.5zM578 -532q-148 0 -275 48t-203 124l152 208q135 -116 321 -116q57 0 107 15t93.5 46.5t69 88t25.5 132.5v105
q-122 -139 -321 -139q-137 0 -247 70t-171 190.5t-61 267.5t61 267t171 189.5t247 69.5q199 0 321 -139v119h287v-989q0 -116 -30 -209.5t-82.5 -157.5t-126 -107.5t-158 -63t-180.5 -19.5zM610 233q109 0 183.5 78.5t74.5 196.5q0 117 -74.5 195.5t-183.5 78.5
q-108 0 -182 -79t-74 -195q0 -118 74 -196.5t182 -78.5z" />
    <glyph glyph-name="Gdotaccent" unicode="&#x120;" horiz-adv-x="1568" 
d="M809 1591q-72 0 -123 49t-51 121q0 70 51 120t123 50q70 0 121 -50t51 -120q0 -71 -51 -120.5t-121 -49.5zM815 -31q-202 0 -369 93.5t-265.5 265.5t-98.5 389q0 160 56 299.5t153 237.5t233.5 154t292.5 56q208 0 362.5 -88.5t247.5 -232.5l-223 -172q-64 101 -164 157
t-223 56q-186 0 -312 -133t-126 -334q0 -205 129.5 -334t318.5 -129q228 0 344 162v131h-297v248h586v-471q-91 -164 -253.5 -259.5t-391.5 -95.5z" />
    <glyph glyph-name="gdotaccent" unicode="&#x121;" horiz-adv-x="1284" 
d="M614 1171q-72 0 -123 49t-51 121q0 70 51 120t123 50q70 0 121 -50t51 -120q0 -71 -51 -120.5t-121 -49.5zM578 -532q-148 0 -275 48t-203 124l152 208q135 -116 321 -116q57 0 107 15t93.5 46.5t69 88t25.5 132.5v105q-122 -139 -321 -139q-137 0 -247 70t-171 190.5
t-61 267.5t61 267t171 189.5t247 69.5q199 0 321 -139v119h287v-989q0 -116 -30 -209.5t-82.5 -157.5t-126 -107.5t-158 -63t-180.5 -19.5zM610 233q109 0 183.5 78.5t74.5 196.5q0 117 -74.5 195.5t-183.5 78.5q-108 0 -182 -79t-74 -195q0 -118 74 -196.5t182 -78.5z" />
    <glyph glyph-name="uni0122" unicode="&#x122;" horiz-adv-x="1568" 
d="M815 -31q-202 0 -369 93.5t-265.5 265.5t-98.5 389q0 160 56 299.5t153 237.5t233.5 154t292.5 56q208 0 362.5 -88.5t247.5 -232.5l-223 -172q-64 101 -164 157t-223 56q-186 0 -312 -133t-126 -334q0 -205 129.5 -334t318.5 -129q228 0 344 162v131h-297v248h586v-471
q-91 -164 -253.5 -259.5t-391.5 -95.5zM770 -508h-233l137 385h289z" />
    <glyph glyph-name="uni0123" unicode="&#x123;" horiz-adv-x="1284" 
d="M750 1141h-275l150 387h247zM578 -532q-148 0 -275 48t-203 124l152 208q135 -116 321 -116q57 0 107 15t93.5 46.5t69 88t25.5 132.5v105q-122 -139 -321 -139q-137 0 -247 70t-171 190.5t-61 267.5t61 267t171 189.5t247 69.5q199 0 321 -139v119h287v-989
q0 -116 -30 -209.5t-82.5 -157.5t-126 -107.5t-158 -63t-180.5 -19.5zM610 233q109 0 183.5 78.5t74.5 196.5q0 117 -74.5 195.5t-183.5 78.5q-108 0 -182 -79t-74 -195q0 -118 74 -196.5t182 -78.5z" />
    <glyph glyph-name="Hcircumflex" unicode="&#x124;" horiz-adv-x="1456" 
d="M596 1561h-268l280 387h242l280 -387h-268l-133 202zM459 0h-301v1434h301v-582h540v582h301v-1434h-301v563h-540v-563z" />
    <glyph glyph-name="hcircumflex" unicode="&#x125;" horiz-adv-x="1267" 
d="M141 1663h-268l281 387h241l281 -387h-268l-134 203zM416 0h-287v1536h287v-412l-4 -229q132 139 325 139q89 0 164 -29.5t132 -87t89.5 -151t32.5 -213.5v-553h-287v510q0 133 -59 204.5t-160 71.5q-103 0 -168 -73.5t-65 -204.5v-508z" />
    <glyph glyph-name="Hbar" unicode="&#x126;" horiz-adv-x="1466" 
d="M1305 1235h139v-188h-139v-1047h-301v563h-543v-563h-301v1047h-140v188h140v199h301v-199h543v199h301v-199zM461 852h543v195h-543v-195z" />
    <glyph glyph-name="hbar" unicode="&#x127;" horiz-adv-x="1302" 
d="M772 1034q89 0 164 -29.5t132 -87t89.5 -151t32.5 -213.5v-553h-287v510q0 134 -58.5 205t-160.5 71q-103 0 -167 -73t-64 -205v-508h-287v1151h-184v215h184v170h287v-170h288v-215h-288v-27l-4 -229q129 139 323 139z" />
    <glyph glyph-name="Itilde" unicode="&#x128;" horiz-adv-x="614" 
d="M463 1581q-38 0 -74.5 15.5t-59 33.5t-48 33.5t-45.5 15.5q-62 0 -62 -90h-213v86q0 128 54.5 191t131.5 63q45 0 89 -25t81 -50t64 -25q59 0 59 94h213v-88q0 -135 -54.5 -194.5t-135.5 -59.5zM459 0h-301v1434h301v-1434z" />
    <glyph glyph-name="itilde" unicode="&#x129;" horiz-adv-x="546" 
d="M428 1161q-38 0 -74.5 15.5t-59 34t-48 34t-45.5 15.5q-62 0 -62 -91h-213v86q0 128 54.5 191t132.5 63q36 0 71.5 -15.5t59.5 -34.5t52 -34.5t50 -15.5q60 0 60 94h212v-88q0 -135 -54.5 -194.5t-135.5 -59.5zM416 0h-287v1014h287v-1014z" />
    <glyph glyph-name="Imacron" unicode="&#x12a;" horiz-adv-x="614" 
d="M623 1632h-631v242h631v-242zM459 0h-301v1434h301v-1434z" />
    <glyph glyph-name="imacron" unicode="&#x12b;" horiz-adv-x="546" 
d="M588 1212h-631v242h631v-242zM416 0h-287v1014h287v-1014z" />
    <glyph glyph-name="Ibreve" unicode="&#x12c;" horiz-adv-x="614" 
d="M307 1567q-151 0 -240.5 83.5t-107.5 229.5q-2 20 -2 62h207v-29q6 -70 42.5 -112t100.5 -42q70 0 107 51t37 132h206q0 -172 -92 -273.5t-258 -101.5zM459 0h-301v1434h301v-1434z" />
    <glyph glyph-name="ibreve" unicode="&#x12d;" horiz-adv-x="546" 
d="M272 1147q-151 0 -240.5 83.5t-107.5 229.5q-2 20 -2 62h207v-29q6 -70 42.5 -112t100.5 -42q70 0 107 51t37 132h207q0 -172 -92.5 -273.5t-258.5 -101.5zM416 0h-287v1014h287v-1014z" />
    <glyph glyph-name="Iogonek" unicode="&#x12e;" horiz-adv-x="614" 
d="M410 -295q34 0 65 8v-196q-54 -13 -119 -13q-115 0 -193.5 59.5t-78.5 176.5q0 82 44.5 148.5t111.5 111.5h-82v1434h301v-1434h-2q-77 -41 -125.5 -95.5t-48.5 -105.5q0 -46 33.5 -70t93.5 -24z" />
    <glyph glyph-name="iogonek" unicode="&#x12f;" horiz-adv-x="546" 
d="M274 1171q-72 0 -123 49t-51 121q0 70 51 120t123 50q70 0 121 -50t51 -120q0 -71 -51 -120.5t-121 -49.5zM242 -201q0 -46 33.5 -70t93.5 -24q34 0 65 8v-196q-54 -13 -119 -13q-115 0 -193.5 59.5t-78.5 176.5q0 82 44.5 148.5t111.5 111.5h-70v1014h287v-1014
q-77 -41 -125.5 -95.5t-48.5 -105.5z" />
    <glyph glyph-name="Idotaccent" unicode="&#x130;" horiz-adv-x="614" 
d="M307 1591q-72 0 -123 49t-51 121q0 70 51 120t123 50q70 0 121 -50t51 -120q0 -71 -51 -120.5t-121 -49.5zM459 0h-301v1434h301v-1434z" />
    <glyph glyph-name="dotlessi" unicode="&#x131;" horiz-adv-x="546" 
d="M416 0h-287v1014h287v-1014z" />
    <glyph glyph-name="IJ" unicode="&#x132;" horiz-adv-x="1710" 
d="M459 0h-301v1434h301v-1434zM1071 -31q-248 0 -409 148l145 233q107 -90 242 -90q106 0 165.5 67.5t59.5 194.5v912h303v-916q0 -143 -41 -251.5t-113 -172t-160.5 -94.5t-191.5 -31z" />
    <glyph glyph-name="ij" unicode="&#x133;" horiz-adv-x="1122" 
d="M274 1171q-72 0 -123 49t-51 121q0 70 51 120t123 50q70 0 121 -50t51 -120q0 -71 -51 -120.5t-121 -49.5zM850 1171q-72 0 -123 49t-51 121q0 70 51 120t123 50q70 0 121 -50t51 -120q0 -71 -51 -120.5t-121 -49.5zM416 0h-287v1014h287v-1014zM635 -512q-114 0 -207 41
l31 231q53 -16 106 -16q61 0 100.5 42.5t39.5 137.5v1090h286v-1139q0 -177 -96.5 -282t-259.5 -105z" />
    <glyph glyph-name="Jcircumflex" unicode="&#x134;" horiz-adv-x="1095" 
d="M678 1561h-268l280 387h242l280 -387h-268l-133 202zM457 -31q-249 0 -410 148l146 233q107 -90 241 -90q106 0 165.5 67.5t59.5 194.5v912h304v-916q0 -143 -41 -251.5t-113 -172t-160.5 -94.5t-191.5 -31z" />
    <glyph glyph-name="jcircumflex" unicode="&#x135;" horiz-adv-x="575" 
d="M170 1141h-268l280 387h242l281 -387h-269l-133 202zM88 -512q-114 0 -207 41l31 231q53 -16 106 -16q61 0 100.5 42.5t39.5 137.5v1090h286v-1139q0 -177 -96.5 -282t-259.5 -105z" />
    <glyph glyph-name="uni0136" unicode="&#x136;" horiz-adv-x="1392" 
d="M459 0h-301v1434h301v-574h176l356 574h369l-467 -713l489 -721h-370l-375 573h-178v-573zM688 -508h-233l137 385h289z" />
    <glyph glyph-name="uni0137" unicode="&#x137;" horiz-adv-x="1173" 
d="M416 0h-287v1536h287v-891h153l250 369h346l-352 -502l352 -512h-340l-258 373h-151v-373zM559 -508h-233l137 385h289z" />
    <glyph glyph-name="kgreenlandic" unicode="&#x138;" horiz-adv-x="1142" 
d="M768 1014h367l-437 -496l437 -518h-361l-358 446v-446h-287v1014h287v-426z" />
    <glyph glyph-name="Lacute" unicode="&#x139;" horiz-adv-x="1142" 
d="M432 1561h-244l154 387h315zM1100 0h-942v1434h301v-1147h641v-287z" />
    <glyph glyph-name="lacute" unicode="&#x13a;" horiz-adv-x="671" 
d="M403 1663h-243l110 276h314zM467 -20q-158 0 -248 98.5t-90 267.5v1190h287v-1153q0 -74 35 -110.5t92 -36.5q43 0 75 14l31 -236q-81 -34 -182 -34z" />
    <glyph glyph-name="uni013B" unicode="&#x13b;" horiz-adv-x="1142" 
d="M1100 0h-942v1434h301v-1147h641v-287zM602 -508h-233l137 385h289z" />
    <glyph glyph-name="uni013C" unicode="&#x13c;" horiz-adv-x="671" 
d="M467 -20q-158 0 -248 98.5t-90 267.5v1190h287v-1153q0 -74 35 -110.5t92 -36.5q43 0 75 14l31 -236q-81 -34 -182 -34zM381 -508h-234l138 385h288z" />
    <glyph glyph-name="Lcaron" unicode="&#x13d;" horiz-adv-x="1142" 
d="M1100 0h-942v1434h301v-1147h641v-287zM766 1081h-234l82 353h281z" />
    <glyph glyph-name="lcaron" unicode="&#x13e;" horiz-adv-x="794" 
d="M467 -20q-158 0 -248 98.5t-90 267.5v1190h287v-1153q0 -74 35 -110.5t92 -36.5q43 0 75 14l31 -236q-81 -34 -182 -34zM723 1184h-234l84 352h279z" />
    <glyph glyph-name="Ldot" unicode="&#x13f;" horiz-adv-x="1142" 
d="M1100 0h-942v1434h301v-1147h641v-287zM856 616q-70 0 -121 52t-51 127q0 68 51.5 119t120.5 51t120.5 -51t51.5 -119q0 -75 -51 -127t-121 -52z" />
    <glyph glyph-name="ldot" unicode="&#x140;" horiz-adv-x="856" 
d="M467 -20q-158 0 -248 98.5t-90 267.5v1190h287v-1153q0 -74 35 -110.5t92 -36.5q43 0 75 14l31 -236q-81 -34 -182 -34zM705 641q-72 0 -123.5 51.5t-51.5 126.5q0 69 52 119.5t123 50.5q68 0 118.5 -50.5t50.5 -119.5q0 -75 -50 -126.5t-119 -51.5z" />
    <glyph glyph-name="Lslash" unicode="&#x141;" horiz-adv-x="1224" 
d="M541 659v-372h641v-287h-942v494l-152 -84l-90 178l242 133v713h301v-545l256 141l90 -178z" />
    <glyph glyph-name="lslash" unicode="&#x142;" horiz-adv-x="833" 
d="M686 236q44 0 76 14l31 -236q-81 -34 -183 -34q-158 0 -248 98.5t-90 267.5v170l-153 -92l-96 176l249 150v786h287v-614l158 94l94 -174l-252 -152v-307q0 -74 35 -110.5t92 -36.5z" />
    <glyph glyph-name="Nacute" unicode="&#x143;" horiz-adv-x="1495" 
d="M879 1561h-244l153 387h316zM449 0h-291v1434h301l588 -922v922h290v-1434h-303l-585 922v-922z" />
    <glyph glyph-name="nacute" unicode="&#x144;" horiz-adv-x="1267" 
d="M780 1141h-243l153 387h316zM416 0h-287v1014h287v-117q124 137 321 137q184 0 301 -122.5t117 -358.5v-553h-287v510q0 128 -57.5 202t-161.5 74q-109 0 -171 -76t-62 -202v-508z" />
    <glyph glyph-name="uni0145" unicode="&#x145;" horiz-adv-x="1495" 
d="M449 0h-291v1434h301l588 -922v922h290v-1434h-303l-585 922v-922zM698 -508h-233l137 385h289z" />
    <glyph glyph-name="uni0146" unicode="&#x146;" horiz-adv-x="1267" 
d="M416 0h-287v1014h287v-117q124 137 321 137q184 0 301 -122.5t117 -358.5v-553h-287v510q0 128 -57.5 202t-161.5 74q-109 0 -171 -76t-62 -202v-508zM598 -508h-233l137 385h289z" />
    <glyph glyph-name="Ncaron" unicode="&#x147;" horiz-adv-x="1495" 
d="M872 1561h-241l-281 387h268l134 -201l133 201h268zM449 0h-291v1434h301l588 -922v922h290v-1434h-303l-585 922v-922z" />
    <glyph glyph-name="ncaron" unicode="&#x148;" horiz-adv-x="1267" 
d="M776 1141h-241l-281 387h268l133 -201l133 201h269zM416 0h-287v1014h287v-117q124 137 321 137q184 0 301 -122.5t117 -358.5v-553h-287v510q0 128 -57.5 202t-161.5 74q-109 0 -171 -76t-62 -202v-508z" />
    <glyph glyph-name="napostrophe" unicode="&#x149;" horiz-adv-x="1267" 
d="M377 1157h-248l141 383h281zM416 0h-287v1014h287v-117q124 137 321 137q184 0 301 -122.5t117 -358.5v-553h-287v510q0 128 -57.5 202t-161.5 74q-109 0 -171 -76t-62 -202v-508z" />
    <glyph glyph-name="Eng" unicode="&#x14a;" horiz-adv-x="1495" 
d="M961 -512q-138 0 -238 47l33 248q52 -25 131 -25q160 0 160 174v39l-598 969v-940h-291v1434h317l572 -920v920h290v-1500q0 -221 -98 -333.5t-278 -112.5z" />
    <glyph glyph-name="eng" unicode="&#x14b;" horiz-adv-x="1267" 
d="M799 -512q-116 0 -209 41l31 231q56 -16 108 -16q60 0 99.5 42.5t39.5 137.5v586q0 133 -59 204.5t-160 71.5q-102 0 -167.5 -73.5t-65.5 -204.5v-508h-287v1014h287v-115q128 135 321 135q184 0 301 -122.5t117 -358.5v-678q0 -177 -97 -282t-259 -105z" />
    <glyph glyph-name="Omacron" unicode="&#x14c;" horiz-adv-x="1640" 
d="M1137 1632h-631v242h631v-242zM821 -31q-206 0 -376 99.5t-266.5 271t-96.5 377.5t96.5 377.5t266.5 270.5t376 99q154 0 291 -58.5t235 -158t155 -238t57 -292.5t-57 -292.5t-155 -238.5t-235 -158.5t-291 -58.5zM819 256q189 0 313.5 131t124.5 330t-124.5 330
t-313.5 131q-188 0 -312 -131t-124 -330t124 -330t312 -131z" />
    <glyph glyph-name="omacron" unicode="&#x14d;" horiz-adv-x="1234" 
d="M930 1212h-631v242h631v-242zM616 -25q-234 0 -391 152.5t-157 378.5q0 110 42 208.5t114.5 169.5t174.5 112.5t217 41.5q154 0 280.5 -70.5t198.5 -192.5t72 -269q0 -148 -72 -270t-198.5 -191.5t-280.5 -69.5zM616 229q116 0 192.5 78t76.5 199t-76.5 199.5
t-192.5 78.5t-191 -78.5t-75 -199.5t75 -199t191 -78z" />
    <glyph glyph-name="Obreve" unicode="&#x14e;" horiz-adv-x="1640" 
d="M821 1567q-151 0 -240.5 83.5t-107.5 229.5q-2 20 -2 62h207v-29q6 -70 42.5 -112t100.5 -42q70 0 107 51t37 132h206q0 -172 -92 -273.5t-258 -101.5zM821 -31q-206 0 -376 99.5t-266.5 271t-96.5 377.5t96.5 377.5t266.5 270.5t376 99q154 0 291 -58.5t235 -158
t155 -238t57 -292.5t-57 -292.5t-155 -238.5t-235 -158.5t-291 -58.5zM819 256q189 0 313.5 131t124.5 330t-124.5 330t-313.5 131q-188 0 -312 -131t-124 -330t124 -330t312 -131z" />
    <glyph glyph-name="obreve" unicode="&#x14f;" horiz-adv-x="1234" 
d="M616 1147q-151 0 -240.5 83.5t-107.5 229.5q-2 20 -2 62h207v-29q6 -70 42.5 -112t100.5 -42q70 0 107 51t37 132h207q0 -172 -92.5 -273.5t-258.5 -101.5zM616 -25q-234 0 -391 152.5t-157 378.5q0 110 42 208.5t114.5 169.5t174.5 112.5t217 41.5q154 0 280.5 -70.5
t198.5 -192.5t72 -269q0 -148 -72 -270t-198.5 -191.5t-280.5 -69.5zM616 229q116 0 192.5 78t76.5 199t-76.5 199.5t-192.5 78.5t-191 -78.5t-75 -199.5t75 -199t191 -78z" />
    <glyph glyph-name="Ohungarumlaut" unicode="&#x150;" horiz-adv-x="1640" 
d="M745 1561h-204l166 387h268zM1102 1561h-205l166 387h268zM821 -31q-206 0 -376 99.5t-266.5 271t-96.5 377.5t96.5 377.5t266.5 270.5t376 99q154 0 291 -58.5t235 -158t155 -238t57 -292.5t-57 -292.5t-155 -238.5t-235 -158.5t-291 -58.5zM819 256q189 0 313.5 131
t124.5 330t-124.5 330t-313.5 131q-188 0 -312 -131t-124 -330t124 -330t312 -131z" />
    <glyph glyph-name="ohungarumlaut" unicode="&#x151;" horiz-adv-x="1234" 
d="M541 1141h-205l166 387h268zM897 1141h-205l166 387h268zM616 -25q-234 0 -391 152.5t-157 378.5q0 110 42 208.5t114.5 169.5t174.5 112.5t217 41.5q154 0 280.5 -70.5t198.5 -192.5t72 -269q0 -148 -72 -270t-198.5 -191.5t-280.5 -69.5zM616 229q116 0 192.5 78
t76.5 199t-76.5 199.5t-192.5 78.5t-191 -78.5t-75 -199.5t75 -199t191 -78z" />
    <glyph glyph-name="OE" unicode="&#x152;" horiz-adv-x="1933" 
d="M1837 0h-1010q-172 0 -313.5 55t-235.5 151.5t-145 227.5t-51 283t51 283t145 227.5t235.5 151.5t313.5 55h1010v-285h-602v-297h530v-256h-530v-309h602v-287zM827 287h107v862h-107q-208 0 -326 -123t-118 -309t118 -308t326 -122z" />
    <glyph glyph-name="oe" unicode="&#x153;" horiz-adv-x="1972" 
d="M1423 1038q136 0 246.5 -58.5t178 -176.5t67.5 -277q0 -64 -12 -120h-723q27 -91 98.5 -142t159.5 -51q161 0 245 117l170 -162q-151 -193 -413 -193q-131 0 -240.5 49.5t-175.5 143.5q-66 -93 -174.5 -143t-241.5 -50q-150 0 -274 69.5t-195 191.5t-71 270
q0 224 155 378t385 154q132 0 241.5 -54.5t172.5 -152.5q64 101 167.5 154t233.5 53zM1413 805q-89 0 -152 -54t-85 -151h462q-20 97 -80 151t-145 54zM614 229q116 0 192.5 78t76.5 199t-76.5 199.5t-192.5 78.5q-114 0 -189 -78.5t-75 -199.5t75 -199t189 -78z" />
    <glyph glyph-name="Racute" unicode="&#x154;" horiz-adv-x="1302" 
d="M653 1948h316l-226 -387h-243zM940 528l291 -528h-334l-250 481h-188v-481h-301v1434h544q218 0 355 -127t137 -349q0 -157 -67 -266.5t-187 -163.5zM672 1167h-213v-422h213q104 0 164.5 58.5t60.5 152.5t-61 152.5t-164 58.5z" />
    <glyph glyph-name="racute" unicode="&#x155;" horiz-adv-x="823" 
d="M600 1141h-244l154 387h315zM416 0h-287v1014h287v-137q111 159 315 159q25 0 41 -2v-286q-27 2 -67 2q-128 0 -208.5 -87t-80.5 -243v-420z" />
    <glyph glyph-name="uni0156" unicode="&#x156;" horiz-adv-x="1302" 
d="M940 528l291 -528h-334l-250 481h-188v-481h-301v1434h544q218 0 355 -127t137 -349q0 -157 -67 -266.5t-187 -163.5zM672 1167h-213v-422h213q104 0 164.5 58.5t60.5 152.5t-61 152.5t-164 58.5zM631 -508h-234l138 385h288z" />
    <glyph glyph-name="uni0157" unicode="&#x157;" horiz-adv-x="823" 
d="M416 0h-287v1014h287v-137q111 159 315 159q25 0 41 -2v-286q-27 2 -67 2q-128 0 -208.5 -87t-80.5 -243v-420zM217 -508h-233l137 385h289z" />
    <glyph glyph-name="Rcaron" unicode="&#x158;" horiz-adv-x="1302" 
d="M1020 1948l-281 -387h-241l-281 387h268l133 -201l134 201h268zM940 528l291 -528h-334l-250 481h-188v-481h-301v1434h544q218 0 355 -127t137 -349q0 -157 -67 -266.5t-187 -163.5zM672 1167h-213v-422h213q104 0 164.5 58.5t60.5 152.5t-61 152.5t-164 58.5z" />
    <glyph glyph-name="rcaron" unicode="&#x159;" horiz-adv-x="823" 
d="M596 1141h-242l-280 387h268l133 -201l133 201h269zM416 0h-287v1014h287v-137q111 159 315 159q25 0 41 -2v-286q-27 2 -67 2q-128 0 -208.5 -87t-80.5 -243v-420z" />
    <glyph glyph-name="Sacute" unicode="&#x15a;" horiz-adv-x="1142" 
d="M705 1561h-244l153 387h316zM561 -31q-295 0 -510 164l152 242q77 -57 169 -90t181 -33q112 0 169.5 42.5t57.5 111.5q0 30 -13.5 55t-35 41.5t-56 31.5t-67.5 25.5t-78 23.5q-21 6 -32 9q-48 14 -86.5 27.5t-84 35t-81 45.5t-70 59t-56.5 75.5t-36 94t-14 115.5
q0 185 141 302.5t369 117.5q273 0 469 -141l-152 -238q-154 99 -313 99q-93 0 -149 -42.5t-56 -103.5q0 -50 44 -88t87.5 -53.5t144.5 -45.5l9 -3q81 -25 140.5 -49.5t116.5 -62t92.5 -82.5t57 -109t21.5 -144q0 -195 -142 -313.5t-389 -118.5z" />
    <glyph glyph-name="sacute" unicode="&#x15b;" horiz-adv-x="964" 
d="M621 1141h-244l153 387h316zM492 -25q-261 0 -433 127l119 193q65 -41 144.5 -63.5t152.5 -22.5q160 0 160 84q0 21 -11.5 36.5t-40.5 28t-58 21.5t-85 23q-10 3 -16 4q-56 14 -100 30t-89.5 43t-76 60t-49.5 82t-19 108q0 142 116.5 225.5t289.5 83.5q226 0 395 -108
l-121 -195q-126 72 -258 72q-60 0 -95.5 -22.5t-35.5 -55.5q0 -40 44.5 -62t150.5 -51q2 0 3 -0.5t2.5 -1t2.5 -0.5q60 -16 102.5 -31.5t90.5 -42.5t77.5 -59.5t49.5 -82t20 -111.5q0 -141 -116.5 -226.5t-315.5 -85.5z" />
    <glyph glyph-name="Scircumflex" unicode="&#x15c;" horiz-adv-x="1142" 
d="M444 1561h-268l281 387h241l281 -387h-268l-133 202zM561 -31q-295 0 -510 164l152 242q77 -57 169 -90t181 -33q112 0 169.5 42.5t57.5 111.5q0 30 -13.5 55t-35 41.5t-56 31.5t-67.5 25.5t-78 23.5q-21 6 -32 9q-48 14 -86.5 27.5t-84 35t-81 45.5t-70 59t-56.5 75.5
t-36 94t-14 115.5q0 185 141 302.5t369 117.5q273 0 469 -141l-152 -238q-154 99 -313 99q-93 0 -149 -42.5t-56 -103.5q0 -50 44 -88t87.5 -53.5t144.5 -45.5l9 -3q81 -25 140.5 -49.5t116.5 -62t92.5 -82.5t57 -109t21.5 -144q0 -195 -142 -313.5t-389 -118.5z" />
    <glyph glyph-name="scircumflex" unicode="&#x15d;" horiz-adv-x="964" 
d="M360 1141h-268l281 387h241l281 -387h-268l-133 202zM492 -25q-261 0 -433 127l119 193q65 -41 144.5 -63.5t152.5 -22.5q160 0 160 84q0 21 -11.5 36.5t-40.5 28t-58 21.5t-85 23q-10 3 -16 4q-56 14 -100 30t-89.5 43t-76 60t-49.5 82t-19 108q0 142 116.5 225.5
t289.5 83.5q226 0 395 -108l-121 -195q-126 72 -258 72q-60 0 -95.5 -22.5t-35.5 -55.5q0 -40 44.5 -62t150.5 -51q2 0 3 -0.5t2.5 -1t2.5 -0.5q60 -16 102.5 -31.5t90.5 -42.5t77.5 -59.5t49.5 -82t20 -111.5q0 -141 -116.5 -226.5t-315.5 -85.5z" />
    <glyph glyph-name="Scedilla" unicode="&#x15e;" horiz-adv-x="1142" 
d="M1092 401q0 -175 -116.5 -290t-322.5 -138l-14 -51h12q92 0 150.5 -49t58.5 -139q0 -105 -77 -166.5t-197 -61.5q-140 0 -238 72l70 117q72 -43 143 -43q54 0 80.5 21t26.5 55q0 35 -27 50t-86 15h-106l43 178q-257 18 -441 162l152 242q77 -57 169 -90t181 -33
q112 0 169.5 42.5t57.5 111.5q0 30 -13.5 55t-35 41.5t-56 31.5t-67.5 25.5t-78 23.5q-21 6 -32 9q-48 14 -86.5 27.5t-84 35t-81 45.5t-70 59t-56.5 75.5t-36 94t-14 115.5q0 185 141 302.5t369 117.5q273 0 469 -141l-152 -238q-154 99 -313 99q-93 0 -149 -42.5
t-56 -103.5q0 -50 44 -88t87.5 -53.5t144.5 -45.5l9 -3q81 -25 140.5 -49.5t116.5 -62t92.5 -82.5t57 -109t21.5 -144z" />
    <glyph glyph-name="scedilla" unicode="&#x15f;" horiz-adv-x="964" 
d="M924 287q0 -125 -92 -206.5t-254 -100.5l-17 -60h12q92 0 150.5 -49t58.5 -139q0 -105 -77 -166.5t-197 -61.5q-140 0 -238 72l70 117q72 -43 143 -43q54 0 80.5 21t26.5 55q0 35 -27 50t-86 15h-106l45 189q-214 15 -357 122l119 193q65 -41 144.5 -63.5t152.5 -22.5
q160 0 160 84q0 21 -11.5 36.5t-40.5 28t-58 21.5t-85 23q-10 3 -16 4q-56 14 -100 30t-89.5 43t-76 60t-49.5 82t-19 108q0 142 116.5 225.5t289.5 83.5q226 0 395 -108l-121 -195q-126 72 -258 72q-60 0 -95.5 -22.5t-35.5 -55.5q0 -40 44.5 -62t150.5 -51q2 0 3 -0.5
t2.5 -1t2.5 -0.5q60 -16 102.5 -31.5t90.5 -42.5t77.5 -59.5t49.5 -82t20 -111.5z" />
    <glyph glyph-name="Scaron" unicode="&#x160;" horiz-adv-x="1142" 
d="M698 1561h-241l-281 387h268l134 -201l133 201h268zM561 -31q-295 0 -510 164l152 242q77 -57 169 -90t181 -33q112 0 169.5 42.5t57.5 111.5q0 30 -13.5 55t-35 41.5t-56 31.5t-67.5 25.5t-78 23.5q-21 6 -32 9q-48 14 -86.5 27.5t-84 35t-81 45.5t-70 59t-56.5 75.5
t-36 94t-14 115.5q0 185 141 302.5t369 117.5q273 0 469 -141l-152 -238q-154 99 -313 99q-93 0 -149 -42.5t-56 -103.5q0 -50 44 -88t87.5 -53.5t144.5 -45.5l9 -3q81 -25 140.5 -49.5t116.5 -62t92.5 -82.5t57 -109t21.5 -144q0 -195 -142 -313.5t-389 -118.5z" />
    <glyph glyph-name="scaron" unicode="&#x161;" horiz-adv-x="964" 
d="M614 1141h-241l-281 387h268l134 -201l133 201h268zM492 -25q-261 0 -433 127l119 193q65 -41 144.5 -63.5t152.5 -22.5q160 0 160 84q0 21 -11.5 36.5t-40.5 28t-58 21.5t-85 23q-10 3 -16 4q-56 14 -100 30t-89.5 43t-76 60t-49.5 82t-19 108q0 142 116.5 225.5
t289.5 83.5q226 0 395 -108l-121 -195q-126 72 -258 72q-60 0 -95.5 -22.5t-35.5 -55.5q0 -40 44.5 -62t150.5 -51q2 0 3 -0.5t2.5 -1t2.5 -0.5q60 -16 102.5 -31.5t90.5 -42.5t77.5 -59.5t49.5 -82t20 -111.5q0 -141 -116.5 -226.5t-315.5 -85.5z" />
    <glyph glyph-name="uni0162" unicode="&#x162;" horiz-adv-x="1212" 
d="M758 1147v-1147h-76l-20 -78h12q92 0 150.5 -49t58.5 -139q0 -105 -77.5 -166.5t-197.5 -61.5q-139 0 -237 72l69 117q72 -43 144 -43q54 0 80 21t26 55q0 35 -26.5 50t-85.5 15h-107l49 207h-63v1147h-414v287h1126v-287h-411z" />
    <glyph glyph-name="uni0163" unicode="&#x163;" horiz-adv-x="866" 
d="M631 -78q92 0 150.5 -49t58.5 -139q0 -105 -77.5 -166.5t-197.5 -61.5q-139 0 -237 72l69 117q72 -43 144 -43q54 0 80 21t26 55q0 35 -26.5 50t-85.5 15h-107l49 203q-114 35 -175.5 131t-61.5 240v401h-174v246h174v295h286v-295h267v-246h-267v-358q0 -174 150 -174
q43 0 102 16l29 -236q-74 -30 -174 -36l-15 -58h13z" />
    <glyph glyph-name="Tcaron" unicode="&#x164;" horiz-adv-x="1212" 
d="M729 1561h-242l-280 387h268l133 -201l133 201h269zM758 0h-301v1147h-414v287h1126v-287h-411v-1147z" />
    <glyph glyph-name="tcaron" unicode="&#x165;" horiz-adv-x="940" 
d="M868 1184h-231l82 352h280zM602 -20q-170 0 -266 103.5t-96 283.5v401h-174v246h174v295h286v-295h267v-246h-267v-358q0 -174 150 -174q43 0 102 16l29 -236q-79 -36 -205 -36z" />
    <glyph glyph-name="Tbar" unicode="&#x166;" horiz-adv-x="1212" 
d="M1169 1434v-287h-411v-356h229v-230h-229v-561h-301v561h-230v230h230v356h-414v287h1126z" />
    <glyph glyph-name="tbar" unicode="&#x167;" horiz-adv-x="866" 
d="M778 244l29 -228q-79 -36 -205 -36q-171 0 -266.5 99.5t-95.5 278.5v95h-154v188h154v147h-174v226h174v295h286v-295h267v-226h-267v-147h246v-188h-246v-52q0 -174 150 -174q42 0 102 17z" />
    <glyph glyph-name="Utilde" unicode="&#x168;" horiz-adv-x="1441" 
d="M877 1581q-49 0 -92.5 24.5t-77.5 49t-58 24.5q-61 0 -61 -90h-213v86q0 128 54.5 191t131.5 63q45 0 89 -25t81 -50t64 -25q59 0 59 94h213v-88q0 -135 -54.5 -194.5t-135.5 -59.5zM721 -31q-126 0 -233 41t-186 119t-124 197.5t-45 269.5v838h301v-826
q0 -174 79.5 -263t207.5 -89q129 0 208 89t79 263v826h301v-838q0 -150 -44.5 -269.5t-123.5 -197.5t-186 -119t-234 -41z" />
    <glyph glyph-name="utilde" unicode="&#x169;" horiz-adv-x="1267" 
d="M780 1161q-38 0 -74.5 15.5t-59 34t-48 34t-45.5 15.5q-61 0 -61 -91h-213v86q0 128 54.5 191t131.5 63q36 0 71.5 -15.5t59.5 -34.5t52 -34.5t50 -15.5q60 0 60 94h213v-88q0 -135 -55 -194.5t-136 -59.5zM530 -20q-89 0 -163.5 29.5t-132 87t-89.5 151t-32 213.5v553
h286v-516q0 -133 59.5 -202t162.5 -69q98 0 164.5 74.5t66.5 198.5v514h287v-1014h-287v127q-121 -147 -322 -147z" />
    <glyph glyph-name="Umacron" unicode="&#x16a;" horiz-adv-x="1441" 
d="M1036 1632h-630v242h630v-242zM721 -31q-126 0 -233 41t-186 119t-124 197.5t-45 269.5v838h301v-826q0 -174 79.5 -263t207.5 -89q129 0 208 89t79 263v826h301v-838q0 -150 -44.5 -269.5t-123.5 -197.5t-186 -119t-234 -41z" />
    <glyph glyph-name="umacron" unicode="&#x16b;" horiz-adv-x="1267" 
d="M940 1212h-631v242h631v-242zM530 -20q-89 0 -163.5 29.5t-132 87t-89.5 151t-32 213.5v553h286v-516q0 -133 59.5 -202t162.5 -69q98 0 164.5 74.5t66.5 198.5v514h287v-1014h-287v127q-121 -147 -322 -147z" />
    <glyph glyph-name="Ubreve" unicode="&#x16c;" horiz-adv-x="1441" 
d="M721 1567q-151 0 -240.5 83.5t-107.5 229.5q-2 20 -2 62h207v-29q6 -70 42.5 -112t100.5 -42q69 0 106 50.5t37 132.5h207q0 -172 -92 -273.5t-258 -101.5zM721 -31q-126 0 -233 41t-186 119t-124 197.5t-45 269.5v838h301v-826q0 -174 79.5 -263t207.5 -89q129 0 208 89
t79 263v826h301v-838q0 -150 -44.5 -269.5t-123.5 -197.5t-186 -119t-234 -41z" />
    <glyph glyph-name="ubreve" unicode="&#x16d;" horiz-adv-x="1267" 
d="M625 1147q-151 0 -241 83.5t-108 229.5q-2 20 -2 62h207v-29q6 -70 43 -112t101 -42q69 0 106 50.5t37 132.5h207q0 -172 -92 -273.5t-258 -101.5zM530 -20q-89 0 -163.5 29.5t-132 87t-89.5 151t-32 213.5v553h286v-516q0 -133 59.5 -202t162.5 -69q98 0 164.5 74.5
t66.5 198.5v514h287v-1014h-287v127q-121 -147 -322 -147z" />
    <glyph glyph-name="Uring" unicode="&#x16e;" horiz-adv-x="1441" 
d="M721 1546q-106 0 -178 67t-72 171q0 100 72.5 166.5t177.5 66.5q103 0 175.5 -66.5t72.5 -166.5q0 -104 -72.5 -171t-175.5 -67zM721 1696q34 0 59 24.5t25 59.5t-25 61.5t-59 26.5q-35 0 -60.5 -26.5t-25.5 -61.5t25.5 -59.5t60.5 -24.5zM721 -31q-126 0 -233 41
t-186 119t-124 197.5t-45 269.5v838h301v-826q0 -174 79.5 -263t207.5 -89q129 0 208 89t79 263v826h301v-838q0 -150 -44.5 -269.5t-123.5 -197.5t-186 -119t-234 -41z" />
    <glyph glyph-name="uring" unicode="&#x16f;" horiz-adv-x="1267" 
d="M627 1126q-106 0 -178 67t-72 171q0 100 72.5 166.5t177.5 66.5q103 0 175 -66.5t72 -166.5q0 -104 -72 -171t-175 -67zM627 1276q34 0 59 24.5t25 59.5t-25 61.5t-59 26.5q-35 0 -60.5 -26.5t-25.5 -61.5t25.5 -59.5t60.5 -24.5zM530 -20q-89 0 -163.5 29.5t-132 87
t-89.5 151t-32 213.5v553h286v-516q0 -133 59.5 -202t162.5 -69q98 0 164.5 74.5t66.5 198.5v514h287v-1014h-287v127q-121 -147 -322 -147z" />
    <glyph glyph-name="Uhungarumlaut" unicode="&#x170;" horiz-adv-x="1441" 
d="M645 1561h-205l166 387h268zM1001 1561h-204l166 387h268zM721 -31q-126 0 -233 41t-186 119t-124 197.5t-45 269.5v838h301v-826q0 -174 79.5 -263t207.5 -89q129 0 208 89t79 263v826h301v-838q0 -150 -44.5 -269.5t-123.5 -197.5t-186 -119t-234 -41z" />
    <glyph glyph-name="uhungarumlaut" unicode="&#x171;" horiz-adv-x="1267" 
d="M549 1141h-205l166 387h268zM905 1141h-205l166 387h269zM530 -20q-89 0 -163.5 29.5t-132 87t-89.5 151t-32 213.5v553h286v-516q0 -133 59.5 -202t162.5 -69q98 0 164.5 74.5t66.5 198.5v514h287v-1014h-287v127q-121 -147 -322 -147z" />
    <glyph glyph-name="Uogonek" unicode="&#x172;" horiz-adv-x="1441" 
d="M1008 608v826h301v-838q0 -236 -106.5 -390t-287.5 -210q-74 -41 -120.5 -94t-46.5 -103q0 -46 33 -70t93 -24q35 0 66 8v-196q-54 -13 -119 -13q-115 0 -193.5 59.5t-78.5 176.5q0 129 117 231q-237 18 -385 181.5t-148 443.5v838h301v-826q0 -174 79.5 -263t207.5 -89
q129 0 208 89t79 263z" />
    <glyph glyph-name="uogonek" unicode="&#x173;" horiz-adv-x="1267" 
d="M1090 -295q34 0 65 8v-196q-54 -13 -119 -13q-115 0 -193.5 59.5t-78.5 176.5q0 82 44.5 148.5t111.5 111.5h-68v127q-121 -147 -322 -147q-89 0 -163.5 29.5t-132 87t-89.5 151t-32 213.5v553h286v-516q0 -133 59.5 -202t162.5 -69q98 0 164.5 74.5t66.5 198.5v514h287
v-1014h-2q-77 -41 -125.5 -95.5t-48.5 -105.5q0 -46 33.5 -70t93.5 -24z" />
    <glyph glyph-name="Wcircumflex" unicode="&#x174;" horiz-adv-x="1945" 
d="M840 1561h-269l281 387h242l280 -387h-268l-133 202zM735 0h-358l-361 1434h318l227 -1035l266 1035h291l266 -1035l228 1035h317l-362 -1434h-357l-237 920z" />
    <glyph glyph-name="wcircumflex" unicode="&#x175;" horiz-adv-x="1572" 
d="M655 1141h-268l281 387h241l281 -387h-268l-134 202zM629 0h-318l-295 1014h299l166 -695l176 695h265l174 -690l166 690h297l-295 -1014h-320l-156 578z" />
    <glyph glyph-name="Ycircumflex" unicode="&#x176;" horiz-adv-x="1314" 
d="M526 1561h-268l281 387h241l281 -387h-268l-134 202zM809 0h-301v496l-492 938h344l299 -615l297 615h342l-489 -938v-496z" />
    <glyph glyph-name="ycircumflex" unicode="&#x177;" horiz-adv-x="1112" 
d="M686 1141l-133 202l-133 -202h-268l280 387h242l280 -387h-268zM551 279l233 735h312l-426 -1166q-68 -189 -165.5 -274.5t-250.5 -85.5q-127 0 -229 57l81 234q59 -27 107 -27q66 0 106.5 35t67.5 121l14 43l-385 1063h303z" />
    <glyph glyph-name="Ydieresis" unicode="&#x178;" horiz-adv-x="1314" 
d="M446 1591q-66 0 -113.5 48.5t-47.5 115.5t47.5 115.5t113.5 48.5q68 0 116 -48.5t48 -115.5t-48 -115.5t-116 -48.5zM872 1591q-66 0 -113.5 48.5t-47.5 115.5t47.5 115.5t113.5 48.5q67 0 114.5 -48t47.5 -116t-47.5 -116t-114.5 -48zM809 0h-301v496l-492 938h344
l299 -615l297 615h342l-489 -938v-496z" />
    <glyph glyph-name="Zacute" unicode="&#x179;" horiz-adv-x="1130" 
d="M678 1561h-244l154 387h315zM1059 0h-985v270l598 881h-594v283h954v-271l-598 -880h625v-283z" />
    <glyph glyph-name="zacute" unicode="&#x17a;" horiz-adv-x="1005" 
d="M631 1141h-244l154 387h315zM922 0h-838v236l471 536h-451v242h803v-236l-471 -536h486v-242z" />
    <glyph glyph-name="Zdotaccent" unicode="&#x17b;" horiz-adv-x="1130" 
d="M553 1591q-72 0 -123 49t-51 121q0 70 51 120t123 50q70 0 121 -50t51 -120q0 -71 -51 -120.5t-121 -49.5zM1059 0h-985v270l598 881h-594v283h954v-271l-598 -880h625v-283z" />
    <glyph glyph-name="zdotaccent" unicode="&#x17c;" horiz-adv-x="1005" 
d="M506 1171q-72 0 -123 49t-51 121q0 70 51 120t123 50q70 0 121 -50t51 -120q0 -71 -51 -120.5t-121 -49.5zM922 0h-838v236l471 536h-451v242h803v-236l-471 -536h486v-242z" />
    <glyph glyph-name="Zcaron" unicode="&#x17d;" horiz-adv-x="1130" 
d="M674 1561h-242l-280 387h268l133 -201l133 201h268zM1059 0h-985v270l598 881h-594v283h954v-271l-598 -880h625v-283z" />
    <glyph glyph-name="zcaron" unicode="&#x17e;" horiz-adv-x="1005" 
d="M627 1141h-242l-281 387h269l133 -201l133 201h268zM922 0h-838v236l471 536h-451v242h803v-236l-471 -536h486v-242z" />
    <glyph glyph-name="longs" unicode="&#x17f;" horiz-adv-x="630" 
d="M416 0h-287v1188q0 167 80.5 262.5t230.5 95.5q107 0 183 -37l-50 -247q-40 12 -65 12q-92 0 -92 -113v-1161z" />
    <glyph glyph-name="uni0181" unicode="&#x181;" horiz-adv-x="1525" 
d="M965 0h-590v1178h-25q-47 0 -71.5 -26.5t-24.5 -68.5q0 -29 12 -67l-237 -47q-39 89 -39 168q0 80 30 139.5t81.5 92.5t113 49t133.5 16h565q209 0 333 -97.5t124 -279.5q0 -117 -46.5 -192.5t-113.5 -116.5v-5q31 -12 59.5 -29.5t60.5 -48t55.5 -67.5t39 -91t15.5 -116
q0 -184 -122 -287.5t-353 -103.5zM676 1174v-328h215q86 0 136 41t50 121q0 83 -49.5 124.5t-136.5 41.5h-215zM676 610v-350h258q97 0 150 44t53 132q0 83 -55 128.5t-148 45.5h-258z" />
    <glyph glyph-name="uni0186" unicode="&#x186;" horiz-adv-x="1478" 
d="M666 -31q-206 0 -362.5 90.5t-248.5 233.5l226 174q64 -100 163 -155.5t220 -55.5q183 0 307.5 130.5t124.5 330.5t-124.5 330.5t-307.5 130.5q-121 0 -220 -56t-163 -155l-226 174q92 143 248.5 233t362.5 90q154 0 289.5 -56t232.5 -154t153 -237.5t56 -299.5
t-56 -299.5t-153 -237.5t-232.5 -154.5t-289.5 -56.5z" />
    <glyph glyph-name="uni0187" unicode="&#x187;" horiz-adv-x="1597" 
d="M1464 1597q80 0 166 -38l-45 -240q-32 12 -67 12q-95 0 -95 -114v-76l-225 -174q-64 99 -163 155t-220 56q-183 0 -307.5 -130.5t-124.5 -330.5t124.5 -330.5t307.5 -130.5q121 0 220 55.5t163 155.5l225 -174q-92 -143 -248 -233.5t-362 -90.5q-154 0 -289.5 56.5
t-232.5 154.5t-153 237.5t-56 299.5t56 299.5t153 237.5t232.5 154t289.5 56q204 0 369 -94q27 104 96 165.5t186 61.5z" />
    <glyph glyph-name="uni0188" unicode="&#x188;" horiz-adv-x="1259" 
d="M1069 1298q100 0 180 -34l-47 -234q-30 12 -67 12q-91 0 -91 -112v-115l-213 -160q-35 55 -93 86t-126 31q-108 0 -183 -75.5t-75 -188.5q0 -114 75 -190t183 -76q68 0 126 30.5t93 85.5l213 -159q-67 -105 -181.5 -164.5t-256.5 -59.5q-154 0 -277.5 70.5t-192 192
t-68.5 268.5q0 148 68.5 269.5t192 192t277.5 70.5q86 0 166 -22q18 131 95 206.5t202 75.5z" />
    <glyph glyph-name="uni0189" unicode="&#x189;" horiz-adv-x="1568" 
d="M238 1434h524q331 0 528 -194.5t197 -520.5t-197 -522.5t-528 -196.5h-524v608h-183v215h183v611zM539 279h211q199 0 317.5 115.5t118.5 324.5q0 207 -118 321.5t-318 114.5h-211v-332h276v-215h-276v-329z" />
    <glyph glyph-name="uni018A" unicode="&#x18a;" horiz-adv-x="1705" 
d="M899 0h-524v1178h-25q-47 0 -71.5 -26.5t-24.5 -68.5q0 -29 12 -67l-237 -47q-39 89 -39 168q0 80 30 139.5t81.5 92.5t113 49t133.5 16h551q331 0 528 -194.5t197 -520.5t-197 -522.5t-528 -196.5zM676 1155v-876h211q200 0 318 115.5t118 324.5q0 208 -117.5 322
t-318.5 114h-211z" />
    <glyph glyph-name="uni018E" unicode="&#x18e;" horiz-adv-x="1214" 
d="M98 1434h961v-1434h-961v285h660v297h-584v256h584v311h-660v285z" />
    <glyph glyph-name="uni018F" unicode="&#x18f;" horiz-adv-x="1589" 
d="M807 1464q147 0 276.5 -56.5t222.5 -155t147 -237.5t54 -298q0 -154 -56.5 -293t-153 -238.5t-230 -158t-281.5 -58.5q-202 0 -367.5 96.5t-261.5 270t-96 389.5v90h1137q-27 170 -141 272.5t-269 102.5q-221 0 -374 -197l-211 176q102 138 256.5 216.5t347.5 78.5z
M786 236q148 0 258.5 94t147.5 252h-815q36 -164 146 -255t263 -91z" />
    <glyph glyph-name="uni0190" unicode="&#x190;" horiz-adv-x="1159" 
d="M600 -31q-241 0 -377.5 118t-136.5 310q0 125 62.5 213.5t170.5 126.5v8q-78 38 -127 119t-49 197q0 182 128.5 292.5t340.5 110.5q251 0 461 -143l-137 -223q-151 84 -305 84q-87 0 -143 -44t-56 -114q0 -81 51 -121.5t142 -40.5h123v-258h-144q-99 0 -159 -40.5
t-60 -125.5q0 -87 65.5 -134.5t172.5 -47.5q102 0 181 22.5t161 73.5l137 -229q-82 -69 -210 -111.5t-292 -42.5z" />
    <glyph glyph-name="uni0191" unicode="&#x191;" horiz-adv-x="1177" 
d="M123 -512q-85 0 -174 39l47 246q41 -13 65 -13q97 0 97 115v1559h958v-283h-657v-340h573v-266h-573v-699q0 -160 -88 -259t-248 -99z" />
    <glyph glyph-name="florin" unicode="&#x192;" horiz-adv-x="929" 
d="M57 -512q-78 0 -153 16v269q45 -11 100 -11q61 0 104 38.5t56 119.5l133 840h-213v254h254l24 162q28 173 131 273.5t263 100.5q85 0 147 -18v-266q-36 8 -92 8q-69 0 -115 -38.5t-57 -119.5l-14 -102h254v-254h-295l-144 -897q-28 -174 -128 -274.5t-255 -100.5z" />
    <glyph glyph-name="uni0193" unicode="&#x193;" horiz-adv-x="1601" 
d="M1466 1597q82 0 168 -38l-45 -240q-32 12 -67 12q-95 0 -95 -114v-74l-223 -172q-64 101 -164 157t-223 56q-186 0 -312 -133t-126 -334q0 -205 129.5 -334t318.5 -129q228 0 344 162v131h-297v248h586v-471q-91 -164 -253.5 -259.5t-391.5 -95.5q-202 0 -369 93.5
t-265.5 265.5t-98.5 389q0 160 56 299.5t153 237.5t233.5 154t292.5 56q208 0 369 -92q27 103 95.5 164t184.5 61z" />
    <glyph glyph-name="uni0194" unicode="&#x194;" horiz-adv-x="1343" 
d="M678 -512q-208 0 -319 116t-111 292q0 109 56 227.5t167 277.5l-455 1033h336l322 -762l317 762h336l-446 -1016q103 -155 165 -285.5t62 -236.5q0 -84 -27 -157t-79 -129.5t-135.5 -89t-188.5 -32.5zM678 -236q55 0 93 38t38 100q0 15 -2.5 31.5t-8.5 36.5t-10.5 34
t-16 38.5t-16 35t-19.5 38t-18.5 33.5t-20 35.5t-17.5 30.5q-8 -15 -36.5 -63.5t-39.5 -69t-28.5 -57.5t-24 -66t-6.5 -57q0 -61 38.5 -99.5t94.5 -38.5z" />
    <glyph glyph-name="uni0196" unicode="&#x196;" horiz-adv-x="747" 
d="M559 -31q-201 0 -301 113t-100 326v1026h297v-985q0 -112 47 -155.5t129 -43.5q38 0 76 10v-272q-67 -19 -148 -19z" />
    <glyph glyph-name="uni0197" unicode="&#x197;" horiz-adv-x="718" 
d="M510 819h188v-207h-188v-612h-301v612h-189v207h189v615h301v-615z" />
    <glyph glyph-name="uni0198" unicode="&#x198;" horiz-adv-x="1392" 
d="M459 0h-301v1434h301v-574h174l190 334q55 94 101 149t113 89t153 34q80 0 168 -36l-45 -240q-38 10 -58 10q-96 0 -157 -104l-209 -367l493 -729h-360l-385 573h-178v-573z" />
    <glyph glyph-name="uni0199" unicode="&#x199;" horiz-adv-x="1173" 
d="M416 0h-287v1208q0 167 80.5 263t230.5 96q107 0 183 -37l-50 -248q-40 12 -65 12q-92 0 -92 -112v-537h153l250 369h346l-352 -502l352 -512h-340l-258 373h-151v-373z" />
    <glyph glyph-name="uni019A" unicode="&#x19a;" horiz-adv-x="712" 
d="M662 250l28 -234q-76 -36 -182 -36q-158 0 -248 98.5t-90 267.5v336h-147v215h147v639h287v-639h211v-215h-211v-299q0 -76 34.5 -111.5t92.5 -35.5q50 0 78 14z" />
    <glyph glyph-name="uni019D" unicode="&#x19d;" horiz-adv-x="1501" 
d="M123 -512q-85 0 -174 39l47 246q41 -13 65 -13q45 0 73 28t28 87v1559h303l588 -922v922h290v-1434h-303l-585 922v-1076q0 -161 -86.5 -259.5t-245.5 -98.5z" />
    <glyph glyph-name="uni019F" unicode="&#x19f;" horiz-adv-x="1640" 
d="M821 1464q154 0 291 -58.5t235 -158t155 -238t57 -292.5t-57 -292.5t-155 -238.5t-235 -158.5t-291 -58.5q-206 0 -376 99.5t-266.5 271t-96.5 377.5t96.5 377.5t266.5 270.5t376 99zM819 1178q-157 0 -273 -94.5t-151 -249.5h850q-36 155 -151.5 249.5t-274.5 94.5z
M819 256q159 0 274.5 94.5t151.5 249.5h-850q35 -155 151 -249.5t273 -94.5z" />
    <glyph glyph-name="Ohorn" unicode="&#x1a0;" horiz-adv-x="1640" 
d="M1335 1260q106 -103 165 -243.5t59 -299.5q0 -154 -57 -292.5t-155 -238.5t-235 -158.5t-291 -58.5q-206 0 -376 99.5t-266.5 271t-96.5 377.5t96.5 377.5t266.5 270.5t376 99q145 0 275 -51h43q48 0 72 21.5t24 58.5q0 41 -19.5 78.5t-64.5 89.5l221 88
q109 -131 109 -254q0 -170 -146 -235zM819 256q189 0 313.5 131t124.5 330t-124.5 330t-313.5 131q-188 0 -312 -131t-124 -330t124 -330t312 -131z" />
    <glyph glyph-name="ohorn" unicode="&#x1a1;" horiz-adv-x="1234" 
d="M1210 1090q0 -87 -42 -150.5t-126 -91.5q125 -144 125 -342q0 -148 -72 -270t-198.5 -191.5t-280.5 -69.5q-234 0 -391 152.5t-157 378.5q0 110 42 208.5t114.5 169.5t174.5 112.5t217 41.5q90 0 170 -24h74q50 0 78.5 25.5t28.5 62.5q0 62 -54 151l220 80
q77 -119 77 -243zM616 229q116 0 192.5 78t76.5 199t-76.5 199.5t-192.5 78.5t-191 -78.5t-75 -199.5t75 -199t191 -78z" />
    <glyph glyph-name="uni01A4" unicode="&#x1a4;" horiz-adv-x="1474" 
d="M901 1434q102 0 191.5 -33t156.5 -94.5t105.5 -155.5t38.5 -209q0 -154 -67 -266.5t-177 -167.5t-248 -55h-225v-453h-301v1178h-4q-61 0 -89 -26t-28 -69q0 -29 12 -67l-237 -47q-39 89 -39 168t30 138.5t81.5 93t113 49.5t133.5 16h553zM676 711h194q104 0 165 62
t61 163q0 102 -60.5 163.5t-165.5 61.5h-194v-450z" />
    <glyph glyph-name="uni01A5" unicode="&#x1a5;" horiz-adv-x="1286" 
d="M416 -512h-287v1720q0 167 80.5 263t230.5 96q107 0 183 -37l-50 -248q-40 12 -65 12q-92 0 -92 -112v-287q125 139 323 139q209 0 345.5 -151t136.5 -375q0 -147 -61.5 -267.5t-172 -190.5t-248.5 -70q-198 0 -323 139v-631zM676 233q108 0 183 78.5t75 196.5
q0 116 -75 195t-183 79q-109 0 -184.5 -79t-75.5 -195q0 -118 75 -196.5t185 -78.5z" />
    <glyph glyph-name="uni01A9" unicode="&#x1a9;" horiz-adv-x="1146" 
d="M1049 0h-924v254l319 463l-319 463v254h924v-271h-564l308 -446l-308 -447h564v-270z" />
    <glyph glyph-name="uni01AC" unicode="&#x1ac;" horiz-adv-x="1374" 
d="M918 0h-302v1147h-200q-55 0 -81 -18.5t-26 -59.5q0 -24 13 -65l-238 -48q-41 93 -41 183q0 76 30 134t81.5 92.5t114.5 51.5t134 17h926v-287h-411v-1147z" />
    <glyph glyph-name="uni01AD" unicode="&#x1ad;" horiz-adv-x="866" 
d="M594 -20q-164 0 -259 103.5t-95 283.5v397h-174v250h174v194q0 167 81 263t230 96q106 0 182 -37l-49 -248q-37 12 -66 12q-92 0 -92 -112v-168h267v-250h-267v-354q0 -174 136 -174q57 0 116 16l29 -234q-87 -38 -213 -38z" />
    <glyph glyph-name="uni01AE" unicode="&#x1ae;" horiz-adv-x="1212" 
d="M797 -512q-162 0 -251 96t-89 262v1301h-414v287h1126v-287h-411v-1272q0 -59 28 -87t70 -28q27 0 68 13l47 -246q-92 -39 -174 -39z" />
    <glyph glyph-name="Uhorn" unicode="&#x1af;" horiz-adv-x="1482" 
d="M1511 1505q0 -97 -52 -164.5t-150 -87.5v-657q0 -150 -44.5 -269.5t-123.5 -197.5t-186 -119t-234 -41q-126 0 -233 41t-186 119t-124 197.5t-45 269.5v838h301v-826q0 -174 79.5 -263t207.5 -89q129 0 208 89t79 263v826h202q27 0 43.5 22t16.5 49q0 41 -19 78t-63 90
l217 86q106 -114 106 -254z" />
    <glyph glyph-name="uhorn" unicode="&#x1b0;" horiz-adv-x="1290" 
d="M1341 1085q0 -95 -52.5 -163t-149.5 -88v-834h-287v127q-121 -147 -322 -147q-89 0 -163.5 29.5t-132 87t-89.5 151t-32 213.5v553h286v-516q0 -133 59.5 -202t162.5 -69q98 0 164.5 74.5t66.5 198.5v514h186q29 0 45.5 22t16.5 49q0 40 -19.5 77t-64.5 91l217 86
q108 -116 108 -254z" />
    <glyph glyph-name="uni01B1" unicode="&#x1b1;" horiz-adv-x="1624" 
d="M1526 1155h-246q125 -79 193.5 -210t68.5 -300q0 -195 -92 -349t-258.5 -240.5t-378.5 -86.5q-209 0 -376.5 88t-261 242.5t-93.5 345.5q0 169 68.5 299t195.5 211h-252v279h627v-340q-153 -39 -245.5 -151t-92.5 -269q0 -185 121.5 -305.5t306.5 -120.5q186 0 308 120
t122 306q0 159 -93.5 271t-248.5 149v340h627v-279z" />
    <glyph glyph-name="uni01B2" unicode="&#x1b2;" horiz-adv-x="1441" 
d="M721 -31q-126 0 -233 41t-186 119t-124 197.5t-45 269.5v838h301v-826q0 -174 79.5 -263t207.5 -89q129 0 208 89t79 263v484q0 50 -26.5 75t-68.5 25q-27 0 -65 -12l-47 245q89 39 182 39q161 0 243.5 -95t82.5 -263v-510q0 -150 -44.5 -269.5t-123.5 -197.5t-186 -119
t-234 -41z" />
    <glyph glyph-name="uni01B3" unicode="&#x1b3;" horiz-adv-x="1382" 
d="M813 0h-301v496l-496 938h344l306 -615l184 359q29 59 51.5 98t53.5 77.5t64.5 60t79 35t101.5 13.5q81 0 166 -39l-43 -229q-38 10 -57 10q-47 0 -77 -26t-61 -86l-315 -594v-498z" />
    <glyph glyph-name="uni01B4" unicode="&#x1b4;" horiz-adv-x="1400" 
d="M258 -512q-135 0 -231 57l79 232q65 -25 103 -25q108 0 153 109l39 98l-385 1055h303l234 -729l332 946q54 152 130.5 228.5t209.5 76.5q84 0 168 -37l-45 -229q-27 8 -60 8q-51 0 -85.5 -25.5t-55.5 -85.5l-483 -1314q-69 -195 -163.5 -280t-242.5 -85z" />
    <glyph glyph-name="uni01B5" unicode="&#x1b5;" horiz-adv-x="1130" 
d="M666 623l-232 -340h625v-283h-985v270l239 353h-157v188h284l232 340h-594v283h954v-271l-239 -352h182v-188h-309z" />
    <glyph glyph-name="uni01B6" unicode="&#x1b6;" horiz-adv-x="1005" 
d="M604 432l-168 -190h486v-242h-838v236l172 196h-133v162h276l156 178h-451v242h803v-236l-162 -184h138v-162h-279z" />
    <glyph glyph-name="uni01B7" unicode="&#x1b7;" horiz-adv-x="1163" 
d="M1004 1165l-281 -323q170 -24 262 -133.5t92 -278.5q0 -215 -138 -338t-384 -123q-154 0 -285 48t-215 120l140 225q154 -114 340 -114q118 0 185.5 51.5t67.5 144.5q0 96 -65.5 143.5t-177.5 47.5h-139v209l284 321h-555v269h869v-269z" />
    <glyph glyph-name="uni01C4" unicode="&#x1c4;" horiz-adv-x="2598" 
d="M2142 1561h-241l-281 387h268l133 -201l133 201h269zM680 0h-522v1434h522q333 0 530 -194.5t197 -520.5t-197.5 -522.5t-529.5 -196.5zM2527 0h-985v270l598 881h-594v283h955v-271l-598 -880h624v-283zM459 1155v-876h211q199 0 317.5 115.5t118.5 324.5
q0 207 -118 321.5t-318 114.5h-211z" />
    <glyph glyph-name="uni01C5" unicode="&#x1c5;" horiz-adv-x="2484" 
d="M2105 1141h-241l-281 387h266l136 -201l131 201h270zM680 0h-522v1434h522q333 0 530 -194.5t197 -520.5t-197.5 -522.5t-529.5 -196.5zM459 1155v-876h211q199 0 317.5 115.5t118.5 324.5q0 207 -118 321.5t-318 114.5h-211zM2400 0h-837v236l471 536h-451v242h803v-236
l-471 -536h485v-242z" />
    <glyph glyph-name="uni01C6" unicode="&#x1c6;" horiz-adv-x="2291" 
d="M547 -20q-137 0 -247 70t-171 190.5t-61 267.5t61 267t171 189.5t247 69.5q201 0 323 -139v641h287v-1536h-287v119q-122 -139 -323 -139zM1913 1141h-242l-280 387h266l135 -201l131 201h270zM2208 0h-838v236l471 536h-450v242h802v-236l-471 -536h486v-242zM612 233
q109 0 183.5 78.5t74.5 196.5q0 117 -74.5 195.5t-183.5 78.5t-183.5 -78.5t-74.5 -195.5q0 -118 74.5 -196.5t183.5 -78.5z" />
    <glyph glyph-name="uni01C7" unicode="&#x1c7;" horiz-adv-x="2236" 
d="M1100 0h-942v1434h301v-1147h641v-287zM1599 -31q-248 0 -409 148l145 233q107 -90 242 -90q106 0 165.5 67.5t59.5 194.5v912h303v-916q0 -143 -41 -251.5t-113 -172t-160.5 -94.5t-191.5 -31z" />
    <glyph glyph-name="uni01C8" unicode="&#x1c8;" horiz-adv-x="1718" 
d="M1446 1171q-72 0 -123 49t-51 121q0 70 51 120t123 50q70 0 121 -50t51 -120q0 -71 -51 -120.5t-121 -49.5zM1100 0h-942v1434h301v-1147h641v-287zM1231 -512q-114 0 -207 41l31 231q53 -16 106 -16q61 0 100 42.5t39 137.5v1090h287v-1139q0 -177 -96.5 -282
t-259.5 -105z" />
    <glyph glyph-name="uni01C9" unicode="&#x1c9;" horiz-adv-x="1247" 
d="M467 -20q-158 0 -248 98.5t-90 267.5v1190h287v-1153q0 -74 35 -110.5t92 -36.5q43 0 75 14l31 -236q-81 -34 -182 -34zM975 1171q-72 0 -123 49t-51 121q0 70 51 120t123 50q70 0 121 -50t51 -120q0 -71 -51 -120.5t-121 -49.5zM760 -512q-114 0 -207 41l31 231
q53 -16 106 -16q61 0 100 42.5t39 137.5v1090h287v-1139q0 -177 -96.5 -282t-259.5 -105z" />
    <glyph glyph-name="uni01CA" unicode="&#x1ca;" horiz-adv-x="2588" 
d="M449 0h-291v1434h301l588 -922v922h290v-1434h-303l-585 922v-922zM1952 -31q-249 0 -410 148l146 233q107 -90 241 -90q106 0 165.5 67.5t59.5 194.5v912h304v-916q0 -143 -41 -251.5t-113 -172t-160.5 -94.5t-191.5 -31z" />
    <glyph glyph-name="uni01CB" unicode="&#x1cb;" horiz-adv-x="2070" 
d="M1798 1171q-72 0 -123 49t-51 121q0 70 51 120t123 50q70 0 121 -50t51 -120q0 -71 -51 -120.5t-121 -49.5zM449 0h-291v1434h301l588 -922v922h290v-1434h-303l-585 922v-922zM1583 -512q-114 0 -207 41l31 231q53 -16 106 -16q61 0 100.5 42.5t39.5 137.5v1090h286
v-1139q0 -177 -96.5 -282t-259.5 -105z" />
    <glyph glyph-name="uni01CC" unicode="&#x1cc;" horiz-adv-x="1843" 
d="M1571 1171q-72 0 -123 49t-51 121q0 70 51 120t123 50q70 0 121 -50t51 -120q0 -71 -51 -120.5t-121 -49.5zM416 0h-287v1014h287v-117q124 137 321 137q184 0 301 -122.5t117 -358.5v-553h-287v510q0 128 -57.5 202t-161.5 74q-109 0 -171 -76t-62 -202v-508zM1356 -512
q-114 0 -207 41l31 231q53 -16 106 -16q61 0 100 42.5t39 137.5v1090h287v-1139q0 -177 -96.5 -282t-259.5 -105z" />
    <glyph glyph-name="uni01CD" unicode="&#x1cd;" horiz-adv-x="1355" 
d="M1075 1948l-280 -387h-242l-281 387h269l133 -201l133 201h268zM1331 0h-317l-82 270h-510l-80 -270h-317l469 1434h362zM674 1110l-174 -582h354l-176 582h-4z" />
    <glyph glyph-name="uni01CE" unicode="&#x1ce;" horiz-adv-x="1286" 
d="M737 1141h-241l-281 387h268l133 -201l134 201h268zM547 -20q-137 0 -247 70t-171 190.5t-61 267.5t61 267t171 189.5t247 69.5q201 0 323 -139v119h287v-1014h-287v119q-122 -139 -323 -139zM612 233q109 0 183.5 78.5t74.5 196.5q0 117 -74.5 195.5t-183.5 78.5
t-183.5 -78.5t-74.5 -195.5q0 -118 74.5 -196.5t183.5 -78.5z" />
    <glyph glyph-name="uni01CF" unicode="&#x1cf;" horiz-adv-x="614" 
d="M428 1561h-242l-280 387h268l133 -201l133 201h269zM459 0h-301v1434h301v-1434z" />
    <glyph glyph-name="uni01D0" unicode="&#x1d0;" horiz-adv-x="546" 
d="M395 1141h-241l-281 387h268l133 -201l134 201h268zM416 0h-287v1014h287v-1014z" />
    <glyph glyph-name="uni01D1" unicode="&#x1d1;" horiz-adv-x="1640" 
d="M942 1561h-242l-280 387h268l133 -201l133 201h269zM821 -31q-206 0 -376 99.5t-266.5 271t-96.5 377.5t96.5 377.5t266.5 270.5t376 99q154 0 291 -58.5t235 -158t155 -238t57 -292.5t-57 -292.5t-155 -238.5t-235 -158.5t-291 -58.5zM819 256q189 0 313.5 131
t124.5 330t-124.5 330t-313.5 131q-188 0 -312 -131t-124 -330t124 -330t312 -131z" />
    <glyph glyph-name="uni01D2" unicode="&#x1d2;" horiz-adv-x="1234" 
d="M737 1141h-241l-281 387h268l133 -201l134 201h268zM616 -25q-234 0 -391 152.5t-157 378.5q0 110 42 208.5t114.5 169.5t174.5 112.5t217 41.5q154 0 280.5 -70.5t198.5 -192.5t72 -269q0 -148 -72 -270t-198.5 -191.5t-280.5 -69.5zM616 229q116 0 192.5 78t76.5 199
t-76.5 199.5t-192.5 78.5t-191 -78.5t-75 -199.5t75 -199t191 -78z" />
    <glyph glyph-name="uni01D3" unicode="&#x1d3;" horiz-adv-x="1441" 
d="M842 1561h-242l-281 387h269l133 -201l133 201h268zM721 -31q-126 0 -233 41t-186 119t-124 197.5t-45 269.5v838h301v-826q0 -174 79.5 -263t207.5 -89q129 0 208 89t79 263v826h301v-838q0 -150 -44.5 -269.5t-123.5 -197.5t-186 -119t-234 -41z" />
    <glyph glyph-name="uni01D4" unicode="&#x1d4;" horiz-adv-x="1267" 
d="M745 1141h-241l-281 387h269l133 -201l133 201h268zM530 -20q-89 0 -163.5 29.5t-132 87t-89.5 151t-32 213.5v553h286v-516q0 -133 59.5 -202t162.5 -69q98 0 164.5 74.5t66.5 198.5v514h287v-1014h-287v127q-121 -147 -322 -147z" />
    <glyph glyph-name="uni01D5" unicode="&#x1d5;" horiz-adv-x="1441" 
d="M406 2222h630v-242h-630v242zM721 1874q6 2 18 2q53 0 92 -38.5t39 -92.5t-39 -92.5t-92 -38.5q-12 0 -18 2q-6 -2 -19 -2q-53 0 -91 38.5t-38 92.5t38 92.5t91 38.5q13 0 19 -2zM1008 608v826h301v-838q0 -150 -44.5 -269.5t-123.5 -197.5t-186 -119t-234 -41
q-126 0 -233 41t-186 119t-124 197.5t-45 269.5v838h301v-826q0 -174 79.5 -263t207.5 -89q129 0 208 89t79 263z" />
    <glyph glyph-name="uni01D6" unicode="&#x1d6;" horiz-adv-x="1267" 
d="M940 1599h-631v242h631v-242zM412 1171q-66 0 -114 48.5t-48 115.5t48 115.5t114 48.5q67 0 115 -48t48 -116t-48 -116t-115 -48zM838 1171q-66 0 -114 48.5t-48 115.5t48 115.5t114 48.5q67 0 114 -48t47 -116t-47 -116t-114 -48zM530 -20q-89 0 -163.5 29.5t-132 87
t-89.5 151t-32 213.5v553h286v-516q0 -133 59.5 -202t162.5 -69q98 0 164.5 74.5t66.5 198.5v514h287v-1014h-287v127q-121 -147 -322 -147z" />
    <glyph glyph-name="uni01D7" unicode="&#x1d7;" horiz-adv-x="1441" 
d="M846 1948h-244l111 276h313zM508 1591q-66 0 -114 48.5t-48 115.5t48 115.5t114 48.5q68 0 116 -48.5t48 -115.5t-48 -115.5t-116 -48.5zM934 1591q-66 0 -114 48.5t-48 115.5t48 115.5t114 48.5q67 0 114.5 -48t47.5 -116t-47.5 -116t-114.5 -48zM721 -31
q-126 0 -233 41t-186 119t-124 197.5t-45 269.5v838h301v-826q0 -174 79.5 -263t207.5 -89q129 0 208 89t79 263v826h301v-838q0 -150 -44.5 -269.5t-123.5 -197.5t-186 -119t-234 -41z" />
    <glyph glyph-name="uni01D8" unicode="&#x1d8;" horiz-adv-x="1267" 
d="M752 1528h-244l110 276h314zM412 1171q-66 0 -114 48.5t-48 115.5t48 115.5t114 48.5q67 0 115 -48t48 -116t-48 -116t-115 -48zM838 1171q-66 0 -114 48.5t-48 115.5t48 115.5t114 48.5q67 0 114 -48t47 -116t-47 -116t-114 -48zM530 -20q-89 0 -163.5 29.5t-132 87
t-89.5 151t-32 213.5v553h286v-516q0 -133 59.5 -202t162.5 -69q98 0 164.5 74.5t66.5 198.5v514h287v-1014h-287v127q-121 -147 -322 -147z" />
    <glyph glyph-name="uni01D9" unicode="&#x1d9;" horiz-adv-x="1441" 
d="M827 1921h-211l-229 322h234l100 -158l102 158h234zM508 1591q-66 0 -114 48.5t-48 115.5t48 115.5t114 48.5q68 0 116 -48.5t48 -115.5t-48 -115.5t-116 -48.5zM934 1591q-66 0 -114 48.5t-48 115.5t48 115.5t114 48.5q67 0 114.5 -48t47.5 -116t-47.5 -116t-114.5 -48z
M721 -31q-126 0 -233 41t-186 119t-124 197.5t-45 269.5v838h301v-826q0 -174 79.5 -263t207.5 -89q129 0 208 89t79 263v826h301v-838q0 -150 -44.5 -269.5t-123.5 -197.5t-186 -119t-234 -41z" />
    <glyph glyph-name="uni01DA" unicode="&#x1da;" horiz-adv-x="1267" 
d="M731 1501h-211l-229 322h233l101 -158l102 158h234zM412 1171q-66 0 -114 48.5t-48 115.5t48 115.5t114 48.5q67 0 115 -48t48 -116t-48 -116t-115 -48zM838 1171q-66 0 -114 48.5t-48 115.5t48 115.5t114 48.5q67 0 114 -48t47 -116t-47 -116t-114 -48zM530 -20
q-89 0 -163.5 29.5t-132 87t-89.5 151t-32 213.5v553h286v-516q0 -133 59.5 -202t162.5 -69q98 0 164.5 74.5t66.5 198.5v514h287v-1014h-287v127q-121 -147 -322 -147z" />
    <glyph glyph-name="uni01DB" unicode="&#x1db;" horiz-adv-x="1441" 
d="M840 1948h-242l-182 276h315zM508 1591q-66 0 -114 48.5t-48 115.5t48 115.5t114 48.5q68 0 116 -48.5t48 -115.5t-48 -115.5t-116 -48.5zM934 1591q-66 0 -114 48.5t-48 115.5t48 115.5t114 48.5q67 0 114.5 -48t47.5 -116t-47.5 -116t-114.5 -48zM721 -31
q-126 0 -233 41t-186 119t-124 197.5t-45 269.5v838h301v-826q0 -174 79.5 -263t207.5 -89q129 0 208 89t79 263v826h301v-838q0 -150 -44.5 -269.5t-123.5 -197.5t-186 -119t-234 -41z" />
    <glyph glyph-name="uni01DC" unicode="&#x1dc;" horiz-adv-x="1267" 
d="M743 1528h-241l-183 276h316zM412 1171q-66 0 -114 48.5t-48 115.5t48 115.5t114 48.5q67 0 115 -48t48 -116t-48 -116t-115 -48zM838 1171q-66 0 -114 48.5t-48 115.5t48 115.5t114 48.5q67 0 114 -48t47 -116t-47 -116t-114 -48zM530 -20q-89 0 -163.5 29.5t-132 87
t-89.5 151t-32 213.5v553h286v-516q0 -133 59.5 -202t162.5 -69q98 0 164.5 74.5t66.5 198.5v514h287v-1014h-287v127q-121 -147 -322 -147z" />
    <glyph glyph-name="uni01DD" unicode="&#x1dd;" horiz-adv-x="1150" 
d="M567 1038q145 0 261.5 -64t185.5 -187t69 -283q0 -231 -147 -380t-375 -149q-214 0 -359 141t-145 369q0 55 11 119h731q-24 92 -89.5 142.5t-148.5 50.5q-77 0 -143.5 -30.5t-114.5 -82.5l-168 162q82 93 193 142.5t239 49.5zM563 213q90 0 153 53.5t85 147.5h-465
q22 -94 81.5 -147.5t145.5 -53.5z" />
    <glyph glyph-name="uni01DE" unicode="&#x1de;" horiz-adv-x="1355" 
d="M358 2222h631v-242h-631v242zM676 1874q6 2 18 2q53 0 92 -38.5t39 -92.5t-39 -92.5t-92 -38.5q-12 0 -18 2q-6 -2 -19 -2q-53 0 -91 38.5t-38 92.5t38 92.5t91 38.5q13 0 19 -2zM1331 0h-317l-82 270h-510l-80 -270h-317l469 1434h362zM674 1110l-174 -582h354l-176 582
h-4z" />
    <glyph glyph-name="uni01DF" unicode="&#x1df;" horiz-adv-x="1286" 
d="M932 1599h-631v242h631v-242zM403 1171q-66 0 -113.5 48.5t-47.5 115.5t47.5 115.5t113.5 48.5q67 0 115.5 -48.5t48.5 -115.5t-48.5 -115.5t-115.5 -48.5zM829 1171q-66 0 -113.5 48.5t-47.5 115.5t47.5 115.5t113.5 48.5q67 0 114.5 -48t47.5 -116t-47.5 -116
t-114.5 -48zM547 -20q-137 0 -247 70t-171 190.5t-61 267.5t61 267t171 189.5t247 69.5q201 0 323 -139v119h287v-1014h-287v119q-122 -139 -323 -139zM612 233q109 0 183.5 78.5t74.5 196.5q0 117 -74.5 195.5t-183.5 78.5t-183.5 -78.5t-74.5 -195.5q0 -118 74.5 -196.5
t183.5 -78.5z" />
    <glyph glyph-name="uni01E0" unicode="&#x1e0;" horiz-adv-x="1355" 
d="M358 2173h631v-242h-631v242zM545 1716q0 53 37.5 90t91.5 37q51 0 89 -37.5t38 -89.5t-37.5 -88.5t-89.5 -36.5q-54 0 -91.5 36.5t-37.5 88.5zM1331 0h-317l-82 270h-510l-80 -270h-317l469 1434h362zM674 1110l-174 -582h354l-176 582h-4z" />
    <glyph glyph-name="uni01E1" unicode="&#x1e1;" horiz-adv-x="1286" 
d="M932 1511h-631v242h631v-242zM618 1171q-54 0 -91.5 36.5t-37.5 88.5q0 53 37.5 90t91.5 37q51 0 89 -37.5t38 -89.5t-37.5 -88.5t-89.5 -36.5zM547 -20q-137 0 -247 70t-171 190.5t-61 267.5t61 267t171 189.5t247 69.5q201 0 323 -139v119h287v-1014h-287v119
q-122 -139 -323 -139zM612 233q109 0 183.5 78.5t74.5 196.5q0 117 -74.5 195.5t-183.5 78.5t-183.5 -78.5t-74.5 -195.5q0 -118 74.5 -196.5t183.5 -78.5z" />
    <glyph glyph-name="uni01E2" unicode="&#x1e2;" horiz-adv-x="2019" 
d="M764 1874h631v-242h-631v242zM1921 1434v-285h-627v-311h557v-238h-557v-313h627v-287h-928v283h-495l-131 -283h-342l680 1434h1216zM616 541h377v608h-94z" />
    <glyph glyph-name="uni01E3" unicode="&#x1e3;" horiz-adv-x="1808" 
d="M610 1454h631v-242h-631v242zM1278 1038q99 0 184 -32t150 -93.5t102 -161t37 -225.5q0 -59 -10 -114h-701q23 -104 92.5 -154.5t161.5 -50.5q71 0 131.5 28.5t98.5 75.5l166 -159q-70 -89 -171.5 -136t-220.5 -47q-129 0 -237 52t-176 151q-59 -102 -164 -152.5
t-236 -50.5q-115 0 -205 35t-145 108.5t-55 176.5q0 86 36.5 148t100 95.5t137 48.5t160.5 15h234q-4 97 -60.5 143.5t-144.5 46.5q-129 0 -285 -86l-125 201q214 137 445 137q229 0 340 -161q66 76 158.5 118.5t201.5 42.5zM1270 805q-83 0 -147 -56t-85 -153h449
q-18 102 -75.5 155.5t-141.5 53.5zM512 195q108 0 172 57t64 156v10h-226q-71 0 -116.5 -24.5t-45.5 -80.5t44.5 -87t107.5 -31z" />
    <glyph glyph-name="uni01E4" unicode="&#x1e4;" horiz-adv-x="1626" 
d="M1460 647h146v-188h-146v-156q-90 -156 -252.5 -245t-392.5 -89q-202 0 -369 93.5t-265.5 265.5t-98.5 389q0 160 56 299.5t153 237.5t233.5 154t292.5 56q208 0 362.5 -88.5t247.5 -232.5l-223 -172q-64 101 -164 157t-223 56q-186 0 -312 -133t-126 -334
q0 -205 129.5 -334t318.5 -129q233 0 344 139v66h-145v188h145v109h289v-109z" />
    <glyph glyph-name="uni01E5" unicode="&#x1e5;" horiz-adv-x="1314" 
d="M1153 -23h135v-202h-178q-43 -104 -125 -174.5t-183.5 -101.5t-223.5 -31q-148 0 -275 48t-203 124l152 208q135 -116 321 -116q102 0 179 45v200h114q2 12 2 37v105q-122 -139 -321 -139q-137 0 -247 70t-171 190.5t-61 267.5t61 267t171 189.5t247 69.5q199 0 321 -139
v119h287v-989q0 -34 -2 -48zM610 233q109 0 183.5 78.5t74.5 196.5q0 117 -74.5 195.5t-183.5 78.5q-108 0 -182 -79t-74 -195q0 -118 74 -196.5t182 -78.5z" />
    <glyph glyph-name="Gcaron" unicode="&#x1e6;" horiz-adv-x="1568" 
d="M930 1561h-242l-280 387h268l133 -201l133 201h268zM815 -31q-202 0 -369 93.5t-265.5 265.5t-98.5 389q0 160 56 299.5t153 237.5t233.5 154t292.5 56q208 0 362.5 -88.5t247.5 -232.5l-223 -172q-64 101 -164 157t-223 56q-186 0 -312 -133t-126 -334
q0 -205 129.5 -334t318.5 -129q228 0 344 162v131h-297v248h586v-471q-91 -164 -253.5 -259.5t-391.5 -95.5z" />
    <glyph glyph-name="gcaron" unicode="&#x1e7;" horiz-adv-x="1284" 
d="M733 1141h-241l-281 387h268l133 -201l133 201h269zM578 -532q-148 0 -275 48t-203 124l152 208q135 -116 321 -116q57 0 107 15t93.5 46.5t69 88t25.5 132.5v105q-122 -139 -321 -139q-137 0 -247 70t-171 190.5t-61 267.5t61 267t171 189.5t247 69.5q199 0 321 -139
v119h287v-989q0 -116 -30 -209.5t-82.5 -157.5t-126 -107.5t-158 -63t-180.5 -19.5zM610 233q109 0 183.5 78.5t74.5 196.5q0 117 -74.5 195.5t-183.5 78.5q-108 0 -182 -79t-74 -195q0 -118 74 -196.5t182 -78.5z" />
    <glyph glyph-name="uni01E8" unicode="&#x1e8;" horiz-adv-x="1392" 
d="M838 1561h-242l-281 387h269l133 -201l133 201h268zM459 0h-301v1434h301v-574h176l356 574h369l-467 -713l489 -721h-370l-375 573h-178v-573z" />
    <glyph glyph-name="uni01E9" unicode="&#x1e9;" horiz-adv-x="1173" 
d="M395 1663h-241l-281 387h268l133 -201l134 201h268zM416 0h-287v1536h287v-891h153l250 369h346l-352 -502l352 -512h-340l-258 373h-151v-373z" />
    <glyph glyph-name="uni01EA" unicode="&#x1ea;" horiz-adv-x="1640" 
d="M1024 -4q-75 -41 -121.5 -94t-46.5 -103q0 -46 33.5 -70t93.5 -24q35 0 66 8v-196q-54 -13 -119 -13q-116 0 -194.5 59.5t-78.5 176.5q0 129 117 231q-146 8 -275 70t-220.5 161t-144 233t-52.5 282q0 206 96.5 377.5t266.5 270.5t376 99q154 0 291 -58.5t235 -158
t155 -238t57 -292.5q0 -258 -149 -456t-386 -265zM383 717q0 -199 124 -330t312 -131q189 0 313.5 131t124.5 330t-124.5 330t-313.5 131q-188 0 -312 -131t-124 -330z" />
    <glyph glyph-name="uni01EB" unicode="&#x1eb;" horiz-adv-x="1234" 
d="M772 -4q-74 -41 -120 -94t-46 -103q0 -46 33.5 -70t93.5 -24q35 0 66 8v-196q-54 -13 -119 -13q-115 0 -193.5 59.5t-78.5 176.5q0 72 36 134.5t93 107.5q-205 26 -337 172.5t-132 351.5q0 110 42 208.5t114.5 169.5t174.5 112.5t217 41.5q154 0 280.5 -70.5
t198.5 -192.5t72 -269q0 -186 -109 -325t-286 -185zM350 506q0 -121 75 -199t191 -78t192.5 78t76.5 199t-76.5 199.5t-192.5 78.5t-191 -78.5t-75 -199.5z" />
    <glyph glyph-name="uni01EC" unicode="&#x1ec;" horiz-adv-x="1640" 
d="M506 1874h631v-242h-631v242zM1024 -4q-75 -41 -121.5 -94t-46.5 -103q0 -46 33.5 -70t93.5 -24q35 0 66 8v-196q-54 -13 -119 -13q-116 0 -194.5 59.5t-78.5 176.5q0 129 117 231q-146 8 -275 70t-220.5 161t-144 233t-52.5 282q0 206 96.5 377.5t266.5 270.5t376 99
q154 0 291 -58.5t235 -158t155 -238t57 -292.5q0 -258 -149 -456t-386 -265zM383 717q0 -199 124 -330t312 -131q189 0 313.5 131t124.5 330t-124.5 330t-313.5 131q-188 0 -312 -131t-124 -330z" />
    <glyph glyph-name="uni01ED" unicode="&#x1ed;" horiz-adv-x="1234" 
d="M299 1454h631v-242h-631v242zM772 -4q-74 -41 -120 -94t-46 -103q0 -46 33.5 -70t93.5 -24q35 0 66 8v-196q-54 -13 -119 -13q-115 0 -193.5 59.5t-78.5 176.5q0 72 36 134.5t93 107.5q-205 26 -337 172.5t-132 351.5q0 110 42 208.5t114.5 169.5t174.5 112.5t217 41.5
q154 0 280.5 -70.5t198.5 -192.5t72 -269q0 -186 -109 -325t-286 -185zM350 506q0 -121 75 -199t191 -78t192.5 78t76.5 199t-76.5 199.5t-192.5 78.5t-191 -78.5t-75 -199.5z" />
    <glyph glyph-name="uni01EE" unicode="&#x1ee;" horiz-adv-x="1163" 
d="M969 1948l-281 -387h-242l-280 387h268l133 -201l133 201h269zM1004 1165l-281 -323q170 -24 262 -133.5t92 -278.5q0 -215 -138 -338t-384 -123q-154 0 -285 48t-215 120l140 225q154 -114 340 -114q118 0 185.5 51.5t67.5 144.5q0 96 -65.5 143.5t-177.5 47.5h-139v209
l284 321h-555v269h869v-269z" />
    <glyph glyph-name="uni01EF" unicode="&#x1ef;" horiz-adv-x="1052" 
d="M922 1528l-281 -387h-242l-280 387h268l133 -201l133 201h269zM936 741l-309 -335q168 -26 269 -137t101 -294q0 -142 -66.5 -247.5t-182 -159t-263.5 -53.5q-271 0 -444 151l135 219q52 -45 130 -73.5t155 -28.5q112 0 181 56t69 159q0 95 -67 148t-193 53h-140v213
l314 338h-519v264h830v-273z" />
    <glyph glyph-name="uni01F0" unicode="&#x1f0;" horiz-adv-x="575" 
d="M424 1141h-242l-280 387h268l133 -201l133 201h269zM88 -512q-114 0 -207 41l31 231q53 -16 106 -16q61 0 100.5 42.5t39.5 137.5v1090h286v-1139q0 -177 -96.5 -282t-259.5 -105z" />
    <glyph glyph-name="uni01F1" unicode="&#x1f1;" horiz-adv-x="2598" 
d="M680 0h-522v1434h522q333 0 530 -194.5t197 -520.5t-197.5 -522.5t-529.5 -196.5zM2527 0h-985v270l598 881h-594v283h955v-271l-598 -880h624v-283zM459 1155v-876h211q199 0 317.5 115.5t118.5 324.5q0 207 -118 321.5t-318 114.5h-211z" />
    <glyph glyph-name="uni01F2" unicode="&#x1f2;" horiz-adv-x="2484" 
d="M680 0h-522v1434h522q333 0 530 -194.5t197 -520.5t-197.5 -522.5t-529.5 -196.5zM459 1155v-876h211q199 0 317.5 115.5t118.5 324.5q0 207 -118 321.5t-318 114.5h-211zM2400 0h-837v236l471 536h-451v242h803v-236l-471 -536h485v-242z" />
    <glyph glyph-name="uni01F3" unicode="&#x1f3;" horiz-adv-x="2291" 
d="M547 -20q-137 0 -247 70t-171 190.5t-61 267.5t61 267t171 189.5t247 69.5q201 0 323 -139v641h287v-1536h-287v119q-122 -139 -323 -139zM2208 0h-838v236l471 536h-450v242h802v-236l-471 -536h486v-242zM612 233q109 0 183.5 78.5t74.5 196.5q0 117 -74.5 195.5
t-183.5 78.5t-183.5 -78.5t-74.5 -195.5q0 -118 74.5 -196.5t183.5 -78.5z" />
    <glyph glyph-name="uni01F4" unicode="&#x1f4;" horiz-adv-x="1568" 
d="M934 1561h-244l154 387h315zM815 -31q-202 0 -369 93.5t-265.5 265.5t-98.5 389q0 160 56 299.5t153 237.5t233.5 154t292.5 56q208 0 362.5 -88.5t247.5 -232.5l-223 -172q-64 101 -164 157t-223 56q-186 0 -312 -133t-126 -334q0 -205 129.5 -334t318.5 -129
q228 0 344 162v131h-297v248h586v-471q-91 -164 -253.5 -259.5t-391.5 -95.5z" />
    <glyph glyph-name="uni01F5" unicode="&#x1f5;" horiz-adv-x="1284" 
d="M739 1141h-243l153 387h316zM578 -532q-148 0 -275 48t-203 124l152 208q135 -116 321 -116q57 0 107 15t93.5 46.5t69 88t25.5 132.5v105q-122 -139 -321 -139q-137 0 -247 70t-171 190.5t-61 267.5t61 267t171 189.5t247 69.5q199 0 321 -139v119h287v-989
q0 -116 -30 -209.5t-82.5 -157.5t-126 -107.5t-158 -63t-180.5 -19.5zM610 233q109 0 183.5 78.5t74.5 196.5q0 117 -74.5 195.5t-183.5 78.5q-108 0 -182 -79t-74 -195q0 -118 74 -196.5t182 -78.5z" />
    <glyph glyph-name="uni01F8" unicode="&#x1f8;" horiz-adv-x="1495" 
d="M870 1561h-243l-238 387h311zM449 0h-291v1434h301l588 -922v922h290v-1434h-303l-585 922v-922z" />
    <glyph glyph-name="uni01F9" unicode="&#x1f9;" horiz-adv-x="1267" 
d="M772 1141h-244l-237 387h311zM416 0h-287v1014h287v-117q124 137 321 137q184 0 301 -122.5t117 -358.5v-553h-287v510q0 128 -57.5 202t-161.5 74q-109 0 -171 -76t-62 -202v-508z" />
    <glyph glyph-name="Aringacute" unicode="&#x1fa;" horiz-adv-x="1355" 
d="M649 2161h275l-146 -217h-215zM674 1489q-95 0 -161.5 60.5t-66.5 154.5q0 92 66.5 152.5t161.5 60.5q94 0 160.5 -60.5t66.5 -152.5q0 -93 -66.5 -154t-160.5 -61zM674 1774q-29 0 -49.5 -21.5t-20.5 -52.5q0 -29 20.5 -49.5t49.5 -20.5t49 20.5t20 49.5q0 31 -20 52.5
t-49 21.5zM1331 0h-317l-82 270h-510l-80 -270h-317l469 1434h362zM674 1110l-174 -582h354l-176 582h-4z" />
    <glyph glyph-name="aringacute" unicode="&#x1fb;" horiz-adv-x="1286" 
d="M721 1524h-215l86 217h274zM616 1069q-95 0 -161 60.5t-66 154.5q0 92 66 152.5t161 60.5q94 0 161 -60.5t67 -152.5q0 -93 -67 -154t-161 -61zM616 1210q29 0 49.5 20.5t20.5 49.5q0 31 -20.5 52.5t-49.5 21.5t-49 -21.5t-20 -52.5q0 -29 20 -49.5t49 -20.5zM547 -20
q-137 0 -247 70t-171 190.5t-61 267.5t61 267t171 189.5t247 69.5q201 0 323 -139v119h287v-1014h-287v119q-122 -139 -323 -139zM612 233q109 0 183.5 78.5t74.5 196.5q0 117 -74.5 195.5t-183.5 78.5t-183.5 -78.5t-74.5 -195.5q0 -118 74.5 -196.5t183.5 -78.5z" />
    <glyph glyph-name="AEacute" unicode="&#x1fc;" horiz-adv-x="2019" 
d="M1116 1948h316l-226 -387h-243zM1921 1434v-285h-627v-311h557v-238h-557v-313h627v-287h-928v283h-495l-131 -283h-342l680 1434h1216zM616 541h377v608h-94z" />
    <glyph glyph-name="aeacute" unicode="&#x1fd;" horiz-adv-x="1808" 
d="M961 1528h315l-225 -387h-244zM1278 1038q99 0 184 -32t150 -93.5t102 -161t37 -225.5q0 -59 -10 -114h-701q23 -104 92.5 -154.5t161.5 -50.5q71 0 131.5 28.5t98.5 75.5l166 -159q-70 -89 -171.5 -136t-220.5 -47q-129 0 -237 52t-176 151q-59 -102 -164 -152.5
t-236 -50.5q-115 0 -205 35t-145 108.5t-55 176.5q0 86 36.5 148t100 95.5t137 48.5t160.5 15h234q-4 97 -60.5 143.5t-144.5 46.5q-129 0 -285 -86l-125 201q214 137 445 137q229 0 340 -161q66 76 158.5 118.5t201.5 42.5zM1270 805q-83 0 -147 -56t-85 -153h449
q-18 102 -75.5 155.5t-141.5 53.5zM512 195q108 0 172 57t64 156v10h-226q-71 0 -116.5 -24.5t-45.5 -80.5t44.5 -87t107.5 -31z" />
    <glyph glyph-name="Oslashacute" unicode="&#x1fe;" horiz-adv-x="1640" 
d="M856 1948h315l-225 -387h-244zM1450 1542l-152 -250q122 -103 191.5 -253t69.5 -322q0 -154 -57 -292.5t-155 -238.5t-235 -158.5t-291 -58.5q-157 0 -295 60l-84 -138h-254l154 250q-123 104 -191.5 253.5t-68.5 322.5q0 206 96.5 377.5t266.5 270.5t376 99
q155 0 291 -57l84 135h254zM383 717q0 -189 115 -320l463 758q-74 23 -142 23q-188 0 -312 -131t-124 -330zM819 256q189 0 313.5 131t124.5 330q0 192 -114 319l-465 -757q74 -23 141 -23z" />
    <glyph glyph-name="oslashacute" unicode="&#x1ff;" horiz-adv-x="1234" 
d="M651 1528h316l-226 -387h-243zM1106 1133l-133 -218q92 -73 143 -179.5t51 -229.5q0 -148 -72 -270t-198.5 -191.5t-280.5 -69.5q-97 0 -198 33l-78 -125h-213l131 215q-90 73 -140 178.5t-50 229.5q0 110 42 208.5t114.5 169.5t174.5 112.5t217 41.5q99 0 197 -32
l78 127h215zM350 506q0 -101 53 -172l271 444q-27 6 -58 6q-116 0 -191 -78.5t-75 -199.5zM616 229q116 0 192.5 78t76.5 199q0 101 -56 176l-274 -446q35 -7 61 -7z" />
    <glyph glyph-name="uni0200" unicode="&#x200;" horiz-adv-x="1355" 
d="M432 1948l166 -387h-205l-229 387h268zM786 1948l168 -387h-204l-230 387h266zM1331 0h-317l-82 270h-510l-80 -270h-317l469 1434h362zM674 1110l-174 -582h354l-176 582h-4z" />
    <glyph glyph-name="uni0201" unicode="&#x201;" horiz-adv-x="1286" 
d="M541 1141h-205l-230 387h269zM897 1141h-205l-229 387h266zM547 -20q-137 0 -247 70t-171 190.5t-61 267.5t61 267t171 189.5t247 69.5q201 0 323 -139v119h287v-1014h-287v119q-122 -139 -323 -139zM612 233q109 0 183.5 78.5t74.5 196.5q0 117 -74.5 195.5t-183.5 78.5
t-183.5 -78.5t-74.5 -195.5q0 -118 74.5 -196.5t183.5 -78.5z" />
    <glyph glyph-name="uni0202" unicode="&#x202;" horiz-adv-x="1355" 
d="M674 1751q-72 0 -110 -51t-38 -133h-204q0 173 91.5 274t260.5 101q168 0 260 -101t92 -274h-207q0 82 -37 133t-108 51zM1331 0h-317l-82 270h-510l-80 -270h-317l469 1434h362zM674 1110l-174 -582h354l-176 582h-4z" />
    <glyph glyph-name="uni0203" unicode="&#x203;" horiz-adv-x="1286" 
d="M469 1147h-205q0 173 91.5 274t260.5 101q168 0 260.5 -101t92.5 -274h-207q0 82 -37.5 133t-108.5 51q-72 0 -109.5 -51t-37.5 -133zM547 -20q-137 0 -247 70t-171 190.5t-61 267.5t61 267t171 189.5t247 69.5q201 0 323 -139v119h287v-1014h-287v119
q-122 -139 -323 -139zM612 233q109 0 183.5 78.5t74.5 196.5q0 117 -74.5 195.5t-183.5 78.5t-183.5 -78.5t-74.5 -195.5q0 -118 74.5 -196.5t183.5 -78.5z" />
    <glyph glyph-name="uni0204" unicode="&#x204;" horiz-adv-x="1214" 
d="M561 1561h-205l-229 387h268zM918 1561h-205l-230 387h267zM1116 0h-958v1434h958v-285h-657v-297h581v-256h-581v-311h657v-285z" />
    <glyph glyph-name="uni0205" unicode="&#x205;" horiz-adv-x="1148" 
d="M348 1528l166 -387h-205l-229 387h268zM702 1528l168 -387h-204l-230 387h266zM588 1038q141 0 254 -59t180.5 -177t67.5 -276q0 -64 -15 -120h-719q27 -90 97.5 -141.5t160.5 -51.5q156 0 244 117l168 -162q-71 -93 -177.5 -143t-240.5 -50q-151 0 -273 64t-194.5 186
t-72.5 281q0 233 146.5 382.5t373.5 149.5zM588 803q-89 0 -152.5 -54t-85.5 -149h465q-20 96 -80.5 149.5t-146.5 53.5z" />
    <glyph glyph-name="uni0206" unicode="&#x206;" horiz-adv-x="1214" 
d="M489 1567h-204q0 173 91.5 274t260.5 101q168 0 260 -101t92 -274h-207q0 82 -37 133t-108 51q-72 0 -110 -51t-38 -133zM1116 0h-958v1434h958v-285h-657v-297h581v-256h-581v-311h657v-285z" />
    <glyph glyph-name="uni0207" unicode="&#x207;" horiz-adv-x="1148" 
d="M590 1331q-72 0 -110 -51t-38 -133h-204q0 173 91.5 274t260.5 101q168 0 260 -101t92 -274h-207q0 82 -37 133t-108 51zM588 1038q141 0 254 -59t180.5 -177t67.5 -276q0 -64 -15 -120h-719q27 -90 97.5 -141.5t160.5 -51.5q156 0 244 117l168 -162q-71 -93 -177.5 -143
t-240.5 -50q-151 0 -273 64t-194.5 186t-72.5 281q0 233 146.5 382.5t373.5 149.5zM588 803q-89 0 -152.5 -54t-85.5 -149h465q-20 96 -80.5 149.5t-146.5 53.5z" />
    <glyph glyph-name="uni0208" unicode="&#x208;" horiz-adv-x="614" 
d="M231 1561h-204l-230 387h269zM588 1561h-205l-229 387h266zM459 0h-301v1434h301v-1434z" />
    <glyph glyph-name="uni0209" unicode="&#x209;" horiz-adv-x="546" 
d="M197 1141h-205l-230 387h269zM553 1141h-205l-229 387h266zM416 0h-287v1014h287v-1014z" />
    <glyph glyph-name="uni020A" unicode="&#x20a;" horiz-adv-x="614" 
d="M160 1567h-205q0 173 91.5 274t260.5 101q168 0 260 -101t92 -274h-206q0 82 -37.5 133t-108.5 51q-72 0 -109.5 -51t-37.5 -133zM459 0h-301v1434h301v-1434z" />
    <glyph glyph-name="uni020B" unicode="&#x20b;" horiz-adv-x="546" 
d="M127 1147h-205q0 173 91.5 274t260.5 101q168 0 260.5 -101t92.5 -274h-207q0 82 -37.5 133t-108.5 51q-72 0 -109.5 -51t-37.5 -133zM416 0h-287v1014h287v-1014z" />
    <glyph glyph-name="uni020C" unicode="&#x20c;" horiz-adv-x="1640" 
d="M745 1561h-204l-230 387h269zM1102 1561h-205l-229 387h266zM821 -31q-206 0 -376 99.5t-266.5 271t-96.5 377.5t96.5 377.5t266.5 270.5t376 99q154 0 291 -58.5t235 -158t155 -238t57 -292.5t-57 -292.5t-155 -238.5t-235 -158.5t-291 -58.5zM819 256q189 0 313.5 131
t124.5 330t-124.5 330t-313.5 131q-188 0 -312 -131t-124 -330t124 -330t312 -131z" />
    <glyph glyph-name="uni020D" unicode="&#x20d;" horiz-adv-x="1234" 
d="M541 1141h-205l-230 387h269zM897 1141h-205l-229 387h266zM616 -25q-234 0 -391 152.5t-157 378.5q0 110 42 208.5t114.5 169.5t174.5 112.5t217 41.5q154 0 280.5 -70.5t198.5 -192.5t72 -269q0 -148 -72 -270t-198.5 -191.5t-280.5 -69.5zM616 229q116 0 192.5 78
t76.5 199t-76.5 199.5t-192.5 78.5t-191 -78.5t-75 -199.5t75 -199t191 -78z" />
    <glyph glyph-name="uni020E" unicode="&#x20e;" horiz-adv-x="1640" 
d="M674 1567h-205q0 173 91.5 274t260.5 101q168 0 260.5 -101t92.5 -274h-207q0 82 -37.5 133t-108.5 51q-72 0 -109.5 -51t-37.5 -133zM821 -31q-206 0 -376 99.5t-266.5 271t-96.5 377.5t96.5 377.5t266.5 270.5t376 99q154 0 291 -58.5t235 -158t155 -238t57 -292.5
t-57 -292.5t-155 -238.5t-235 -158.5t-291 -58.5zM819 256q189 0 313.5 131t124.5 330t-124.5 330t-313.5 131q-188 0 -312 -131t-124 -330t124 -330t312 -131z" />
    <glyph glyph-name="uni020F" unicode="&#x20f;" horiz-adv-x="1234" 
d="M469 1147h-205q0 173 91.5 274t260.5 101q168 0 260.5 -101t92.5 -274h-207q0 82 -37.5 133t-108.5 51q-72 0 -109.5 -51t-37.5 -133zM616 -25q-234 0 -391 152.5t-157 378.5q0 110 42 208.5t114.5 169.5t174.5 112.5t217 41.5q154 0 280.5 -70.5t198.5 -192.5t72 -269
q0 -148 -72 -270t-198.5 -191.5t-280.5 -69.5zM616 229q116 0 192.5 78t76.5 199t-76.5 199.5t-192.5 78.5t-191 -78.5t-75 -199.5t75 -199t191 -78z" />
    <glyph glyph-name="uni0210" unicode="&#x210;" horiz-adv-x="1302" 
d="M377 1948l166 -387h-205l-229 387h268zM731 1948l168 -387h-205l-229 387h266zM940 528l291 -528h-334l-250 481h-188v-481h-301v1434h544q218 0 355 -127t137 -349q0 -157 -67 -266.5t-187 -163.5zM672 1167h-213v-422h213q104 0 164.5 58.5t60.5 152.5t-61 152.5
t-164 58.5z" />
    <glyph glyph-name="uni0211" unicode="&#x211;" horiz-adv-x="823" 
d="M399 1141h-204l-230 387h268zM756 1141h-205l-229 387h266zM416 0h-287v1014h287v-137q111 159 315 159q25 0 41 -2v-286q-27 2 -67 2q-128 0 -208.5 -87t-80.5 -243v-420z" />
    <glyph glyph-name="uni0212" unicode="&#x212;" horiz-adv-x="1302" 
d="M618 1751q-72 0 -109.5 -51t-37.5 -133h-205q0 173 91.5 274t260.5 101q168 0 260.5 -101t92.5 -274h-207q0 82 -37.5 133t-108.5 51zM940 528l291 -528h-334l-250 481h-188v-481h-301v1434h544q218 0 355 -127t137 -349q0 -157 -67 -266.5t-187 -163.5zM672 1167h-213
v-422h213q104 0 164.5 58.5t60.5 152.5t-61 152.5t-164 58.5z" />
    <glyph glyph-name="uni0213" unicode="&#x213;" horiz-adv-x="823" 
d="M328 1147h-205q0 173 91.5 274t260.5 101q168 0 260 -101t92 -274h-206q0 82 -37.5 133t-108.5 51q-72 0 -109.5 -51t-37.5 -133zM416 0h-287v1014h287v-137q111 159 315 159q25 0 41 -2v-286q-27 2 -67 2q-128 0 -208.5 -87t-80.5 -243v-420z" />
    <glyph glyph-name="uni0214" unicode="&#x214;" horiz-adv-x="1441" 
d="M645 1561h-205l-229 387h268zM1001 1561h-204l-230 387h267zM721 -31q-126 0 -233 41t-186 119t-124 197.5t-45 269.5v838h301v-826q0 -174 79.5 -263t207.5 -89q129 0 208 89t79 263v826h301v-838q0 -150 -44.5 -269.5t-123.5 -197.5t-186 -119t-234 -41z" />
    <glyph glyph-name="uni0215" unicode="&#x215;" horiz-adv-x="1267" 
d="M549 1141h-205l-229 387h268zM905 1141h-205l-229 387h266zM530 -20q-89 0 -163.5 29.5t-132 87t-89.5 151t-32 213.5v553h286v-516q0 -133 59.5 -202t162.5 -69q98 0 164.5 74.5t66.5 198.5v514h287v-1014h-287v127q-121 -147 -322 -147z" />
    <glyph glyph-name="uni0216" unicode="&#x216;" horiz-adv-x="1441" 
d="M573 1567h-204q0 173 91.5 274t260.5 101q168 0 260 -101t92 -274h-207q0 82 -37 133t-108 51q-72 0 -110 -51t-38 -133zM721 -31q-126 0 -233 41t-186 119t-124 197.5t-45 269.5v838h301v-826q0 -174 79.5 -263t207.5 -89q129 0 208 89t79 263v826h301v-838
q0 -150 -44.5 -269.5t-123.5 -197.5t-186 -119t-234 -41z" />
    <glyph glyph-name="uni0217" unicode="&#x217;" horiz-adv-x="1267" 
d="M477 1147h-205q0 173 92 274t261 101q168 0 260 -101t92 -274h-207q0 82 -37 133t-108 51q-72 0 -110 -51t-38 -133zM530 -20q-89 0 -163.5 29.5t-132 87t-89.5 151t-32 213.5v553h286v-516q0 -133 59.5 -202t162.5 -69q98 0 164.5 74.5t66.5 198.5v514h287v-1014h-287
v127q-121 -147 -322 -147z" />
    <glyph glyph-name="uni0218" unicode="&#x218;" horiz-adv-x="1142" 
d="M561 -31q-295 0 -510 164l152 242q77 -57 169 -90t181 -33q112 0 169.5 42.5t57.5 111.5q0 30 -13.5 55t-35 41.5t-56 31.5t-67.5 25.5t-78 23.5q-21 6 -32 9q-48 14 -86.5 27.5t-84 35t-81 45.5t-70 59t-56.5 75.5t-36 94t-14 115.5q0 185 141 302.5t369 117.5
q273 0 469 -141l-152 -238q-154 99 -313 99q-93 0 -149 -42.5t-56 -103.5q0 -50 44 -88t87.5 -53.5t144.5 -45.5l9 -3q81 -25 140.5 -49.5t116.5 -62t92.5 -82.5t57 -109t21.5 -144q0 -195 -142 -313.5t-389 -118.5zM539 -508h-234l137 385h289z" />
    <glyph glyph-name="uni0219" unicode="&#x219;" horiz-adv-x="964" 
d="M492 -25q-261 0 -433 127l119 193q65 -41 144.5 -63.5t152.5 -22.5q160 0 160 84q0 21 -11.5 36.5t-40.5 28t-58 21.5t-85 23q-10 3 -16 4q-56 14 -100 30t-89.5 43t-76 60t-49.5 82t-19 108q0 142 116.5 225.5t289.5 83.5q226 0 395 -108l-121 -195q-126 72 -258 72
q-60 0 -95.5 -22.5t-35.5 -55.5q0 -40 44.5 -62t150.5 -51q2 0 3 -0.5t2.5 -1t2.5 -0.5q60 -16 102.5 -31.5t90.5 -42.5t77.5 -59.5t49.5 -82t20 -111.5q0 -141 -116.5 -226.5t-315.5 -85.5zM461 -510h-234l138 385h288z" />
    <glyph glyph-name="uni021A" unicode="&#x21a;" horiz-adv-x="1212" 
d="M758 0h-301v1147h-414v287h1126v-287h-411v-1147zM561 -508h-233l137 385h289z" />
    <glyph glyph-name="uni021B" unicode="&#x21b;" horiz-adv-x="866" 
d="M602 -20q-170 0 -266 103.5t-96 283.5v401h-174v246h174v295h286v-295h267v-246h-267v-358q0 -174 150 -174q43 0 102 16l29 -236q-79 -36 -205 -36zM518 -508h-233l137 385h289z" />
    <glyph glyph-name="uni021E" unicode="&#x21e;" horiz-adv-x="1456" 
d="M850 1561h-242l-280 387h268l133 -201l133 201h268zM459 0h-301v1434h301v-582h540v582h301v-1434h-301v563h-540v-563z" />
    <glyph glyph-name="uni021F" unicode="&#x21f;" horiz-adv-x="1267" 
d="M395 1663h-241l-281 387h268l133 -201l134 201h268zM416 0h-287v1536h287v-412l-4 -229q132 139 325 139q89 0 164 -29.5t132 -87t89.5 -151t32.5 -213.5v-553h-287v510q0 133 -59 204.5t-160 71.5q-103 0 -168 -73.5t-65 -204.5v-508z" />
    <glyph glyph-name="uni0226" unicode="&#x226;" horiz-adv-x="1355" 
d="M674 1591q-72 0 -123 49t-51 121q0 70 51 120t123 50q70 0 121 -50t51 -120q0 -71 -51 -120.5t-121 -49.5zM1331 0h-317l-82 270h-510l-80 -270h-317l469 1434h362zM674 1110l-174 -582h354l-176 582h-4z" />
    <glyph glyph-name="uni0227" unicode="&#x227;" horiz-adv-x="1286" 
d="M618 1171q-72 0 -123 49t-51 121q0 70 51 120t123 50q70 0 121.5 -50t51.5 -120q0 -71 -51.5 -120.5t-121.5 -49.5zM547 -20q-137 0 -247 70t-171 190.5t-61 267.5t61 267t171 189.5t247 69.5q201 0 323 -139v119h287v-1014h-287v119q-122 -139 -323 -139zM612 233
q109 0 183.5 78.5t74.5 196.5q0 117 -74.5 195.5t-183.5 78.5t-183.5 -78.5t-74.5 -195.5q0 -118 74.5 -196.5t183.5 -78.5z" />
    <glyph glyph-name="uni0228" unicode="&#x228;" horiz-adv-x="1214" 
d="M1116 1434v-285h-657v-297h581v-256h-581v-311h657v-285h-379l-20 -78h12q92 0 150.5 -49t58.5 -139q0 -105 -77 -166.5t-197 -61.5q-140 0 -238 72l70 117q72 -43 143 -43q54 0 80 21t26 55q0 35 -26.5 50t-85.5 15h-107l49 207h-417v1434h958z" />
    <glyph glyph-name="uni0229" unicode="&#x229;" horiz-adv-x="1148" 
d="M588 1038q141 0 254 -59t180.5 -177t67.5 -276q0 -64 -15 -120h-719q27 -90 97.5 -141.5t160.5 -51.5q156 0 244 117l168 -162q-131 -170 -360 -191l-15 -55h13q92 0 150 -49t58 -139q0 -105 -77 -166.5t-197 -61.5q-140 0 -238 72l70 117q72 -43 143 -43q54 0 80.5 21
t26.5 55q0 35 -27 50t-86 15h-106l45 191q-194 32 -316 171t-122 351q0 233 146.5 382.5t373.5 149.5zM588 803q-89 0 -152.5 -54t-85.5 -149h465q-20 96 -80.5 149.5t-146.5 53.5z" />
    <glyph glyph-name="uni022A" unicode="&#x22a;" horiz-adv-x="1640" 
d="M506 2222h631v-242h-631v242zM821 1874q6 2 19 2q53 0 92 -38.5t39 -92.5t-39 -92.5t-92 -38.5q-13 0 -19 2q-6 -2 -18 -2q-53 0 -91 38.5t-38 92.5t38 92.5t91 38.5q12 0 18 -2zM821 1464q154 0 291 -58.5t235 -158t155 -238t57 -292.5t-57 -292.5t-155 -238.5
t-235 -158.5t-291 -58.5q-206 0 -376 99.5t-266.5 271t-96.5 377.5t96.5 377.5t266.5 270.5t376 99zM819 256q189 0 313.5 131t124.5 330t-124.5 330t-313.5 131q-188 0 -312 -131t-124 -330t124 -330t312 -131z" />
    <glyph glyph-name="uni022B" unicode="&#x22b;" horiz-adv-x="1234" 
d="M930 1599h-631v242h631v-242zM403 1171q-66 0 -113.5 48.5t-47.5 115.5t47.5 115.5t113.5 48.5q67 0 115.5 -48.5t48.5 -115.5t-48.5 -115.5t-115.5 -48.5zM829 1171q-66 0 -113.5 48.5t-47.5 115.5t47.5 115.5t113.5 48.5q67 0 114.5 -48t47.5 -116t-47.5 -116
t-114.5 -48zM616 -25q-234 0 -391 152.5t-157 378.5q0 110 42 208.5t114.5 169.5t174.5 112.5t217 41.5q154 0 280.5 -70.5t198.5 -192.5t72 -269q0 -148 -72 -270t-198.5 -191.5t-280.5 -69.5zM616 229q116 0 192.5 78t76.5 199t-76.5 199.5t-192.5 78.5t-191 -78.5
t-75 -199.5t75 -199t191 -78z" />
    <glyph glyph-name="uni022C" unicode="&#x22c;" horiz-adv-x="1640" 
d="M1137 2009h-631v242h631v-242zM977 1581q-38 0 -74.5 15.5t-59 33.5t-48 33.5t-45.5 15.5q-62 0 -62 -90h-213v86q0 128 54.5 191t132.5 63q36 0 71.5 -15.5t59.5 -34.5t52 -34.5t50 -15.5q59 0 59 94h213v-88q0 -135 -54.5 -194.5t-135.5 -59.5zM821 -31
q-206 0 -376 99.5t-266.5 271t-96.5 377.5t96.5 377.5t266.5 270.5t376 99q154 0 291 -58.5t235 -158t155 -238t57 -292.5t-57 -292.5t-155 -238.5t-235 -158.5t-291 -58.5zM819 256q189 0 313.5 131t124.5 330t-124.5 330t-313.5 131q-188 0 -312 -131t-124 -330t124 -330
t312 -131z" />
    <glyph glyph-name="uni022D" unicode="&#x22d;" horiz-adv-x="1234" 
d="M930 1589h-631v242h631v-242zM772 1161q-38 0 -74.5 15.5t-59 34t-48 34t-45.5 15.5q-62 0 -62 -91h-213v86q0 128 54.5 191t132.5 63q36 0 71.5 -15.5t59.5 -34.5t52 -34.5t50 -15.5q60 0 60 94h213v-88q0 -135 -55 -194.5t-136 -59.5zM616 -25q-234 0 -391 152.5
t-157 378.5q0 110 42 208.5t114.5 169.5t174.5 112.5t217 41.5q154 0 280.5 -70.5t198.5 -192.5t72 -269q0 -148 -72 -270t-198.5 -191.5t-280.5 -69.5zM616 229q116 0 192.5 78t76.5 199t-76.5 199.5t-192.5 78.5t-191 -78.5t-75 -199.5t75 -199t191 -78z" />
    <glyph glyph-name="uni022E" unicode="&#x22e;" horiz-adv-x="1640" 
d="M821 1591q-72 0 -123 49t-51 121q0 70 51 120t123 50q70 0 121 -50t51 -120q0 -71 -51 -120.5t-121 -49.5zM821 -31q-206 0 -376 99.5t-266.5 271t-96.5 377.5t96.5 377.5t266.5 270.5t376 99q154 0 291 -58.5t235 -158t155 -238t57 -292.5t-57 -292.5t-155 -238.5
t-235 -158.5t-291 -58.5zM819 256q189 0 313.5 131t124.5 330t-124.5 330t-313.5 131q-188 0 -312 -131t-124 -330t124 -330t312 -131z" />
    <glyph glyph-name="uni022F" unicode="&#x22f;" horiz-adv-x="1234" 
d="M616 1171q-72 0 -123 49t-51 121q0 70 51 120t123 50q70 0 121 -50t51 -120q0 -71 -51 -120.5t-121 -49.5zM616 -25q-234 0 -391 152.5t-157 378.5q0 110 42 208.5t114.5 169.5t174.5 112.5t217 41.5q154 0 280.5 -70.5t198.5 -192.5t72 -269q0 -148 -72 -270
t-198.5 -191.5t-280.5 -69.5zM616 229q116 0 192.5 78t76.5 199t-76.5 199.5t-192.5 78.5t-191 -78.5t-75 -199.5t75 -199t191 -78z" />
    <glyph glyph-name="uni0230" unicode="&#x230;" horiz-adv-x="1640" 
d="M1137 1931h-631v242h631v-242zM821 1591q-54 0 -91.5 36.5t-37.5 88.5q0 53 37.5 90t91.5 37q51 0 89 -37.5t38 -89.5t-37.5 -88.5t-89.5 -36.5zM821 -31q-206 0 -376 99.5t-266.5 271t-96.5 377.5t96.5 377.5t266.5 270.5t376 99q154 0 291 -58.5t235 -158t155 -238
t57 -292.5t-57 -292.5t-155 -238.5t-235 -158.5t-291 -58.5zM819 256q189 0 313.5 131t124.5 330t-124.5 330t-313.5 131q-188 0 -312 -131t-124 -330t124 -330t312 -131z" />
    <glyph glyph-name="uni0231" unicode="&#x231;" horiz-adv-x="1234" 
d="M930 1511h-631v242h631v-242zM616 1171q-54 0 -91.5 36.5t-37.5 88.5q0 53 37.5 90t91.5 37q51 0 89 -37.5t38 -89.5t-37.5 -88.5t-89.5 -36.5zM616 -25q-234 0 -391 152.5t-157 378.5q0 110 42 208.5t114.5 169.5t174.5 112.5t217 41.5q154 0 280.5 -70.5t198.5 -192.5
t72 -269q0 -148 -72 -270t-198.5 -191.5t-280.5 -69.5zM616 229q116 0 192.5 78t76.5 199t-76.5 199.5t-192.5 78.5t-191 -78.5t-75 -199.5t75 -199t191 -78z" />
    <glyph glyph-name="uni0232" unicode="&#x232;" horiz-adv-x="1314" 
d="M975 1632h-631v242h631v-242zM809 0h-301v496l-492 938h344l299 -615l297 615h342l-489 -938v-496z" />
    <glyph glyph-name="uni0233" unicode="&#x233;" horiz-adv-x="1112" 
d="M238 1454h630v-242h-630v242zM551 279l233 735h312l-426 -1166q-68 -189 -165.5 -274.5t-250.5 -85.5q-127 0 -229 57l81 234q59 -27 107 -27q66 0 106.5 35t67.5 121l14 43l-385 1063h303z" />
    <glyph glyph-name="uni0237" unicode="&#x237;" horiz-adv-x="575" 
d="M88 -512q-114 0 -207 41l31 231q53 -16 106 -16q61 0 100.5 42.5t39.5 137.5v1090h286v-1139q0 -177 -96.5 -282t-259.5 -105z" />
    <glyph glyph-name="uni023D" unicode="&#x23d;" horiz-adv-x="1196" 
d="M512 633v-346h641v-287h-942v633h-191v215h191v586h301v-586h268v-215h-268z" />
    <glyph glyph-name="uni0242" unicode="&#x242;" horiz-adv-x="980" 
d="M598 0h-268v102q0 68 22 124.5t54.5 93t71 72.5t71 64t54.5 67t22 83q0 74 -47.5 117t-126.5 43q-122 0 -258 -102l-138 217q82 70 190.5 111.5t229.5 41.5q204 0 321 -107t117 -288q0 -67 -17.5 -123.5t-45 -96.5t-61 -74.5t-67.5 -64t-61.5 -58.5t-45 -64.5
t-17.5 -75.5v-82z" />
    <glyph glyph-name="uni0243" unicode="&#x243;" horiz-adv-x="1300" 
d="M739 0h-589v297h-150v260h150v877h538q209 0 333 -97.5t124 -279.5q0 -210 -172 -309v-5q43 -16 81.5 -41t76.5 -65.5t60.5 -104t22.5 -141.5q0 -184 -122 -287.5t-353 -103.5zM451 1174v-328h215q86 0 136 41t50 121q0 83 -49.5 124.5t-136.5 41.5h-215zM451 610v-350
h258q97 0 149.5 44t52.5 132q0 83 -54.5 128.5t-147.5 45.5h-258z" />
    <glyph glyph-name="uni0244" unicode="&#x244;" horiz-adv-x="1466" 
d="M1323 805h121v-187h-121v-22q0 -150 -45 -269.5t-124.5 -197.5t-186.5 -119t-234 -41q-125 0 -232 41t-186.5 118.5t-124.5 198t-45 269.5v22h-125v187h125v629h301v-629h576v629h301v-629zM1022 608v10h-576v-10q0 -174 79.5 -263t207.5 -89q131 0 210 88.5t79 263.5z
" />
    <glyph glyph-name="uni0245" unicode="&#x245;" horiz-adv-x="1331" 
d="M348 0h-323l454 1434h373l455 -1434h-324l-317 1104z" />
    <glyph glyph-name="uni024B" unicode="&#x24b;" horiz-adv-x="1286" 
d="M1182 -512q-150 0 -231 95.5t-81 262.5v273q-122 -139 -323 -139q-137 0 -247 70t-171 190.5t-61 267.5t61 267t171 189.5t247 69.5q201 0 323 -139v119h287v-1141q0 -113 90 -113q25 0 66 13l51 -248q-79 -37 -182 -37zM612 233q109 0 183.5 78.5t74.5 196.5
q0 117 -74.5 195.5t-183.5 78.5t-183.5 -78.5t-74.5 -195.5q0 -118 74.5 -196.5t183.5 -78.5z" />
    <glyph glyph-name="uni024C" unicode="&#x24c;" horiz-adv-x="1294" 
d="M932 528l291 -528h-334l-248 481h-190v-481h-301v487h-150v254h150v693h546q218 0 355 -127t137 -349q0 -157 -67.5 -266.5t-188.5 -163.5zM664 1167h-213v-422h213q104 0 165.5 58.5t61.5 152.5q0 93 -62 152t-165 59z" />
    <glyph glyph-name="uni0251" unicode="&#x251;" horiz-adv-x="1286" 
d="M547 -20q-137 0 -247 70t-171 190.5t-61 267.5t61 267t171 189.5t247 69.5q201 0 323 -139v119h287v-1014h-287v119q-122 -139 -323 -139zM612 233q109 0 183.5 78.5t74.5 196.5q0 117 -74.5 195.5t-183.5 78.5t-183.5 -78.5t-74.5 -195.5q0 -118 74.5 -196.5
t183.5 -78.5z" />
    <glyph glyph-name="uni0253" unicode="&#x253;" horiz-adv-x="1286" 
d="M739 -20q-198 0 -323 139v-119h-287v1208q0 167 80.5 263t230.5 96q107 0 183 -37l-50 -248q-40 12 -65 12q-92 0 -92 -112v-287q125 139 323 139q209 0 345.5 -151t136.5 -375q0 -147 -61.5 -267.5t-172 -190.5t-248.5 -70zM676 233q108 0 183 78.5t75 196.5
q0 116 -75 195t-183 79q-109 0 -184.5 -79t-75.5 -195q0 -118 75 -196.5t185 -78.5z" />
    <glyph glyph-name="uni0254" unicode="&#x254;" horiz-adv-x="1085" 
d="M483 -25q-141 0 -257.5 60t-184.5 164l213 159q37 -55 94 -85.5t125 -30.5q108 0 183 76t75 190q0 113 -75 188.5t-183 75.5q-67 0 -124.5 -30.5t-94.5 -86.5l-213 160q73 104 189.5 163.5t252.5 59.5q154 0 276.5 -70.5t190.5 -192t68 -269.5q0 -225 -151.5 -378
t-383.5 -153z" />
    <glyph glyph-name="uni0256" unicode="&#x256;" horiz-adv-x="1286" 
d="M1182 -512q-150 0 -231 95.5t-81 262.5v273q-122 -139 -323 -139q-137 0 -247 70t-171 190.5t-61 267.5t61 267t171 189.5t247 69.5q201 0 323 -139v641h287v-1663q0 -113 90 -113q25 0 66 13l51 -248q-79 -37 -182 -37zM612 233q109 0 183.5 78.5t74.5 196.5
q0 117 -74.5 195.5t-183.5 78.5t-183.5 -78.5t-74.5 -195.5q0 -118 74.5 -196.5t183.5 -78.5z" />
    <glyph glyph-name="uni0257" unicode="&#x257;" horiz-adv-x="1286" 
d="M547 -20q-137 0 -247 70t-171 190.5t-61 267.5t61 267t171 189.5t247 69.5q201 0 323 -139v313q0 167 81 263t231 96q103 0 182 -37l-51 -248q-37 12 -66 12q-90 0 -90 -112v-1182h-287v119q-122 -139 -323 -139zM612 233q109 0 183.5 78.5t74.5 196.5q0 117 -74.5 195.5
t-183.5 78.5t-183.5 -78.5t-74.5 -195.5q0 -118 74.5 -196.5t183.5 -78.5z" />
    <glyph glyph-name="uni0259" unicode="&#x259;" horiz-adv-x="1150" 
d="M567 1038q145 0 261.5 -64t185.5 -187t69 -283q0 -231 -147 -380t-375 -149q-214 0 -359 141t-145 369q0 55 11 119h731q-24 92 -89.5 142.5t-148.5 50.5q-77 0 -143.5 -30.5t-114.5 -82.5l-168 162q82 93 193 142.5t239 49.5zM563 213q90 0 153 53.5t85 147.5h-465
q22 -94 81.5 -147.5t145.5 -53.5z" />
    <glyph glyph-name="uni025B" unicode="&#x25b;" horiz-adv-x="931" 
d="M496 -31q-203 0 -322 82t-119 230q0 84 53 152.5t138 94.5v4q-65 26 -105.5 83.5t-40.5 134.5q0 140 111 217t278 77q206 0 375 -116l-119 -191q-112 68 -225 68q-60 0 -101.5 -26.5t-41.5 -73.5q0 -43 33.5 -70t81.5 -27h114v-188h-127q-139 0 -139 -101q0 -52 46 -81
t124 -29q143 0 264 82l117 -195q-66 -55 -171 -91t-224 -36z" />
    <glyph glyph-name="uni0260" unicode="&#x260;" horiz-adv-x="1284" 
d="M578 -532q-148 0 -275 48t-203 124l152 208q135 -116 321 -116q57 0 107 15t93.5 46.5t69 88t25.5 132.5v105q-122 -139 -321 -139q-137 0 -247 70t-171 190.5t-61 267.5t61 267t171 189.5t247 69.5q199 0 321 -139v313q0 167 81 263t231 96q104 0 180 -37l-49 -248
q-37 12 -66 12q-90 0 -90 -112v-1157q0 -116 -30 -209.5t-82.5 -157.5t-126 -107.5t-158 -63t-180.5 -19.5zM610 233q109 0 183.5 78.5t74.5 196.5q0 117 -74.5 195.5t-183.5 78.5q-108 0 -182 -79t-74 -195q0 -118 74 -196.5t182 -78.5z" />
    <glyph glyph-name="uni0263" unicode="&#x263;" horiz-adv-x="1097" 
d="M551 -512q-89 0 -158.5 27t-111.5 73.5t-63 106t-21 127.5q0 88 42.5 179.5t125.5 205.5l-349 807h308l231 -580l219 580h309l-338 -805q166 -234 166 -387q0 -143 -92.5 -238.5t-267.5 -95.5zM553 -297q46 0 75 33.5t29 83.5q0 90 -102 256q-109 -161 -109 -256
q0 -51 29 -84t78 -33z" />
    <glyph glyph-name="uni0266" unicode="&#x266;" horiz-adv-x="1267" 
d="M416 0h-287v1208q0 167 80.5 263t230.5 96q107 0 183 -37l-50 -248q-40 12 -65 12q-92 0 -92 -112v-152l-2 -133q130 137 323 137q89 0 164 -29.5t132 -87t89.5 -151t32.5 -213.5v-553h-287v510q0 133 -59 204.5t-160 71.5q-103 0 -168 -73.5t-65 -204.5v-508z" />
    <glyph glyph-name="uni0268" unicode="&#x268;" horiz-adv-x="729" 
d="M367 1171q-72 0 -123 49t-51 121q0 70 51 120t123 50q69 0 119.5 -50t50.5 -120q0 -71 -50 -120.5t-120 -49.5zM508 653h170v-215h-170v-438h-287v438h-170v215h170v361h287v-361z" />
    <glyph glyph-name="uni0269" unicode="&#x269;" horiz-adv-x="608" 
d="M432 -20q-140 0 -221.5 90t-81.5 258v686h287v-666q0 -52 23 -80t61 -28q19 0 43 6l30 -242q-71 -24 -141 -24z" />
    <glyph glyph-name="uni0272" unicode="&#x272;" horiz-adv-x="1267" 
d="M104 -512q-106 0 -182 37l49 248q41 -13 68 -13q90 0 90 113v1141h287v-111q128 131 321 131q184 0 301 -122.5t117 -358.5v-553h-287v510q0 133 -59 204.5t-160 71.5q-102 0 -167.5 -73.5t-65.5 -204.5v-662q0 -167 -81 -262.5t-231 -95.5z" />
    <glyph glyph-name="uni0275" unicode="&#x275;" horiz-adv-x="1226" 
d="M612 -25q-152 0 -277 69.5t-196 191.5t-71 270q0 147 71 269t196 192.5t277 70.5q114 0 215.5 -41.5t174 -112.5t115 -169.5t42.5 -208.5q0 -148 -72 -270t-197.5 -191.5t-277.5 -69.5zM358 594h508q-25 87 -93.5 139.5t-160.5 52.5t-160.5 -52.5t-93.5 -139.5zM612 227
q93 0 162 53t92 140h-508q25 -87 93 -140t161 -53z" />
    <glyph glyph-name="uni027C" unicode="&#x27c;" horiz-adv-x="823" 
d="M416 -512h-287v1526h287v-137q111 159 315 159q25 0 41 -2v-286q-27 2 -67 2q-128 0 -208.5 -87t-80.5 -243v-932z" />
    <glyph glyph-name="uni027D" unicode="&#x27d;" horiz-adv-x="823" 
d="M440 -512q-150 0 -230.5 95.5t-80.5 262.5v1168h287v-137q111 159 315 159q25 0 41 -2v-286q-27 2 -67 2q-128 0 -208.5 -87t-80.5 -243v-547q0 -113 92 -113q21 0 65 13l50 -248q-76 -37 -183 -37z" />
    <glyph glyph-name="uni027E" unicode="&#x27e;" horiz-adv-x="630" 
d="M416 0h-287v684q0 166 80 258t231 92q107 0 183 -37l-50 -239q-30 12 -65 12q-92 0 -92 -113v-657z" />
    <glyph glyph-name="uni0283" unicode="&#x283;" horiz-adv-x="714" 
d="M190 -514q-106 0 -182 37l49 250q41 -15 66 -15q92 0 92 113v1317q0 167 80.5 262.5t230.5 95.5q105 0 181 -37l-50 -247q-37 12 -65 12q-90 0 -90 -113v-1315q0 -168 -81 -264t-231 -96z" />
    <glyph glyph-name="uni0288" unicode="&#x288;" horiz-adv-x="851" 
d="M551 -512q-149 0 -230 95.5t-81 262.5v918h-174v250h174v295h286v-295h267v-250h-267v-891q0 -113 92 -113q25 0 66 13l49 -248q-76 -37 -182 -37z" />
    <glyph glyph-name="uni0289" unicode="&#x289;" horiz-adv-x="1423" 
d="M1225 745h147v-213h-147v-532h-287v127q-121 -147 -320 -147q-89 0 -163.5 29.5t-132 87t-89.5 151t-32 213.5v71h-150v213h150v269h286v-269h451v269h287v-269zM938 500v32h-451v-34q0 -133 58.5 -202t161.5 -69q99 0 165 74.5t66 198.5z" />
    <glyph glyph-name="uni028A" unicode="&#x28a;" horiz-adv-x="1234" 
d="M1143 782h-176q89 -60 135.5 -148t46.5 -194q0 -210 -147 -340.5t-384 -130.5q-231 0 -381.5 133.5t-150.5 337.5q0 219 184 342h-178v232h471v-307q-93 -25 -147 -90.5t-54 -153.5q0 -109 71 -180.5t185 -71.5t185 71.5t71 180.5q0 89 -54 154t-150 90v307h473v-232z
" />
    <glyph glyph-name="uni028B" unicode="&#x28b;" horiz-adv-x="1251" 
d="M625 -31q-247 0 -379.5 132.5t-132.5 385.5v527h286v-520q0 -133 60 -202t166 -69q107 0 167 68.5t60 202.5v188q0 46 -26 68t-66 22q-26 0 -66 -12l-49 248q74 36 182 36q150 0 231 -95.5t81 -262.5v-199q0 -255 -134 -386.5t-380 -131.5z" />
    <glyph glyph-name="uni028C" unicode="&#x28c;" horiz-adv-x="1097" 
d="M324 0h-308l369 1014h330l368 -1014h-309l-223 731z" />
    <glyph glyph-name="uni0292" unicode="&#x292;" horiz-adv-x="1052" 
d="M936 741l-309 -335q168 -26 269 -137t101 -294q0 -142 -66.5 -247.5t-182 -159t-263.5 -53.5q-271 0 -444 151l135 219q52 -45 130 -73.5t155 -28.5q112 0 181 56t69 159q0 95 -67 148t-193 53h-140v213l314 338h-519v264h830v-273z" />
    <glyph glyph-name="uni0294" unicode="&#x294;" horiz-adv-x="1128" 
d="M659 0h-264v334q0 95 22 177.5t54.5 137t71 107.5t71 91.5t54.5 85t22 91.5q0 76 -50 121t-130 45q-117 0 -252 -105l-139 224q82 70 190.5 111.5t229.5 41.5q211 0 331.5 -110t120.5 -295q0 -66 -18.5 -127t-47.5 -109.5t-64.5 -95.5t-71 -93t-64.5 -93t-47.5 -104.5
t-18.5 -119.5v-315z" />
    <glyph glyph-name="uni0295" unicode="&#x295;" horiz-adv-x="1128" 
d="M733 0h-268v315q0 84 -34 161.5t-82 139.5t-96 125t-82 144.5t-34 171.5q0 186 122 296.5t331 110.5q121 0 229.5 -41.5t190.5 -111.5l-142 -224q-132 105 -250 105q-81 0 -130.5 -45t-49.5 -123q0 -45 22 -91.5t54.5 -85t71 -91.5t71 -107.5t54.5 -137t22 -177.5v-334z
" />
    <glyph glyph-name="uni02BB" unicode="&#x2bb;" horiz-adv-x="428" 
d="M338 971h-270l137 463h223z" />
    <glyph glyph-name="uni02BC" unicode="&#x2bc;" horiz-adv-x="544" 
d="M309 1157h-248l142 383h280z" />
    <glyph glyph-name="circumflex" unicode="&#x2c6;" horiz-adv-x="929" 
d="M330 1141h-269l281 387h242l280 -387h-268l-133 202z" />
    <glyph glyph-name="caron" unicode="&#x2c7;" horiz-adv-x="923" 
d="M584 1141h-242l-281 387h269l133 -201l133 201h268z" />
    <glyph glyph-name="breve" unicode="&#x2d8;" horiz-adv-x="831" 
d="M412 1147q-151 0 -241 83.5t-108 229.5q-2 20 -2 62h207v-29q6 -70 43 -112t101 -42q69 0 106 50.5t37 132.5h207q0 -172 -92 -273.5t-258 -101.5z" />
    <glyph glyph-name="dotaccent" unicode="&#x2d9;" horiz-adv-x="460" 
d="M236 1171q-72 0 -123.5 49t-51.5 121q0 70 51.5 120t123.5 50q70 0 121 -50t51 -120q0 -71 -51 -120.5t-121 -49.5z" />
    <glyph glyph-name="ring" unicode="&#x2da;" horiz-adv-x="620" 
d="M311 1126q-106 0 -178 67t-72 171q0 100 72.5 166.5t177.5 66.5q103 0 175.5 -66.5t72.5 -166.5q0 -104 -72.5 -171t-175.5 -67zM311 1276q34 0 59 24.5t25 59.5t-25 61.5t-59 26.5q-35 0 -60.5 -26.5t-25.5 -61.5t25.5 -59.5t60.5 -24.5z" />
    <glyph glyph-name="ogonek" unicode="&#x2db;" horiz-adv-x="514" 
d="M334 -496q-116 0 -194.5 59.5t-78.5 176.5q0 88 52 159t127 115l194 -14q-77 -41 -125.5 -95.5t-48.5 -105.5q0 -46 33.5 -70t93.5 -24q35 0 66 8v-196q-54 -13 -119 -13z" />
    <glyph glyph-name="tilde" unicode="&#x2dc;" horiz-adv-x="815" 
d="M563 1161q-38 0 -74.5 15.5t-59 34t-48 34t-45.5 15.5q-62 0 -62 -91h-213v86q0 128 54.5 191t132.5 63q36 0 71.5 -15.5t59.5 -34.5t52 -34.5t50 -15.5q60 0 60 94h213v-88q0 -135 -55 -194.5t-136 -59.5z" />
    <glyph glyph-name="hungarumlaut" unicode="&#x2dd;" horiz-adv-x="927" 
d="M266 1141h-205l166 387h269zM623 1141h-205l166 387h268z" />
    <glyph glyph-name="gravecomb" unicode="&#x300;" 
d="M-61 1141h-244l-238 387h312z" />
    <glyph glyph-name="acutecomb" unicode="&#x301;" 
d="M-287 1141h-243l153 387h316z" />
    <glyph glyph-name="uni0302" unicode="&#x302;" 
d="M-596 1141h-268l280 387h242l281 -387h-269l-133 202z" />
    <glyph glyph-name="tildecomb" unicode="&#x303;" 
d="M-252 1161q-38 0 -74.5 15.5t-59 34t-48 34t-45.5 15.5q-62 0 -62 -91h-213v86q0 128 54.5 191t132.5 63q36 0 71.5 -15.5t59.5 -34.5t52 -34.5t50 -15.5q60 0 60 94h213v-88q0 -135 -55 -194.5t-136 -59.5z" />
    <glyph glyph-name="uni0304" unicode="&#x304;" 
d="M-61 1212h-631v242h631v-242z" />
    <glyph glyph-name="uni0306" unicode="&#x306;" 
d="M-412 1147q-151 0 -240.5 83.5t-107.5 229.5q-2 20 -2 62h207v-29q6 -70 42.5 -112t100.5 -42q70 0 107 51t37 132h207q0 -172 -92.5 -273.5t-258.5 -101.5z" />
    <glyph glyph-name="uni0307" unicode="&#x307;" 
d="M-233 1171q-72 0 -123.5 49t-51.5 121q0 70 51.5 120t123.5 50q70 0 121 -50t51 -120q0 -71 -51 -120.5t-121 -49.5z" />
    <glyph glyph-name="uni0308" unicode="&#x308;" 
d="M-649 1171q-66 0 -114 48.5t-48 115.5t48 115.5t114 48.5q67 0 115.5 -48.5t48.5 -115.5t-48.5 -115.5t-115.5 -48.5zM-223 1171q-66 0 -114 48.5t-48 115.5t48 115.5t114 48.5q67 0 114.5 -48t47.5 -116t-47.5 -116t-114.5 -48z" />
    <glyph glyph-name="hookabovecomb" unicode="&#x309;" 
d="M-197 1141h-198q0 37 20.5 71.5t45 55t45 45.5t20.5 45q0 21 -13 35t-34 14q-48 0 -76 -55l-160 82q28 71 99 115t157 44q97 0 163.5 -53t66.5 -151q0 -49 -20.5 -89.5t-45 -63t-46.5 -48t-24 -47.5z" />
    <glyph glyph-name="uni030A" unicode="&#x30a;" 
d="M-309 1126q-106 0 -178 67t-72 171q0 100 72.5 166.5t177.5 66.5q103 0 175.5 -66.5t72.5 -166.5q0 -104 -72.5 -171t-175.5 -67zM-309 1276q34 0 59 24.5t25 59.5t-25 61.5t-59 26.5q-35 0 -60.5 -26.5t-25.5 -61.5t25.5 -59.5t60.5 -24.5z" />
    <glyph glyph-name="uni030B" unicode="&#x30b;" 
d="M-647 1141h-205l166 387h268zM-291 1141h-205l166 387h269z" />
    <glyph glyph-name="uni030C" unicode="&#x30c;" 
d="M-342 1141h-242l-280 387h268l133 -201l133 201h269z" />
    <glyph glyph-name="uni030F" unicode="&#x30f;" 
d="M-418 1141h-205l-229 387h268zM-61 1141h-205l-230 387h267z" />
    <glyph glyph-name="uni0311" unicode="&#x311;" 
d="M-561 1147h-205q0 173 91.5 274t260.5 101q168 0 260.5 -101t92.5 -274h-207q0 82 -37.5 133t-108.5 51q-72 0 -109.5 -51t-37.5 -133z" />
    <glyph glyph-name="uni0312" unicode="&#x312;" 
d="M-184 1141h-275l150 387h248z" />
    <glyph glyph-name="uni031B" unicode="&#x31b;" 
d="M-340 825h-33v189h8q29 0 45.5 22t16.5 49q0 40 -19 77t-63 91l217 86q107 -115 107 -254q0 -114 -73 -187t-206 -73z" />
    <glyph glyph-name="dotbelowcomb" unicode="&#x323;" 
d="M-233 -481q-72 0 -123.5 50t-51.5 120q0 72 51.5 121t123.5 49q70 0 121 -49.5t51 -120.5q0 -70 -51 -120t-121 -50z" />
    <glyph glyph-name="uni0325" unicode="&#x325;" 
d="M-287 -512q-97 0 -162 61t-65 156q0 91 65.5 151t161.5 60q95 0 160.5 -60t65.5 -151q0 -95 -65.5 -156t-160.5 -61zM-287 -377q32 0 54 23t22 55q0 33 -22 56.5t-54 23.5t-55 -24t-23 -56t23 -55t55 -23z" />
    <glyph glyph-name="uni0326" unicode="&#x326;" 
d="M-254 -508h-233l137 385h289z" />
    <glyph glyph-name="uni0327" unicode="&#x327;" 
d="M-270 -78q92 0 150.5 -49t58.5 -139q0 -105 -77.5 -166.5t-197.5 -61.5q-139 0 -237 72l69 117q72 -43 144 -43q54 0 80 21t26 55q0 35 -27 50t-86 15h-106l53 223h162l-25 -94h13z" />
    <glyph glyph-name="uni0328" unicode="&#x328;" 
d="M-180 -496q-116 0 -194.5 59.5t-78.5 176.5q0 88 52 159t127 115l194 -14q-77 -41 -125.5 -95.5t-48.5 -105.5q0 -46 33.5 -70t93.5 -24q35 0 66 8v-196q-54 -13 -119 -13z" />
    <glyph glyph-name="uni032D" unicode="&#x32d;" 
d="M-600 -485h-268l276 362h256l275 -362h-269l-135 186z" />
    <glyph glyph-name="uni032E" unicode="&#x32e;" 
d="M-416 -492q-171 0 -262.5 98t-91.5 271h213q0 -79 35.5 -125.5t105.5 -46.5t105 46t35 126h215q0 -172 -92.5 -270.5t-262.5 -98.5z" />
    <glyph glyph-name="uni0330" unicode="&#x330;" 
d="M-252 -465q-49 0 -91.5 23t-74.5 46t-53 23q-61 0 -61 -84h-222v86q0 129 54.5 190.5t132.5 61.5q45 0 88.5 -23t78 -46t58.5 -23q59 0 59 88h222v-88q0 -135 -55 -194.5t-136 -59.5z" />
    <glyph glyph-name="uni0331" unicode="&#x331;" 
d="M-61 -414h-615v246h615v-246z" />
    <glyph glyph-name="uni0332" unicode="&#x332;" 
d="M-61 -424h-672v213h672v-213z" />
    <glyph glyph-name="uni0335" unicode="&#x335;" 
d="M-61 610h-760v215h760v-215z" />
    <glyph glyph-name="uni0336" unicode="&#x336;" 
d="M-61 643h-1424v186h1424v-186z" />
    <glyph glyph-name="uni0337" unicode="&#x337;" 
d="M-61 995l-799 -442l-90 178l798 440z" />
    <glyph glyph-name="uni0338" unicode="&#x338;" 
d="M-1069 -125h-254l1008 1651h254z" />
    <glyph glyph-name="uni0345" unicode="&#x345;" 
d="M-231 -496q-157 0 -239.5 78.5t-82.5 224.5v103h250v-64q0 -125 119 -125q58 0 96 15l27 -199q-71 -33 -170 -33z" />
    <glyph glyph-name="uni0372" unicode="&#x372;" horiz-adv-x="1435" 
d="M864 0h-293v1159h-282v-311h-246v586h1350v-586h-246v311h-283v-1159z" />
    <glyph glyph-name="uni0373" unicode="&#x373;" horiz-adv-x="1103" 
d="M692 -512h-280v1282h-385v244h1050v-244h-385v-1282z" />
    <glyph glyph-name="uni0374" unicode="&#x374;" horiz-adv-x="358" 
d="M231 879h-190l53 555h223z" />
    <glyph glyph-name="uni0375" unicode="&#x375;" horiz-adv-x="358" 
d="M264 -268h-223l88 555h188z" />
    <glyph glyph-name="uni0376" unicode="&#x376;" horiz-adv-x="1497" 
d="M451 0h-293v1434h295v-924l594 924h294v-1434h-297v922z" />
    <glyph glyph-name="uni0377" unicode="&#x377;" horiz-adv-x="1253" 
d="M408 0h-279v1014h281v-598l438 598h276v-1014h-278v598z" />
    <glyph glyph-name="uni037A" unicode="&#x37a;" horiz-adv-x="614" 
d="M383 -496q-157 0 -239.5 78.5t-82.5 224.5v103h250v-64q0 -125 119 -125q58 0 96 15l27 -199q-71 -33 -170 -33z" />
    <glyph glyph-name="uni037E" unicode="&#x37e;" horiz-adv-x="499" 
d="M266 705q-72 0 -123 51.5t-51 126.5q0 69 51.5 119.5t122.5 50.5q69 0 119.5 -50.5t50.5 -119.5q0 -76 -50 -127t-120 -51zM266 -340h-250l105 541h305z" />
    <glyph glyph-name="tonos" unicode="&#x384;" horiz-adv-x="591" 
d="M305 1141h-244l154 387h315z" />
    <glyph glyph-name="dieresistonos" unicode="&#x385;" horiz-adv-x="1079" 
d="M596 1141h-199l66 407h242zM225 1196q-57 0 -97 40.5t-40 98.5q0 57 40 97.5t97 40.5t97 -40.5t40 -97.5q0 -58 -40 -98.5t-97 -40.5zM842 1196q-57 0 -97 40.5t-40 98.5q0 57 40 97.5t97 40.5t97 -40.5t40 -97.5q0 -58 -40 -98.5t-97 -40.5z" />
    <glyph glyph-name="Alphatonos" unicode="&#x386;" horiz-adv-x="1421" 
d="M160 1434h250l-136 -412h-196zM1399 0h-320l-82 270h-508l-79 -270h-320l471 1434h361zM739 1110l-172 -582h353l-177 582h-4z" />
    <glyph glyph-name="anoteleia" unicode="&#x387;" horiz-adv-x="466" 
d="M233 350q-70 0 -121 52t-51 126q0 69 51.5 119.5t120.5 50.5t121 -50.5t52 -119.5q0 -74 -51.5 -126t-121.5 -52z" />
    <glyph glyph-name="Epsilontonos" unicode="&#x388;" horiz-adv-x="1445" 
d="M199 1022h-197l82 412h250zM1348 0h-961v1434h961v-285h-660v-297h582v-256h-582v-311h660v-285z" />
    <glyph glyph-name="Etatonos" unicode="&#x389;" horiz-adv-x="1687" 
d="M199 1022h-197l82 412h250zM688 0h-301v1434h301v-582h541v582h301v-1434h-301v563h-541v-563z" />
    <glyph glyph-name="Iotatonos" unicode="&#x38a;" horiz-adv-x="845" 
d="M199 1022h-197l82 412h250zM688 0h-301v1434h301v-1434z" />
    <glyph glyph-name="Omicrontonos" unicode="&#x38c;" horiz-adv-x="1806" 
d="M987 -31q-206 0 -376 99.5t-266.5 271t-96.5 377.5t96.5 377.5t266.5 270.5t376 99q153 0 290 -58.5t235 -158t155 -238t57 -292.5t-57 -292.5t-155 -238.5t-235 -158.5t-290 -58.5zM199 1022h-197l82 412h250zM985 256q189 0 312.5 130.5t123.5 330.5t-123.5 330.5
t-312.5 130.5q-188 0 -312 -131t-124 -330t124 -330t312 -131z" />
    <glyph glyph-name="Upsilontonos" unicode="&#x38e;" horiz-adv-x="1656" 
d="M199 1022h-197l82 412h250zM1151 0h-301v496l-494 938h344l301 -615l297 615h342l-489 -938v-496z" />
    <glyph glyph-name="Omegatonos" unicode="&#x38f;" horiz-adv-x="1798" 
d="M1716 774q0 -163 -65.5 -288t-184.5 -207h234v-279h-627v332q155 37 247.5 150.5t92.5 277.5q0 186 -121 306t-307 120t-307 -120t-121 -306q0 -163 91 -276t245 -152v-332h-625v279h238q-252 169 -252 495q0 147 55 275.5t151.5 219.5t232.5 143t292 52q213 0 380 -87.5
t259 -244.5t92 -358zM2 1022l82 412h250l-135 -412h-197z" />
    <glyph glyph-name="iotadieresistonos" unicode="&#x390;" horiz-adv-x="608" 
d="M373 1141h-199l66 407h241zM2 1196q-57 0 -97 40.5t-40 98.5q0 57 40 97.5t97 40.5t97 -40.5t40 -97.5q0 -58 -40 -98.5t-97 -40.5zM618 1196q-57 0 -97 40.5t-40 98.5q0 57 40 97.5t97 40.5t97.5 -40.5t40.5 -97.5q0 -58 -40.5 -98.5t-97.5 -40.5zM432 -20
q-140 0 -221.5 90t-81.5 258v686h287v-666q0 -52 23 -80t61 -28q19 0 43 6l30 -242q-71 -24 -141 -24z" />
    <glyph glyph-name="Alpha" unicode="&#x391;" horiz-adv-x="1355" 
d="M1331 0h-317l-82 270h-510l-80 -270h-317l469 1434h362zM674 1110l-174 -582h354l-176 582h-4z" />
    <glyph glyph-name="Beta" unicode="&#x392;" horiz-adv-x="1308" 
d="M748 0h-590v1434h536q210 0 333.5 -97.5t123.5 -279.5q0 -212 -172 -309v-5q34 -12 65.5 -29.5t65 -47.5t58 -67t40 -91t15.5 -117q0 -184 -122 -287.5t-353 -103.5zM459 1174v-328h215q86 0 136 41t50 121q0 83 -49.5 124.5t-136.5 41.5h-215zM459 610v-350h256
q99 0 152 44t53 132q0 83 -55.5 128.5t-149.5 45.5h-256z" />
    <glyph glyph-name="Gamma" unicode="&#x393;" horiz-adv-x="1089" 
d="M459 0h-301v1434h889v-287h-588v-1147z" />
    <glyph glyph-name="uni0394" unicode="&#x394;" horiz-adv-x="1355" 
d="M1331 0h-1306l469 1434h364zM676 1116l-254 -856h514z" />
    <glyph glyph-name="Epsilon" unicode="&#x395;" horiz-adv-x="1214" 
d="M1116 0h-958v1434h958v-285h-657v-297h581v-256h-581v-311h657v-285z" />
    <glyph glyph-name="Zeta" unicode="&#x396;" horiz-adv-x="1130" 
d="M1059 0h-985v270l598 881h-594v283h954v-271l-598 -880h625v-283z" />
    <glyph glyph-name="Eta" unicode="&#x397;" horiz-adv-x="1456" 
d="M459 0h-301v1434h301v-582h540v582h301v-1434h-301v563h-540v-563z" />
    <glyph glyph-name="Theta" unicode="&#x398;" horiz-adv-x="1640" 
d="M821 -31q-206 0 -376 99.5t-266.5 271t-96.5 377.5t96.5 377.5t266.5 270.5t376 99q154 0 291 -58.5t235 -158t155 -238t57 -292.5t-57 -292.5t-155 -238.5t-235 -158.5t-291 -58.5zM819 256q189 0 313.5 131t124.5 330t-124.5 330t-313.5 131q-188 0 -312 -131
t-124 -330t124 -330t312 -131zM1042 610h-444v213h444v-213z" />
    <glyph glyph-name="Iota" unicode="&#x399;" horiz-adv-x="614" 
d="M459 0h-301v1434h301v-1434z" />
    <glyph glyph-name="Kappa" unicode="&#x39a;" horiz-adv-x="1339" 
d="M944 1434h385l-592 -715l592 -719h-385l-485 618v-618h-301v1434h301v-619z" />
    <glyph glyph-name="Lambda" unicode="&#x39b;" horiz-adv-x="1345" 
d="M342 0h-317l464 1434h361l471 -1434h-317l-332 1112z" />
    <glyph glyph-name="Mu" unicode="&#x39c;" horiz-adv-x="1783" 
d="M449 0h-291v1434h338l397 -842l395 842h338v-1434h-291v928l-329 -699h-230l-327 699v-928z" />
    <glyph glyph-name="Nu" unicode="&#x39d;" horiz-adv-x="1495" 
d="M449 0h-291v1434h301l588 -922v922h290v-1434h-303l-585 922v-922z" />
    <glyph glyph-name="Xi" unicode="&#x39e;" horiz-adv-x="1107" 
d="M950 1075v-76h70v-282h-932v282h70v76h792zM963 233h-818v254h818v-254z" />
    <glyph glyph-name="Omicron" unicode="&#x39f;" horiz-adv-x="1640" 
d="M821 -31q-206 0 -376 99.5t-266.5 271t-96.5 377.5t96.5 377.5t266.5 270.5t376 99q154 0 291 -58.5t235 -158t155 -238t57 -292.5t-57 -292.5t-155 -238.5t-235 -158.5t-291 -58.5zM819 256q189 0 313.5 131t124.5 330t-124.5 330t-313.5 131q-188 0 -312 -131
t-124 -330t124 -330t312 -131z" />
    <glyph glyph-name="Pi" unicode="&#x3a0;" horiz-adv-x="1460" 
d="M1303 1434v-1434h-302v1143h-542v-1143h-301v1434h1145z" />
    <glyph glyph-name="Rho" unicode="&#x3a1;" horiz-adv-x="1255" 
d="M459 0h-301v1434h524q102 0 191.5 -33t156.5 -94.5t105.5 -155.5t38.5 -209q0 -156 -67 -269.5t-177 -168.5t-248 -55h-223v-449zM459 1161v-450h192q104 0 165 62t61 163q0 102 -60.5 163.5t-165.5 61.5h-192z" />
    <glyph glyph-name="Sigma" unicode="&#x3a3;" horiz-adv-x="1146" 
d="M1049 0h-924v254l319 463l-319 463v254h924v-271h-564l308 -446l-308 -447h564v-270z" />
    <glyph glyph-name="Tau" unicode="&#x3a4;" horiz-adv-x="1212" 
d="M758 0h-301v1147h-414v287h1126v-287h-411v-1147z" />
    <glyph glyph-name="Upsilon" unicode="&#x3a5;" horiz-adv-x="1314" 
d="M809 0h-301v496l-492 938h344l299 -615l297 615h342l-489 -938v-496z" />
    <glyph glyph-name="Phi" unicode="&#x3a6;" horiz-adv-x="1732" 
d="M1010 -106h-287v124q-295 30 -468 211.5t-173 489.5q0 303 174 486.5t467 211.5v123h287v-123q294 -28 467.5 -211t173.5 -487q0 -308 -172.5 -489.5t-468.5 -211.5v-124zM723 270v893q-162 -26 -253 -142.5t-91 -301.5q0 -189 91 -306.5t253 -142.5zM1010 1163v-893
q162 28 253 145t91 304q0 182 -91.5 298.5t-252.5 145.5z" />
    <glyph glyph-name="Chi" unicode="&#x3a7;" horiz-adv-x="1310" 
d="M385 0h-354l411 717l-397 717h354l256 -500l256 500h355l-398 -717l412 -717h-354l-271 500z" />
    <glyph glyph-name="Psi" unicode="&#x3a8;" horiz-adv-x="1611" 
d="M1206 981v453h297v-453q0 -145 -43 -264t-119 -199.5t-174.5 -130.5t-216.5 -70v-317h-286v317q-119 20 -218 70t-176 130.5t-120.5 199.5t-43.5 264v453h300v-453q0 -151 68.5 -249t189.5 -134v836h286v-836q121 36 188.5 134t67.5 249z" />
    <glyph glyph-name="uni03A9" unicode="&#x3a9;" horiz-adv-x="1624" 
d="M1542 774q0 -324 -248 -495h232v-279h-627v332q156 38 249 151t93 277q0 186 -122 306t-308 120q-185 0 -306.5 -120.5t-121.5 -305.5q0 -163 92 -276t246 -152v-332h-627v279h238q-250 170 -250 495q0 197 93.5 354.5t261 246.5t376.5 89q212 0 378.5 -87.5
t258.5 -244.5t92 -358z" />
    <glyph glyph-name="Iotadieresis" unicode="&#x3aa;" horiz-adv-x="614" 
d="M123 1595q-63 0 -107.5 45t-44.5 115t44.5 115t107.5 45q64 0 108.5 -44.5t44.5 -115.5t-44.5 -115.5t-108.5 -44.5zM487 1595q-63 0 -107 45t-44 115t44 115t107 45q65 0 109.5 -44.5t44.5 -115.5t-44.5 -115.5t-109.5 -44.5zM459 0h-301v1434h301v-1434z" />
    <glyph glyph-name="Upsilondieresis" unicode="&#x3ab;" horiz-adv-x="1314" 
d="M446 1591q-66 0 -113.5 48.5t-47.5 115.5t47.5 115.5t113.5 48.5q68 0 116 -48.5t48 -115.5t-48 -115.5t-116 -48.5zM872 1591q-66 0 -113.5 48.5t-47.5 115.5t47.5 115.5t113.5 48.5q67 0 114.5 -48t47.5 -116t-47.5 -116t-114.5 -48zM809 0h-301v496l-492 938h344
l299 -615l297 615h342l-489 -938v-496z" />
    <glyph glyph-name="alphatonos" unicode="&#x3ac;" horiz-adv-x="1349" 
d="M653 1528h316l-226 -387h-243zM1284 246l31 -242q-73 -24 -150 -24q-85 0 -155.5 42t-102.5 113q-124 -155 -360 -155q-137 0 -247 70t-171 190.5t-61 267.5t61 267t171 189.5t247 69.5q201 0 323 -139v119h287v-662q0 -55 22 -83.5t60 -28.5q21 0 45 6zM612 233
q109 0 183.5 78.5t74.5 196.5q0 117 -74.5 195.5t-183.5 78.5t-183.5 -78.5t-74.5 -195.5q0 -118 74.5 -196.5t183.5 -78.5z" />
    <glyph glyph-name="epsilontonos" unicode="&#x3ad;" horiz-adv-x="976" 
d="M641 1141h-244l154 387h315zM518 -31q-217 0 -340 82t-123 230q0 84 53 152.5t138 94.5v4q-65 26 -105.5 83.5t-40.5 134.5q0 140 117 217t293 77q227 0 397 -110l-116 -189q-112 62 -250 62q-73 0 -120.5 -26.5t-47.5 -75.5q0 -44 34 -70.5t87 -26.5h135v-184h-148
q-70 0 -107.5 -27.5t-37.5 -77.5q0 -53 51.5 -82.5t144.5 -29.5q167 0 287 74l117 -191q-66 -52 -179 -86.5t-239 -34.5z" />
    <glyph glyph-name="etatonos" unicode="&#x3ae;" horiz-adv-x="1331" 
d="M741 1528h316l-226 -387h-243zM795 1034q91 0 167 -29.5t134 -87t90.5 -150.5t32.5 -214v-1065h-287v1022q0 128 -57.5 202t-161.5 74q-109 0 -171.5 -76t-62.5 -202v-508h-286v666q0 53 -22 80.5t-60 27.5q-21 0 -45 -6l-31 242q70 24 141 24q96 0 170 -45.5t103 -128.5
q122 174 346 174z" />
    <glyph glyph-name="iotatonos" unicode="&#x3af;" horiz-adv-x="608" 
d="M399 1141h-243l153 387h316zM432 -20q-140 0 -221.5 90t-81.5 258v686h287v-666q0 -52 23 -80t61 -28q19 0 43 6l30 -242q-71 -24 -141 -24z" />
    <glyph glyph-name="upsilondieresistonos" unicode="&#x3b0;" horiz-adv-x="1265" 
d="M690 1141h-198l65 407h242zM319 1196q-57 0 -97 40.5t-40 98.5q0 57 40 97.5t97 40.5t97.5 -40.5t40.5 -97.5q0 -58 -40.5 -98.5t-97.5 -40.5zM936 1196q-57 0 -97 40.5t-40 98.5q0 57 40 97.5t97 40.5t97 -40.5t40 -97.5q0 -58 -40 -98.5t-97 -40.5zM633 -31
q-248 0 -384 134.5t-136 392.5v518h284v-496q0 -154 64 -226.5t172 -72.5q233 0 233 322q0 113 -20.5 221.5t-67.5 251.5h291q47 -138 65.5 -243t18.5 -212q0 -156 -38 -271.5t-109 -184t-163.5 -101.5t-209.5 -33z" />
    <glyph glyph-name="alpha" unicode="&#x3b1;" horiz-adv-x="1349" 
d="M1284 246l31 -242q-73 -24 -150 -24q-85 0 -155.5 42t-102.5 113q-124 -155 -360 -155q-137 0 -247 70t-171 190.5t-61 267.5t61 267t171 189.5t247 69.5q201 0 323 -139v119h287v-662q0 -55 22 -83.5t60 -28.5q21 0 45 6zM612 233q109 0 183.5 78.5t74.5 196.5
q0 117 -74.5 195.5t-183.5 78.5t-183.5 -78.5t-74.5 -195.5q0 -118 74.5 -196.5t183.5 -78.5z" />
    <glyph glyph-name="beta" unicode="&#x3b2;" horiz-adv-x="1173" 
d="M823 809q128 -33 211.5 -142.5t83.5 -260.5q0 -135 -64 -236t-167.5 -151t-229.5 -50q-145 0 -254 56v-537h-274v1599q0 200 128 324.5t327 124.5q123 0 223.5 -48.5t161.5 -142t61 -215.5q0 -118 -56.5 -201t-150.5 -120zM606 221q103 0 166.5 61t63.5 173
q0 106 -66.5 169.5t-183.5 63.5h-56v211h52q81 0 130.5 50t49.5 138q0 86 -50 140.5t-128 54.5q-80 0 -130.5 -53t-50.5 -142v-815q80 -51 203 -51z" />
    <glyph glyph-name="gamma" unicode="&#x3b3;" horiz-adv-x="1097" 
d="M688 -512h-278v442l-394 1084h308l227 -731l223 731h309l-395 -1088v-438z" />
    <glyph glyph-name="delta" unicode="&#x3b4;" horiz-adv-x="1153" 
d="M455 1200q0 -41 35 -82t90.5 -79.5t123 -80.5t135 -93.5t123 -109.5t90.5 -137.5t35 -168.5q0 -139 -68.5 -249t-185 -170.5t-258.5 -60.5q-216 0 -361.5 135t-145.5 345q0 150 84.5 267t222.5 181q-85 67 -132.5 142.5t-47.5 172.5q0 145 108 234.5t275 89.5
q183 0 321 -84l-115 -188q-83 47 -184 47q-67 0 -106 -28t-39 -83zM575 211q110 0 175 67.5t65 170.5q0 89 -60.5 158.5t-174.5 146.5q-106 -47 -174 -123t-68 -182q0 -103 63 -170.5t174 -67.5z" />
    <glyph glyph-name="epsilon" unicode="&#x3b5;" horiz-adv-x="976" 
d="M518 -31q-217 0 -340 82t-123 230q0 84 53 152.5t138 94.5v4q-65 26 -105.5 83.5t-40.5 134.5q0 140 117 217t293 77q227 0 397 -110l-116 -189q-112 62 -250 62q-73 0 -120.5 -26.5t-47.5 -75.5q0 -44 34 -70.5t87 -26.5h135v-184h-148q-70 0 -107.5 -27.5t-37.5 -77.5
q0 -53 51.5 -82.5t144.5 -29.5q167 0 287 74l117 -191q-66 -52 -179 -86.5t-239 -34.5z" />
    <glyph glyph-name="zeta" unicode="&#x3b6;" horiz-adv-x="966" 
d="M602 -512l-133 176q105 54 147.5 94.5t42.5 96.5q0 33 -32.5 64.5t-84.5 62t-115 65.5t-126.5 82.5t-115.5 104.5t-84.5 140.5t-32.5 182.5q0 97 36 191.5t105 183.5t154 169.5t198 166.5h-442v268h784v-268q-276 -204 -412.5 -368t-136.5 -322q0 -70 32 -129.5
t83 -102.5t112.5 -83t123 -79.5t112.5 -82.5t83 -102t32 -128q0 -74 -27 -136t-76 -108t-103.5 -78.5t-123.5 -60.5z" />
    <glyph glyph-name="eta" unicode="&#x3b7;" horiz-adv-x="1331" 
d="M795 1034q91 0 167 -29.5t134 -87t90.5 -150.5t32.5 -214v-1065h-287v1022q0 128 -57.5 202t-161.5 74q-109 0 -171.5 -76t-62.5 -202v-508h-286v666q0 53 -22 80.5t-60 27.5q-21 0 -45 -6l-31 242q70 24 141 24q96 0 170 -45.5t103 -128.5q122 174 346 174z" />
    <glyph glyph-name="theta" unicode="&#x3b8;" horiz-adv-x="1239" 
d="M621 1536q170 0 295 -103t188 -278.5t63 -400.5q0 -226 -63 -402.5t-188 -279.5t-295 -103q-171 0 -296.5 103t-189 279.5t-63.5 402.5q0 225 63.5 400.5t189 278.5t296.5 103zM618 1282q-106 0 -174 -103.5t-82 -314.5h515q-14 209 -84.5 313.5t-174.5 104.5zM618 223
q107 0 176.5 106.5t82.5 319.5h-515q13 -214 82 -320t174 -106z" />
    <glyph glyph-name="iota" unicode="&#x3b9;" horiz-adv-x="608" 
d="M432 -20q-140 0 -221.5 90t-81.5 258v686h287v-666q0 -52 23 -80t61 -28q19 0 43 6l30 -242q-71 -24 -141 -24z" />
    <glyph glyph-name="kappa" unicode="&#x3ba;" horiz-adv-x="1142" 
d="M768 1014h367l-437 -496l437 -518h-361l-358 446v-446h-287v1014h287v-426z" />
    <glyph glyph-name="lambda" unicode="&#x3bb;" horiz-adv-x="1112" 
d="M539 1526l557 -1526h-308l-221 680l-248 -680h-303l414 1028l-186 498h295z" />
    <glyph glyph-name="uni03BC" unicode="&#x3bc;" horiz-adv-x="1331" 
d="M1266 246l30 -242q-74 -24 -145 -24q-91 0 -161 42t-101 115q-104 -157 -311 -157q-122 0 -193 63v-555h-272v1526h286v-516q0 -135 59.5 -202t164.5 -67q98 0 163.5 73.5t65.5 197.5v514h287v-666q0 -53 22 -80.5t60 -27.5q21 0 45 6z" />
    <glyph glyph-name="nu" unicode="&#x3bd;" horiz-adv-x="1097" 
d="M715 0h-330l-369 1014h308l227 -731l223 731h309z" />
    <glyph glyph-name="xi" unicode="&#x3be;" horiz-adv-x="970" 
d="M604 -512l-133 176q100 49 145.5 91.5t45.5 97.5q0 36 -33 69.5t-85 62.5t-115.5 60.5t-127 72t-115.5 88t-85 117t-33 152.5q0 110 66 193.5t169 122.5q-92 38 -144.5 106.5t-52.5 151.5q0 71 39.5 130.5t108.5 100.5h-184v256h864v-256h-293q-118 0 -187 -56t-69 -145
q0 -91 72.5 -146.5t193.5 -55.5h158v-211h-217q-114 0 -176 -46t-62 -124q0 -50 32 -95t83 -80t113 -69.5t124 -72.5t113 -81t83 -102.5t32 -128.5q0 -72 -27 -134t-75.5 -108t-104 -79t-123.5 -58z" />
    <glyph glyph-name="omicron" unicode="&#x3bf;" horiz-adv-x="1234" 
d="M616 -25q-234 0 -391 152.5t-157 378.5q0 110 42 208.5t114.5 169.5t174.5 112.5t217 41.5q154 0 280.5 -70.5t198.5 -192.5t72 -269q0 -148 -72 -270t-198.5 -191.5t-280.5 -69.5zM616 229q116 0 192.5 78t76.5 199t-76.5 199.5t-192.5 78.5t-191 -78.5t-75 -199.5
t75 -199t191 -78z" />
    <glyph glyph-name="pi" unicode="&#x3c0;" horiz-adv-x="1300" 
d="M1223 246l30 -242q-71 -24 -141 -24q-138 0 -218.5 90t-80.5 258v422h-338v-750h-282v750h-166v264h1214v-264h-145v-402q0 -53 22 -80.5t60 -27.5q21 0 45 6z" />
    <glyph glyph-name="rho" unicode="&#x3c1;" horiz-adv-x="1284" 
d="M416 -512h-287v1006q0 112 38.5 210.5t109 171.5t177 115.5t234.5 42.5q232 0 380.5 -150.5t148.5 -375.5t-138.5 -376.5t-351.5 -151.5q-191 0 -311 116v-608zM676 229q108 0 183 79.5t75 195.5q0 118 -75 197t-183 79q-109 0 -184.5 -79t-75.5 -197q0 -117 75.5 -196
t184.5 -79z" />
    <glyph glyph-name="uni03C2" unicode="&#x3c2;" horiz-adv-x="1087" 
d="M621 -512l-132 176q104 53 146.5 93.5t42.5 92.5q0 32 -33.5 62.5t-87.5 59t-119 61.5t-130 80t-119 104t-87.5 143t-33.5 189q0 215 146 352t374 137q137 0 255 -58t189 -165l-209 -160q-83 121 -225 121q-104 0 -174 -65.5t-70 -175.5q0 -70 33 -128t85.5 -98t116 -76
t127 -71.5t116 -74t85.5 -93.5t33 -121q0 -254 -329 -385z" />
    <glyph glyph-name="sigma" unicode="&#x3c3;" horiz-adv-x="1257" 
d="M612 1014h553v-236h-125q125 -122 125 -307q0 -217 -156.5 -356.5t-392.5 -139.5q-235 0 -391.5 151t-156.5 378q0 224 151.5 367t392.5 143zM887 502q0 92 -39.5 165t-110.5 111h-116q-120 0 -195.5 -77.5t-75.5 -200.5q0 -121 75 -199t191 -78q118 0 194.5 77.5
t76.5 201.5z" />
    <glyph glyph-name="tau" unicode="&#x3c4;" horiz-adv-x="1005" 
d="M655 -20q-140 0 -221.5 90t-81.5 258v417h-325v269h952v-269h-340v-397q0 -52 23 -80t61 -28q19 0 43 6l31 -242q-71 -24 -142 -24z" />
    <glyph glyph-name="upsilon" unicode="&#x3c5;" horiz-adv-x="1265" 
d="M633 -31q-248 0 -384 134.5t-136 392.5v518h284v-496q0 -154 64 -226.5t172 -72.5q233 0 233 322q0 113 -20.5 221.5t-67.5 251.5h291q47 -138 65.5 -243t18.5 -212q0 -156 -38 -271.5t-109 -184t-163.5 -101.5t-209.5 -33z" />
    <glyph glyph-name="phi" unicode="&#x3c6;" horiz-adv-x="1542" 
d="M913 -512h-286v481q-248 14 -403.5 159.5t-155.5 375.5q0 165 84 291t229 194l129 -213q-160 -97 -160 -274q0 -128 78.5 -202t210.5 -83v830h235q170 0 306.5 -66.5t215.5 -191t79 -285.5q0 -231 -157.5 -377t-404.5 -158v-481zM903 797v-582q131 11 210 85.5t79 201.5
q0 129 -79 206.5t-210 88.5z" />
    <glyph glyph-name="chi" unicode="&#x3c7;" horiz-adv-x="1107" 
d="M326 -512h-310l330 784l-330 742h316l223 -563l225 563h310l-332 -742l334 -784h-312l-227 602z" />
    <glyph glyph-name="psi" unicode="&#x3c8;" horiz-adv-x="1622" 
d="M948 -512h-278v481q-274 9 -415.5 154.5t-141.5 390.5v500h284v-479q0 -144 68.5 -225t204.5 -91v795h278v-795q140 11 208.5 94.5t68.5 249.5q0 110 -17.5 208t-60.5 243h287q44 -137 59.5 -231.5t15.5 -204.5q0 -290 -143 -445t-418 -164v-481z" />
    <glyph glyph-name="omega" unicode="&#x3c9;" horiz-adv-x="1718" 
d="M1290 1014h271q48 -151 70 -263.5t22 -244.5q0 -267 -123.5 -402t-325.5 -135q-122 0 -215 55.5t-129 135.5q-36 -80 -128.5 -135.5t-213.5 -55.5q-204 0 -327 135t-123 402q0 133 22 246t70 262h268q-42 -152 -60 -266t-18 -259q0 -133 51 -198.5t131 -65.5q89 0 138 72
t49 205v512h278v-512q0 -132 50 -204.5t139 -72.5q80 0 131 65.5t51 198.5q0 145 -18 259t-60 266z" />
    <glyph glyph-name="iotadieresis" unicode="&#x3ca;" horiz-adv-x="608" 
d="M90 1176q-63 0 -107 44.5t-44 114.5t44 115t107 45q64 0 109 -44.5t45 -115.5q0 -70 -44.5 -114.5t-109.5 -44.5zM455 1176q-63 0 -107.5 44.5t-44.5 114.5t44.5 115t107.5 45q64 0 108.5 -44.5t44.5 -115.5t-44 -115t-109 -44zM432 -20q-140 0 -221.5 90t-81.5 258v686
h287v-666q0 -52 23 -80t61 -28q19 0 43 6l30 -242q-71 -24 -141 -24z" />
    <glyph glyph-name="upsilondieresis" unicode="&#x3cb;" horiz-adv-x="1265" 
d="M379 1171q-66 0 -114 48.5t-48 115.5t48 115.5t114 48.5q67 0 115.5 -48.5t48.5 -115.5t-48.5 -115.5t-115.5 -48.5zM805 1171q-66 0 -114 48.5t-48 115.5t48 115.5t114 48.5q67 0 114.5 -48t47.5 -116t-47.5 -116t-114.5 -48zM633 -31q-248 0 -384 134.5t-136 392.5v518
h284v-496q0 -154 64 -226.5t172 -72.5q233 0 233 322q0 113 -20.5 221.5t-67.5 251.5h291q47 -138 65.5 -243t18.5 -212q0 -156 -38 -271.5t-109 -184t-163.5 -101.5t-209.5 -33z" />
    <glyph glyph-name="omicrontonos" unicode="&#x3cc;" horiz-adv-x="1234" 
d="M741 1141h-243l153 387h316zM616 -25q-234 0 -391 152.5t-157 378.5q0 110 42 208.5t114.5 169.5t174.5 112.5t217 41.5q154 0 280.5 -70.5t198.5 -192.5t72 -269q0 -148 -72 -270t-198.5 -191.5t-280.5 -69.5zM616 229q116 0 192.5 78t76.5 199t-76.5 199.5t-192.5 78.5
t-191 -78.5t-75 -199.5t75 -199t191 -78z" />
    <glyph glyph-name="upsilontonos" unicode="&#x3cd;" horiz-adv-x="1265" 
d="M717 1141h-244l154 387h315zM633 -31q-248 0 -384 134.5t-136 392.5v518h284v-496q0 -154 64 -226.5t172 -72.5q233 0 233 322q0 113 -20.5 221.5t-67.5 251.5h291q47 -138 65.5 -243t18.5 -212q0 -156 -38 -271.5t-109 -184t-163.5 -101.5t-209.5 -33z" />
    <glyph glyph-name="omegatonos" unicode="&#x3ce;" horiz-adv-x="1718" 
d="M895 1528h315l-225 -387h-244zM1290 1014h271q48 -151 70 -263.5t22 -244.5q0 -267 -123.5 -402t-325.5 -135q-122 0 -215 55.5t-129 135.5q-36 -80 -128.5 -135.5t-213.5 -55.5q-204 0 -327 135t-123 402q0 133 22 246t70 262h268q-42 -152 -60 -266t-18 -259
q0 -133 51 -198.5t131 -65.5q89 0 138 72t49 205v512h278v-512q0 -132 50 -204.5t139 -72.5q80 0 131 65.5t51 198.5q0 145 -18 259t-60 266z" />
    <glyph glyph-name="uni03D7" unicode="&#x3d7;" horiz-adv-x="1142" 
d="M768 1014h367l-437 -496l396 -452q0 -244 -141.5 -372t-403.5 -128v252q216 0 266 172l-399 463v-453h-287v1014h287v-426z" />
    <glyph glyph-name="uni03D8" unicode="&#x3d8;" horiz-adv-x="1640" 
d="M965 -391h-289v375q-260 50 -427 254t-167 479q0 206 96.5 377.5t266.5 270.5t376 99q154 0 291 -58.5t235 -158t155 -238t57 -292.5q0 -275 -167 -479t-427 -254v-375zM819 256q189 0 313.5 131t124.5 330t-124.5 330t-313.5 131q-188 0 -312 -131t-124 -330t124 -330
t312 -131z" />
    <glyph glyph-name="uni03D9" unicode="&#x3d9;" horiz-adv-x="1234" 
d="M750 -391h-265v381q-186 40 -301.5 182t-115.5 334q0 110 42 208.5t114.5 169.5t174.5 112.5t217 41.5q154 0 280.5 -70.5t198.5 -192.5t72 -269q0 -192 -115.5 -333t-301.5 -183v-381zM616 229q116 0 192.5 78t76.5 199t-76.5 199.5t-192.5 78.5t-191 -78.5t-75 -199.5
t75 -199t191 -78z" />
    <glyph glyph-name="uni03F7" unicode="&#x3f7;" horiz-adv-x="1255" 
d="M459 1206h223q138 0 248 -56t177 -170.5t67 -270.5q0 -118 -38.5 -213.5t-105.5 -157t-156 -94.5t-192 -33h-223v-211h-301v1434h301v-228zM459 481h192q105 0 167.5 63t62.5 165t-62.5 163.5t-167.5 61.5h-192v-453z" />
    <glyph glyph-name="uni03F8" unicode="&#x3f8;" horiz-adv-x="1292" 
d="M416 -512h-287v2048h287v-641q125 139 325 139q139 0 250 -69.5t172.5 -189.5t61.5 -267q0 -225 -137 -376.5t-347 -151.5q-200 0 -325 139v-631zM678 233q111 0 185.5 78.5t74.5 196.5q0 117 -75 195.5t-185 78.5q-111 0 -186.5 -78.5t-75.5 -195.5q0 -118 75.5 -196.5
t186.5 -78.5z" />
    <glyph glyph-name="uni0400" unicode="&#x400;" horiz-adv-x="1214" 
d="M754 1561h-244l-238 387h312zM1116 0h-958v1434h958v-285h-657v-297h581v-256h-581v-311h657v-285z" />
    <glyph glyph-name="uni0401" unicode="&#x401;" horiz-adv-x="1214" 
d="M424 1591q-66 0 -114 48.5t-48 115.5t48 115.5t114 48.5q68 0 116 -48.5t48 -115.5t-48 -115.5t-116 -48.5zM850 1591q-66 0 -114 48.5t-48 115.5t48 115.5t114 48.5q67 0 114.5 -48t47.5 -116t-47.5 -116t-114.5 -48zM1116 0h-958v1434h958v-285h-657v-297h581v-256
h-581v-311h657v-285z" />
    <glyph glyph-name="uni0402" unicode="&#x402;" horiz-adv-x="1607" 
d="M1059 -45q-119 0 -232 35l35 250q62 -21 125 -21q86 0 136.5 50.5t50.5 146.5q0 110 -64.5 162.5t-177.5 52.5q-114 0 -217 -47v-584h-301v1147h-371v287h1047v-287h-375v-297q152 49 301 49q95 0 177 -30t145.5 -87.5t100 -150.5t36.5 -211q0 -225 -111.5 -345
t-304.5 -120z" />
    <glyph glyph-name="uni0403" unicode="&#x403;" horiz-adv-x="1089" 
d="M727 1561h-244l154 387h315zM459 0h-301v1434h889v-287h-588v-1147z" />
    <glyph glyph-name="uni0404" unicode="&#x404;" horiz-adv-x="1478" 
d="M815 256q120 0 218.5 55.5t164.5 155.5l225 -174q-92 -144 -248 -234t-362 -90q-154 0 -289.5 56.5t-232.5 154.5t-153 237.5t-56 299.5t56 299.5t153 237.5t232.5 154t289.5 56q206 0 362 -90t248 -233l-225 -174q-66 99 -165 155t-218 56q-152 0 -265.5 -91.5
t-150.5 -242.5h533v-252h-533q37 -152 150.5 -244t265.5 -92z" />
    <glyph glyph-name="uni0405" unicode="&#x405;" horiz-adv-x="1142" 
d="M561 -31q-295 0 -510 164l152 242q77 -57 169 -90t181 -33q112 0 169.5 42.5t57.5 111.5q0 30 -13.5 55t-35 41.5t-56 31.5t-67.5 25.5t-78 23.5q-21 6 -32 9q-48 14 -86.5 27.5t-84 35t-81 45.5t-70 59t-56.5 75.5t-36 94t-14 115.5q0 185 141 302.5t369 117.5
q273 0 469 -141l-152 -238q-154 99 -313 99q-93 0 -149 -42.5t-56 -103.5q0 -50 44 -88t87.5 -53.5t144.5 -45.5l9 -3q81 -25 140.5 -49.5t116.5 -62t92.5 -82.5t57 -109t21.5 -144q0 -195 -142 -313.5t-389 -118.5z" />
    <glyph glyph-name="uni0406" unicode="&#x406;" horiz-adv-x="614" 
d="M459 0h-301v1434h301v-1434z" />
    <glyph glyph-name="uni0407" unicode="&#x407;" horiz-adv-x="614" 
d="M123 1595q-63 0 -107.5 45t-44.5 115t44.5 115t107.5 45q64 0 108.5 -44.5t44.5 -115.5t-44.5 -115.5t-108.5 -44.5zM487 1595q-63 0 -107 45t-44 115t44 115t107 45q65 0 109.5 -44.5t44.5 -115.5t-44.5 -115.5t-109.5 -44.5zM459 0h-301v1434h301v-1434z" />
    <glyph glyph-name="uni0408" unicode="&#x408;" horiz-adv-x="1095" 
d="M457 -31q-249 0 -410 148l146 233q107 -90 241 -90q106 0 165.5 67.5t59.5 194.5v912h304v-916q0 -143 -41 -251.5t-113 -172t-160.5 -94.5t-191.5 -31z" />
    <glyph glyph-name="uni0409" unicode="&#x409;" horiz-adv-x="2035" 
d="M143 -10q-79 0 -129 16v266q35 -12 78 -12q38 0 65.5 12t52 46t39.5 93t23.5 154.5t8.5 229.5v639h970v-457h215q220 0 357 -135.5t137 -352.5q0 -218 -137 -353.5t-357 -135.5h-516v1147h-375v-397q0 -215 -25 -360.5t-79.5 -234.5t-133.5 -127t-194 -38zM1251 700v-424
h191q99 0 158 57t59 156t-59 155t-158 56h-191z" />
    <glyph glyph-name="uni040A" unicode="&#x40a;" horiz-adv-x="2062" 
d="M459 0h-301v1434h301v-537h518v537h303v-537h231q214 0 346 -123t132 -325t-132 -325.5t-346 -123.5h-534v608h-518v-608zM1280 623v-349h209q90 0 144.5 47t54.5 128q0 82 -54 128t-145 46h-209z" />
    <glyph glyph-name="uni040B" unicode="&#x40b;" horiz-adv-x="1568" 
d="M1036 901q83 0 152.5 -22t126.5 -69t89 -129t32 -192v-489h-301v430q0 207 -199 207q-112 0 -221 -53v-584h-301v1147h-371v287h1047v-287h-375v-313q154 67 321 67z" />
    <glyph glyph-name="uni040C" unicode="&#x40c;" horiz-adv-x="1392" 
d="M844 1561h-244l154 387h315zM459 0h-301v1434h301v-574h176l356 574h369l-467 -713l489 -721h-370l-375 573h-178v-573z" />
    <glyph glyph-name="uni040D" unicode="&#x40d;" horiz-adv-x="1497" 
d="M866 1561h-243l-238 387h311zM451 0h-293v1434h295v-924l594 924h294v-1434h-297v922z" />
    <glyph glyph-name="uni040E" unicode="&#x40e;" horiz-adv-x="1232" 
d="M618 1567q-153 0 -243.5 83.5t-108.5 229.5q-2 20 -2 62h215l2 -35q5 -75 39.5 -116.5t97.5 -41.5q138 0 138 193h217q0 -172 -93 -273.5t-262 -101.5zM631 694l262 740h324l-418 -1076q-35 -91 -71.5 -155.5t-87.5 -119t-120.5 -81.5t-157.5 -27q-124 0 -223 54l88 250
q64 -25 111 -25q103 0 166 106l-488 1074h326z" />
    <glyph glyph-name="uni040F" unicode="&#x40f;" horiz-adv-x="1460" 
d="M883 -313h-301v313h-424v1434h301v-1147h542v1147h302v-1434h-420v-313z" />
    <glyph glyph-name="uni0410" unicode="&#x410;" horiz-adv-x="1355" 
d="M1331 0h-317l-82 270h-510l-80 -270h-317l469 1434h362zM674 1110l-174 -582h354l-176 582h-4z" />
    <glyph glyph-name="uni0411" unicode="&#x411;" horiz-adv-x="1265" 
d="M459 891h272q213 0 338 -121.5t125 -323.5q0 -203 -125 -324.5t-338 -121.5h-573v1434h929v-283h-628v-260zM459 264h221q103 0 157 49t54 138q0 90 -54 139t-157 49h-221v-375z" />
    <glyph glyph-name="uni0412" unicode="&#x412;" horiz-adv-x="1308" 
d="M748 0h-590v1434h536q210 0 333.5 -97.5t123.5 -279.5q0 -212 -172 -309v-5q34 -12 65.5 -29.5t65 -47.5t58 -67t40 -91t15.5 -117q0 -184 -122 -287.5t-353 -103.5zM459 1174v-328h215q86 0 136 41t50 121q0 83 -49.5 124.5t-136.5 41.5h-215zM459 610v-350h256
q99 0 152 44t53 132q0 83 -55.5 128.5t-149.5 45.5h-256z" />
    <glyph glyph-name="uni0413" unicode="&#x413;" horiz-adv-x="1089" 
d="M459 0h-301v1434h889v-287h-588v-1147z" />
    <glyph glyph-name="uni0414" unicode="&#x414;" horiz-adv-x="1523" 
d="M324 -313h-301v600h118q176 228 176 641v506h981v-1147h168v-600h-301v313h-841v-313zM473 287h522v860h-381v-234q0 -392 -141 -626z" />
    <glyph glyph-name="uni0415" unicode="&#x415;" horiz-adv-x="1214" 
d="M1116 0h-958v1434h958v-285h-657v-297h581v-256h-581v-311h657v-285z" />
    <glyph glyph-name="uni0416" unicode="&#x416;" horiz-adv-x="1988" 
d="M365 0h-355l408 723l-385 711h350l293 -574h168v574h301v-574h170l291 574h350l-383 -711l405 -723h-354l-307 573h-172v-573h-301v573h-172z" />
    <glyph glyph-name="uni0417" unicode="&#x417;" horiz-adv-x="1159" 
d="M557 -31q-160 0 -290.5 46.5t-211.5 119.5l142 232q153 -111 346 -111q109 0 172 47t63 135q0 84 -60 124t-163 40h-145v262h125q95 0 146.5 40t51.5 120q0 70 -57 114t-148 44q-140 0 -303 -99l-141 226q222 155 463 155q214 0 340.5 -109.5t126.5 -291.5
q0 -117 -49 -198.5t-127 -119.5v-8q109 -37 171 -126.5t62 -213.5q0 -192 -136.5 -310t-377.5 -118z" />
    <glyph glyph-name="uni0418" unicode="&#x418;" horiz-adv-x="1497" 
d="M451 0h-293v1434h295v-924l594 924h294v-1434h-297v922z" />
    <glyph glyph-name="uni0419" unicode="&#x419;" horiz-adv-x="1497" 
d="M748 1567q-154 0 -244.5 83.5t-108.5 229.5q-2 20 -2 62h215l2 -35q5 -75 40 -116.5t98 -41.5q137 0 137 193h217q0 -172 -92.5 -273.5t-261.5 -101.5zM451 0h-293v1434h295v-924l594 924h294v-1434h-297v922z" />
    <glyph glyph-name="uni041A" unicode="&#x41a;" horiz-adv-x="1392" 
d="M459 0h-301v1434h301v-574h176l356 574h369l-467 -713l489 -721h-370l-375 573h-178v-573z" />
    <glyph glyph-name="uni041B" unicode="&#x41b;" horiz-adv-x="1449" 
d="M1292 1434v-1434h-301v1147h-401v-313q0 -321 -49 -507t-144 -261.5t-254 -75.5q-79 0 -129 16v279q37 -13 78 -13t69.5 13t55.5 50.5t43 104t25.5 176t9.5 263.5v555h997z" />
    <glyph glyph-name="uni041C" unicode="&#x41c;" horiz-adv-x="1783" 
d="M449 0h-291v1434h338l397 -842l395 842h338v-1434h-291v928l-329 -699h-230l-327 699v-928z" />
    <glyph glyph-name="uni041D" unicode="&#x41d;" horiz-adv-x="1456" 
d="M459 0h-301v1434h301v-582h540v582h301v-1434h-301v563h-540v-563z" />
    <glyph glyph-name="uni041E" unicode="&#x41e;" horiz-adv-x="1640" 
d="M821 -31q-206 0 -376 99.5t-266.5 271t-96.5 377.5t96.5 377.5t266.5 270.5t376 99q154 0 291 -58.5t235 -158t155 -238t57 -292.5t-57 -292.5t-155 -238.5t-235 -158.5t-291 -58.5zM819 256q189 0 313.5 131t124.5 330t-124.5 330t-313.5 131q-188 0 -312 -131
t-124 -330t124 -330t312 -131z" />
    <glyph glyph-name="uni041F" unicode="&#x41f;" horiz-adv-x="1460" 
d="M1303 1434v-1434h-302v1143h-542v-1143h-301v1434h1145z" />
    <glyph glyph-name="uni0420" unicode="&#x420;" horiz-adv-x="1255" 
d="M459 0h-301v1434h524q102 0 191.5 -33t156.5 -94.5t105.5 -155.5t38.5 -209q0 -156 -67 -269.5t-177 -168.5t-248 -55h-223v-449zM459 1161v-450h192q104 0 165 62t61 163q0 102 -60.5 163.5t-165.5 61.5h-192z" />
    <glyph glyph-name="uni0421" unicode="&#x421;" horiz-adv-x="1488" 
d="M819 -31q-155 0 -292 56.5t-234.5 154.5t-154 237.5t-56.5 299.5t56.5 299.5t154 237.5t234.5 154t292 56q209 0 366 -90t249 -233l-226 -174q-65 99 -164.5 155t-222.5 56q-186 0 -312 -130t-126 -331t126 -331t312 -130q125 0 223.5 55.5t161.5 155.5l228 -174
q-93 -144 -250 -234t-365 -90z" />
    <glyph glyph-name="uni0422" unicode="&#x422;" horiz-adv-x="1212" 
d="M758 0h-301v1147h-414v287h1126v-287h-411v-1147z" />
    <glyph glyph-name="uni0423" unicode="&#x423;" horiz-adv-x="1232" 
d="M631 694l262 740h324l-418 -1076q-35 -91 -71.5 -155.5t-87.5 -119t-120.5 -81.5t-157.5 -27q-124 0 -223 54l88 250q64 -25 111 -25q103 0 166 106l-488 1074h326z" />
    <glyph glyph-name="uni0424" unicode="&#x424;" horiz-adv-x="1730" 
d="M1647 719q0 -276 -163 -438.5t-468 -190.5v-141h-301v139q-304 28 -468.5 192.5t-164.5 438.5q0 273 165 438.5t468 190.5v137h301v-137q303 -26 467 -191t164 -438zM383 719q0 -160 85.5 -259t246.5 -124v764q-161 -25 -246.5 -123.5t-85.5 -257.5zM1016 1098v-760
q160 25 245 123t85 258q0 158 -85 255.5t-245 123.5z" />
    <glyph glyph-name="uni0425" unicode="&#x425;" horiz-adv-x="1310" 
d="M385 0h-354l411 717l-397 717h354l256 -500l256 500h355l-398 -717l412 -717h-354l-271 500z" />
    <glyph glyph-name="uni0426" unicode="&#x426;" horiz-adv-x="1507" 
d="M1452 -313h-301v313h-993v1434h301v-1147h522v1147h301v-1147h170v-600z" />
    <glyph glyph-name="uni0427" unicode="&#x427;" horiz-adv-x="1384" 
d="M926 754v680h303v-1434h-303v494q-147 -64 -301 -64q-107 0 -195 28.5t-155 85t-104.5 149.5t-37.5 214v527h301v-500q0 -66 20.5 -114t58 -73.5t81 -37t96.5 -11.5q115 0 236 56z" />
    <glyph glyph-name="uni0428" unicode="&#x428;" horiz-adv-x="2095" 
d="M1937 0h-1779v1434h301v-1147h440v1147h295v-1147h442v1147h301v-1434z" />
    <glyph glyph-name="uni0429" unicode="&#x429;" horiz-adv-x="2162" 
d="M2107 -313h-301v313h-1648v1434h301v-1147h440v1147h295v-1147h442v1147h301v-1147h170v-600z" />
    <glyph glyph-name="uni042A" unicode="&#x42a;" horiz-adv-x="1404" 
d="M836 0h-537v1147h-285v287h586v-457h236q220 0 356.5 -135.5t136.5 -352.5q0 -218 -136.5 -353.5t-356.5 -135.5zM600 700v-424h211q98 0 157.5 57t59.5 156t-59 155t-158 56h-211z" />
    <glyph glyph-name="uni042B" unicode="&#x42b;" horiz-adv-x="1794" 
d="M682 0h-524v1434h301v-457h223q219 0 354 -135.5t135 -352.5q0 -219 -135 -354t-354 -135zM1636 0h-301v1434h301v-1434zM459 700v-424h196q99 0 159 57t60 156t-59 155t-160 56h-196z" />
    <glyph glyph-name="uni042C" unicode="&#x42c;" horiz-adv-x="1261" 
d="M694 0h-536v1434h301v-457h235q219 0 355.5 -135.5t136.5 -352.5q0 -218 -136 -353.5t-356 -135.5zM459 700v-424h209q99 0 158 57t59 156t-58.5 155t-158.5 56h-209z" />
    <glyph glyph-name="uni042D" unicode="&#x42d;" horiz-adv-x="1478" 
d="M666 1464q154 0 289.5 -56t232.5 -154t153 -237.5t56 -299.5t-56 -299.5t-153 -237.5t-232.5 -154.5t-289.5 -56.5q-206 0 -362.5 90t-248.5 234l226 174q66 -100 164.5 -155.5t218.5 -55.5q152 0 265 92t150 244h-532v252h532q-37 151 -150 242.5t-265 91.5
q-119 0 -218 -56t-165 -155l-226 174q92 143 248.5 233t362.5 90z" />
    <glyph glyph-name="uni042E" unicode="&#x42e;" horiz-adv-x="2160" 
d="M1358 1464q201 0 365 -94.5t259 -266t95 -386.5q0 -161 -55.5 -301t-151.5 -237.5t-228.5 -153.5t-283.5 -56q-271 0 -468 167.5t-241 436.5h-190v-573h-301v1434h301v-574h190q44 269 241 436.5t468 167.5zM1358 256q181 0 301.5 128.5t120.5 332.5t-120.5 332.5
t-301.5 128.5t-301.5 -128.5t-120.5 -332.5t120.5 -332.5t301.5 -128.5z" />
    <glyph glyph-name="uni042F" unicode="&#x42f;" horiz-adv-x="1331" 
d="M625 1434h551v-1434h-302v485h-192l-268 -485h-342l311 539q-115 59 -180.5 168.5t-65.5 250.5q0 212 135.5 344t352.5 132zM655 758h219v403h-219q-95 0 -156 -56t-61 -147t60.5 -145.5t156.5 -54.5z" />
    </font>
</defs>
</svg>
